Nunito-Bold.ufo
<glyph name="exclam" format="1">
  <advance width="776"/>
  <unicode hex="0021"/>
  <outline>
    <contour>
      <point x="386" y="255" type="qcurve"/>
      <point x="424" y="255"/>
      <point x="488" y="235"/>
      <point x="534" y="200"/>
      <point x="560" y="154"/>
      <point x="560" y="128" type="qcurve"/>
      <point x="560" y="100"/>
      <point x="534" y="53"/>
      <point x="487" y="19"/>
      <point x="423" y="0"/>
      <point x="386" y="0" type="qcurve"/>
      <point x="346" y="0"/>
      <point x="282" y="20"/>
      <point x="236" y="54"/>
      <point x="211" y="101"/>
      <point x="211" y="128" type="qcurve"/>
      <point x="211" y="153"/>
      <point x="235" y="199"/>
      <point x="280" y="234"/>
      <point x="345" y="255"/>
    </contour>
    <contour>
      <point x="386" y="394" type="qcurve"/>
      <point x="348" y="394"/>
      <point x="294" y="428"/>
      <point x="258" y="488"/>
      <point x="240" y="570"/>
      <point x="238" y="618" type="qcurve"/>
      <point x="205" y="1323" type="line"/>
      <point x="204" y="1328"/>
      <point x="204" y="1340" type="qcurve"/>
      <point x="204" y="1373"/>
      <point x="234" y="1424"/>
      <point x="284" y="1460"/>
      <point x="350" y="1479"/>
      <point x="385" y="1479" type="qcurve"/>
      <point x="420" y="1479"/>
      <point x="486" y="1460"/>
      <point x="536" y="1424"/>
      <point x="566" y="1373"/>
      <point x="566" y="1340" type="qcurve"/>
      <point x="566" y="1328"/>
      <point x="565" y="1323" type="qcurve"/>
      <point x="532" y="618" type="line"/>
      <point x="530" y="570"/>
      <point x="512" y="488"/>
      <point x="478" y="428"/>
      <point x="424" y="394"/>
    </contour>
  </outline>
</glyph>
<glyph name="quotedbl" format="1">
  <advance width="908"/>
  <unicode hex="0022"/>
  <outline>
    <contour>
      <point x="517" y="1363" type="line"/>
      <point x="516" y="1366"/>
      <point x="516" y="1370"/>
      <point x="516" y="1376" type="curve" smooth="yes"/>
      <point x="516" y="1437"/>
      <point x="572" y="1476"/>
      <point x="639" y="1476" type="curve" smooth="yes"/>
      <point x="699" y="1476"/>
      <point x="760" y="1442"/>
      <point x="760" y="1370" type="curve"/>
      <point x="758" y="1348" type="line" smooth="yes"/>
      <point x="758" y="1341"/>
      <point x="757" y="1332"/>
      <point x="757" y="1325" type="curve"/>
      <point x="728" y="1041" type="line"/>
      <point x="718" y="964"/>
      <point x="688" y="925"/>
      <point x="637" y="925" type="curve" smooth="yes"/>
      <point x="597" y="925"/>
      <point x="557" y="957"/>
      <point x="550" y="1022" type="curve"/>
    </contour>
    <contour>
      <point x="143" y="1363" type="line"/>
      <point x="142" y="1366"/>
      <point x="142" y="1370"/>
      <point x="142" y="1376" type="curve" smooth="yes"/>
      <point x="142" y="1437"/>
      <point x="198" y="1476"/>
      <point x="265" y="1476" type="curve" smooth="yes"/>
      <point x="326" y="1476"/>
      <point x="387" y="1445"/>
      <point x="387" y="1370" type="curve"/>
      <point x="385" y="1348" type="line" smooth="yes"/>
      <point x="384" y="1341"/>
      <point x="383" y="1332"/>
      <point x="383" y="1325" type="curve"/>
      <point x="354" y="1041" type="line" smooth="yes"/>
      <point x="346" y="965"/>
      <point x="313" y="925"/>
      <point x="264" y="925" type="curve" smooth="yes"/>
      <point x="224" y="925"/>
      <point x="182" y="957"/>
      <point x="176" y="1022" type="curve" smooth="yes"/>
    </contour>
  </outline>
</glyph>
<glyph name="numbersign" format="1">
  <advance width="1299"/>
  <unicode hex="0023"/>
  <outline>
    <contour>
      <point x="715" y="429" type="line"/>
      <point x="509" y="429" type="line"/>
      <point x="461" y="90" type="line"/>
      <point x="457" y="65"/>
      <point x="444" y="21"/>
      <point x="420" y="-11"/>
      <point x="382" y="-29"/>
      <point x="354" y="-29" type="qcurve"/>
      <point x="316" y="-27"/>
      <point x="266" y="28"/>
      <point x="266" y="73" type="qcurve"/>
      <point x="270" y="100" type="line"/>
      <point x="271" y="107"/>
      <point x="272" y="121"/>
      <point x="274" y="129" type="qcurve"/>
      <point x="317" y="429" type="line"/>
      <point x="251" y="429" type="line"/>
      <point x="227" y="429"/>
      <point x="186" y="438"/>
      <point x="155" y="461"/>
      <point x="138" y="499"/>
      <point x="138" y="529" type="qcurve"/>
      <point x="140" y="567"/>
      <point x="191" y="612"/>
      <point x="239" y="612" type="qcurve"/>
      <point x="342" y="612" type="line"/>
      <point x="376" y="852" type="line"/>
      <point x="309" y="852" type="line"/>
      <point x="288" y="852"/>
      <point x="247" y="860"/>
      <point x="215" y="881"/>
      <point x="195" y="916"/>
      <point x="195" y="944" type="qcurve"/>
      <point x="195" y="988"/>
      <point x="252" y="1035"/>
      <point x="309" y="1035" type="qcurve"/>
      <point x="402" y="1035" type="line"/>
      <point x="448" y="1359" type="line"/>
      <point x="455" y="1408"/>
      <point x="502" y="1468"/>
      <point x="555" y="1468" type="qcurve"/>
      <point x="590" y="1465"/>
      <point x="641" y="1417"/>
      <point x="641" y="1372" type="qcurve"/>
      <point x="641" y="1366" type="line"/>
      <point x="638" y="1337" type="line"/>
      <point x="637" y="1329"/>
      <point x="634" y="1315"/>
      <point x="633" y="1308" type="qcurve"/>
      <point x="623" y="1239"/>
      <point x="605" y="1104"/>
      <point x="594" y="1035" type="qcurve"/>
      <point x="799" y="1035" type="line"/>
      <point x="846" y="1359" type="line"/>
      <point x="854" y="1418"/>
      <point x="905" y="1468"/>
      <point x="953" y="1468" type="qcurve"/>
      <point x="988" y="1465"/>
      <point x="1040" y="1417"/>
      <point x="1040" y="1376" type="qcurve"/>
      <point x="1040" y="1365"/>
      <point x="1037" y="1343"/>
      <point x="1036" y="1333" type="qcurve"/>
      <point x="992" y="1035" type="line"/>
      <point x="1046" y="1035" type="line"/>
      <point x="1068" y="1035"/>
      <point x="1109" y="1026"/>
      <point x="1142" y="1005"/>
      <point x="1162" y="970"/>
      <point x="1162" y="943" type="qcurve"/>
      <point x="1162" y="895"/>
      <point x="1102" y="852"/>
      <point x="1046" y="852" type="qcurve"/>
      <point x="967" y="852" type="line"/>
      <point x="933" y="612" type="line"/>
      <point x="988" y="612" type="line"/>
      <point x="1009" y="612"/>
      <point x="1051" y="604"/>
      <point x="1084" y="583"/>
      <point x="1104" y="547"/>
      <point x="1104" y="520" type="qcurve"/>
      <point x="1104" y="472"/>
      <point x="1044" y="429"/>
      <point x="988" y="429" type="qcurve"/>
      <point x="908" y="429" type="line"/>
      <point x="857" y="77" type="line"/>
      <point x="854" y="56"/>
      <point x="842" y="18"/>
      <point x="819" y="-12"/>
      <point x="786" y="-29"/>
      <point x="762" y="-29" type="qcurve"/>
      <point x="721" y="-29"/>
      <point x="665" y="24"/>
      <point x="665" y="72" type="qcurve"/>
      <point x="669" y="100" type="line"/>
      <point x="670" y="107"/>
      <point x="671" y="121"/>
      <point x="673" y="129" type="qcurve"/>
    </contour>
    <contour>
      <point x="535" y="612" type="line"/>
      <point x="740" y="612" type="line"/>
      <point x="774" y="852" type="line"/>
      <point x="568" y="852" type="line"/>
    </contour>
  </outline>
</glyph>
<glyph name="dollar" format="1">
  <advance width="1371"/>
  <unicode hex="0024"/>
  <outline>
    <contour>
      <point x="663" y="-211" type="curve" smooth="yes"/>
      <point x="718" y="-211"/>
      <point x="731" y="-165"/>
      <point x="731" y="-122" type="curve" smooth="yes"/>
      <point x="731" y="-38" type="line"/>
      <point x="1055" y="-17"/>
      <point x="1263" y="152"/>
      <point x="1263" y="418" type="curve" smooth="yes"/>
      <point x="1263" y="681"/>
      <point x="1065" y="760"/>
      <point x="791" y="845" type="curve"/>
      <point x="690" y="873" type="line" smooth="yes"/>
      <point x="564" y="908"/>
      <point x="431" y="951"/>
      <point x="431" y="1068" type="curve" smooth="yes"/>
      <point x="431" y="1166"/>
      <point x="557" y="1209"/>
      <point x="675" y="1209" type="curve" smooth="yes"/>
      <point x="706" y="1209"/>
      <point x="737" y="1206"/>
      <point x="769" y="1203" type="curve" smooth="yes"/>
      <point x="921" y="1187"/>
      <point x="974" y="1170"/>
      <point x="1049" y="1157" type="curve" smooth="yes"/>
      <point x="1056" y="1156"/>
      <point x="1063" y="1156"/>
      <point x="1070" y="1156" type="curve" smooth="yes"/>
      <point x="1141" y="1156"/>
      <point x="1188" y="1204"/>
      <point x="1188" y="1265" type="curve" smooth="yes"/>
      <point x="1188" y="1417"/>
      <point x="939" y="1450"/>
      <point x="731" y="1461" type="curve"/>
      <point x="731" y="1547" type="line" smooth="yes"/>
      <point x="731" y="1590"/>
      <point x="699" y="1614"/>
      <point x="664" y="1614" type="curve" smooth="yes"/>
      <point x="625" y="1614"/>
      <point x="597" y="1588"/>
      <point x="597" y="1536" type="curve" smooth="yes"/>
      <point x="597" y="1460" type="line"/>
      <point x="269" y="1436"/>
      <point x="81" y="1265"/>
      <point x="81" y="1037" type="curve" smooth="yes"/>
      <point x="81" y="853"/>
      <point x="172" y="736"/>
      <point x="351" y="673" type="curve" smooth="yes"/>
      <point x="376" y="664"/>
      <point x="420" y="647"/>
      <point x="467" y="633" type="curve" smooth="yes"/>
      <point x="552" y="608" type="line"/>
      <point x="695" y="566" type="line"/>
      <point x="811" y="528"/>
      <point x="907" y="486"/>
      <point x="907" y="382" type="curve" smooth="yes"/>
      <point x="907" y="265"/>
      <point x="774" y="219"/>
      <point x="656" y="219" type="curve" smooth="yes"/>
      <point x="536" y="219"/>
      <point x="429" y="239"/>
      <point x="345" y="264" type="curve" smooth="yes"/>
      <point x="294" y="279"/>
      <point x="255" y="298"/>
      <point x="215" y="298" type="curve" smooth="yes"/>
      <point x="143" y="298"/>
      <point x="97" y="235"/>
      <point x="97" y="172" type="curve" smooth="yes"/>
      <point x="97" y="152"/>
      <point x="102" y="133"/>
      <point x="113" y="113" type="curve" smooth="yes"/>
      <point x="151" y="39"/>
      <point x="382" y="-31"/>
      <point x="597" y="-39" type="curve"/>
      <point x="597" y="-144" type="line" smooth="yes"/>
      <point x="597" y="-189"/>
      <point x="628" y="-211"/>
    </contour>
  </outline>
</glyph>
<glyph name="percent" format="1">
  <advance width="2109"/>
  <unicode hex="0025"/>
  <outline>
    <contour>
      <point x="516" y="1288" type="qcurve"/>
      <point x="443" y="1288"/>
      <point x="377" y="1159"/>
      <point x="377" y="1025" type="qcurve"/>
      <point x="377" y="891"/>
      <point x="440" y="761"/>
      <point x="516" y="761" type="qcurve"/>
      <point x="591" y="761"/>
      <point x="656" y="890"/>
      <point x="656" y="1025" type="qcurve"/>
      <point x="656" y="1159"/>
      <point x="591" y="1288"/>
    </contour>
    <contour>
      <point x="1348" y="1436" type="line"/>
      <point x="1362" y="1461"/>
      <point x="1397" y="1482"/>
      <point x="1417" y="1482" type="qcurve"/>
      <point x="1431" y="1482"/>
      <point x="1458" y="1470"/>
      <point x="1478" y="1450"/>
      <point x="1490" y="1424"/>
      <point x="1490" y="1409" type="qcurve"/>
      <point x="1490" y="1388"/>
      <point x="1465" y="1337"/>
      <point x="1453" y="1313" type="qcurve"/>
      <point x="752" y="30" type="line"/>
      <point x="743" y="14"/>
      <point x="724" y="-19"/>
      <point x="701" y="-45"/>
      <point x="676" y="-62"/>
      <point x="661" y="-62" type="qcurve"/>
      <point x="645" y="-62"/>
      <point x="616" y="-50"/>
      <point x="595" y="-29"/>
      <point x="582" y="-2"/>
      <point x="582" y="13" type="qcurve"/>
      <point x="582" y="21"/>
      <point x="589" y="42"/>
      <point x="600" y="66"/>
      <point x="613" y="90"/>
      <point x="619" y="100" type="qcurve"/>
    </contour>
    <contour>
      <point x="516" y="1457" type="qcurve"/>
      <point x="591" y="1457"/>
      <point x="706" y="1419"/>
      <point x="789" y="1354"/>
      <point x="845" y="1268"/>
      <point x="879" y="1172"/>
      <point x="893" y="1072"/>
      <point x="893" y="1025" type="qcurve"/>
      <point x="893" y="927"/>
      <point x="838" y="767"/>
      <point x="739" y="654"/>
      <point x="600" y="592"/>
      <point x="516" y="592" type="qcurve"/>
      <point x="429" y="592"/>
      <point x="289" y="647"/>
      <point x="192" y="757"/>
      <point x="140" y="918"/>
      <point x="140" y="1025" type="qcurve"/>
      <point x="140" y="1120"/>
      <point x="193" y="1279"/>
      <point x="290" y="1393"/>
      <point x="429" y="1457"/>
    </contour>
    <contour>
      <point x="1592" y="831" type="qcurve"/>
      <point x="1668" y="831"/>
      <point x="1782" y="792"/>
      <point x="1866" y="727"/>
      <point x="1921" y="640"/>
      <point x="1954" y="544"/>
      <point x="1968" y="444"/>
      <point x="1968" y="398" type="qcurve"/>
      <point x="1968" y="303"/>
      <point x="1916" y="144"/>
      <point x="1818" y="29"/>
      <point x="1679" y="-35"/>
      <point x="1592" y="-35" type="qcurve"/>
      <point x="1504" y="-35"/>
      <point x="1365" y="21"/>
      <point x="1268" y="130"/>
      <point x="1216" y="292"/>
      <point x="1216" y="398" type="qcurve"/>
      <point x="1216" y="494"/>
      <point x="1269" y="653"/>
      <point x="1366" y="767"/>
      <point x="1505" y="831"/>
    </contour>
    <contour>
      <point x="1592" y="662" type="qcurve"/>
      <point x="1517" y="662"/>
      <point x="1453" y="532"/>
      <point x="1453" y="398" type="qcurve"/>
      <point x="1453" y="265"/>
      <point x="1515" y="135"/>
      <point x="1592" y="135" type="qcurve"/>
      <point x="1661" y="135"/>
      <point x="1731" y="257"/>
      <point x="1731" y="398" type="qcurve"/>
      <point x="1731" y="527"/>
      <point x="1669" y="662"/>
    </contour>
  </outline>
</glyph>
<glyph name="ampersand" format="1">
  <advance width="1659"/>
  <unicode hex="0026"/>
  <outline>
    <contour>
      <point x="1369" y="-28" type="curve" smooth="yes"/>
      <point x="1438" y="-28"/>
      <point x="1501" y="33"/>
      <point x="1501" y="102" type="curve" smooth="yes"/>
      <point x="1501" y="155"/>
      <point x="1455" y="217"/>
      <point x="1409" y="266" type="curve" smooth="yes"/>
      <point x="1365" y="312" type="line"/>
      <point x="1456" y="435"/>
      <point x="1526" y="645"/>
      <point x="1526" y="757" type="curve" smooth="yes"/>
      <point x="1526" y="839"/>
      <point x="1465" y="878"/>
      <point x="1396" y="878" type="curve" smooth="yes"/>
      <point x="1384" y="878"/>
      <point x="1372" y="877"/>
      <point x="1361" y="873" type="curve" smooth="yes"/>
      <point x="1318" y="857"/>
      <point x="1280" y="668"/>
      <point x="1232" y="581" type="curve"/>
      <point x="1201" y="570"/>
      <point x="1168" y="555"/>
      <point x="1127" y="546" type="curve"/>
      <point x="1043" y="634"/>
      <point x="959" y="720"/>
      <point x="874" y="808" type="curve"/>
      <point x="1036" y="917"/>
      <point x="1154" y="1049"/>
      <point x="1154" y="1191" type="curve" smooth="yes"/>
      <point x="1154" y="1415"/>
      <point x="911" y="1511"/>
      <point x="691" y="1511" type="curve" smooth="yes"/>
      <point x="447" y="1511"/>
      <point x="229" y="1400"/>
      <point x="229" y="1182" type="curve" smooth="yes"/>
      <point x="229" y="1052"/>
      <point x="329" y="929"/>
      <point x="446" y="833" type="curve"/>
      <point x="222" y="732"/>
      <point x="72" y="601"/>
      <point x="72" y="408" type="curve" smooth="yes"/>
      <point x="72" y="107"/>
      <point x="376" y="-21"/>
      <point x="676" y="-21" type="curve" smooth="yes"/>
      <point x="869" y="-21"/>
      <point x="1033" y="39"/>
      <point x="1142" y="139" type="curve"/>
      <point x="1216" y="62" type="line" smooth="yes"/>
      <point x="1265" y="11"/>
      <point x="1325" y="-28"/>
    </contour>
    <contour>
      <point x="681" y="185" type="curve" smooth="yes"/>
      <point x="528" y="185"/>
      <point x="401" y="267"/>
      <point x="401" y="416" type="curve" smooth="yes"/>
      <point x="401" y="506"/>
      <point x="525" y="616"/>
      <point x="629" y="664" type="curve"/>
      <point x="977" y="300" type="line"/>
      <point x="886" y="228"/>
      <point x="794" y="185"/>
    </contour>
    <contour>
      <point x="684" y="965" type="curve"/>
      <point x="614" y="1024"/>
      <point x="537" y="1113"/>
      <point x="537" y="1193" type="curve" smooth="yes"/>
      <point x="537" y="1281"/>
      <point x="619" y="1315"/>
      <point x="697" y="1315" type="curve" smooth="yes"/>
      <point x="776" y="1315"/>
      <point x="853" y="1276"/>
      <point x="853" y="1193" type="curve" smooth="yes"/>
      <point x="853" y="1109"/>
      <point x="769" y="1034"/>
    </contour>
  </outline>
</glyph>
<glyph name="quotesingle" format="1">
  <advance width="649"/>
  <unicode hex="0027"/>
  <outline>
    <contour>
      <point x="323" y="925" type="curve" smooth="yes"/>
      <point x="374" y="925"/>
      <point x="404" y="964"/>
      <point x="414" y="1041" type="curve"/>
      <point x="442" y="1325" type="line"/>
      <point x="445" y="1371" type="line"/>
      <point x="445" y="1443"/>
      <point x="386" y="1476"/>
      <point x="324" y="1476" type="curve" smooth="yes"/>
      <point x="257" y="1476"/>
      <point x="201" y="1437"/>
      <point x="201" y="1376" type="curve" smooth="yes"/>
      <point x="201" y="1370"/>
      <point x="201" y="1366"/>
      <point x="202" y="1363" type="curve"/>
      <point x="236" y="1022" type="line"/>
      <point x="241" y="957"/>
      <point x="283" y="925"/>
    </contour>
  </outline>
</glyph>
<glyph name="parenleft" format="1">
  <advance width="689"/>
  <unicode hex="0028"/>
  <outline>
    <contour>
      <point x="336" y="-172" type="qcurve"/>
      <point x="251" y="27"/>
      <point x="149" y="408"/>
      <point x="149" y="601" type="qcurve"/>
      <point x="149" y="691"/>
      <point x="172" y="870"/>
      <point x="214" y="1049"/>
      <point x="271" y="1230"/>
      <point x="306" y="1322" type="qcurve"/>
      <point x="319" y="1358"/>
      <point x="353" y="1419"/>
      <point x="393" y="1464"/>
      <point x="439" y="1490"/>
      <point x="466" y="1490" type="qcurve"/>
      <point x="491" y="1490"/>
      <point x="535" y="1473"/>
      <point x="568" y="1440"/>
      <point x="587" y="1394"/>
      <point x="587" y="1365" type="qcurve"/>
      <point x="587" y="1345"/>
      <point x="575" y="1297"/>
      <point x="567" y="1274" type="qcurve"/>
      <point x="512" y="1106"/>
      <point x="452" y="773"/>
      <point x="452" y="604" type="qcurve"/>
      <point x="452" y="443"/>
      <point x="508" y="123"/>
      <point x="562" y="-42" type="qcurve"/>
      <point x="570" y="-66"/>
      <point x="583" y="-113"/>
      <point x="583" y="-134" type="qcurve"/>
      <point x="583" y="-162"/>
      <point x="565" y="-208"/>
      <point x="533" y="-241"/>
      <point x="489" y="-259"/>
      <point x="464" y="-259" type="qcurve"/>
      <point x="447" y="-259"/>
      <point x="410" y="-250"/>
      <point x="376" y="-230"/>
      <point x="346" y="-197"/>
    </contour>
  </outline>
</glyph>
<glyph name="parenright" format="1">
  <advance width="689"/>
  <unicode hex="0029"/>
  <outline>
    <contour>
      <point x="360" y="-172" type="qcurve"/>
      <point x="350" y="-197"/>
      <point x="319" y="-231"/>
      <point x="283" y="-251"/>
      <point x="245" y="-260"/>
      <point x="228" y="-260" type="qcurve"/>
      <point x="203" y="-260"/>
      <point x="161" y="-242"/>
      <point x="130" y="-209"/>
      <point x="113" y="-163"/>
      <point x="113" y="-136" type="qcurve"/>
      <point x="113" y="-114"/>
      <point x="127" y="-67"/>
      <point x="135" y="-43" type="qcurve"/>
      <point x="189" y="117"/>
      <point x="245" y="442"/>
      <point x="245" y="606" type="qcurve"/>
      <point x="245" y="772"/>
      <point x="185" y="1105"/>
      <point x="130" y="1274" type="qcurve"/>
      <point x="122" y="1297"/>
      <point x="110" y="1343"/>
      <point x="110" y="1366" type="qcurve"/>
      <point x="110" y="1392"/>
      <point x="129" y="1438"/>
      <point x="162" y="1471"/>
      <point x="206" y="1490"/>
      <point x="232" y="1490" type="qcurve"/>
      <point x="258" y="1490"/>
      <point x="304" y="1464"/>
      <point x="343" y="1419"/>
      <point x="376" y="1358"/>
      <point x="390" y="1322" type="qcurve"/>
      <point x="459" y="1137"/>
      <point x="548" y="778"/>
      <point x="548" y="600" type="qcurve"/>
      <point x="548" y="503"/>
      <point x="521" y="311"/>
      <point x="471" y="119"/>
      <point x="402" y="-74"/>
    </contour>
  </outline>
</glyph>
<glyph name="asterisk" format="1">
  <advance width="958"/>
  <unicode hex="002A"/>
  <outline>
    <contour>
      <point x="600" y="1183" type="line"/>
      <point x="645" y="1184"/>
      <point x="731" y="1188"/>
      <point x="776" y="1188" type="qcurve"/>
      <point x="805" y="1188"/>
      <point x="848" y="1147"/>
      <point x="848" y="1116" type="qcurve"/>
      <point x="848" y="1086"/>
      <point x="806" y="1045"/>
      <point x="776" y="1045" type="qcurve"/>
      <point x="731" y="1045"/>
      <point x="644" y="1049"/>
      <point x="599" y="1049" type="qcurve"/>
      <point x="666" y="940" type="line"/>
      <point x="678" y="920"/>
      <point x="698" y="878"/>
      <point x="698" y="862" type="qcurve"/>
      <point x="698" y="834"/>
      <point x="656" y="792"/>
      <point x="626" y="792" type="qcurve"/>
      <point x="599" y="792"/>
      <point x="566" y="825"/>
      <point x="553" y="848" type="qcurve"/>
      <point x="477" y="985" type="line"/>
      <point x="403" y="848" type="line"/>
      <point x="391" y="825"/>
      <point x="356" y="792"/>
      <point x="328" y="792" type="qcurve"/>
      <point x="299" y="792"/>
      <point x="257" y="834"/>
      <point x="257" y="863" type="qcurve"/>
      <point x="256" y="877"/>
      <point x="269" y="906"/>
      <point x="278" y="920" type="qcurve"/>
      <point x="357" y="1049" type="line"/>
      <point x="312" y="1048"/>
      <point x="226" y="1045"/>
      <point x="182" y="1045" type="qcurve"/>
      <point x="153" y="1045"/>
      <point x="109" y="1087"/>
      <point x="109" y="1116" type="qcurve"/>
      <point x="109" y="1147"/>
      <point x="151" y="1188"/>
      <point x="182" y="1188" type="qcurve"/>
      <point x="225" y="1188"/>
      <point x="311" y="1183"/>
      <point x="355" y="1183" type="qcurve"/>
      <point x="282" y="1303" type="line"/>
      <point x="272" y="1318"/>
      <point x="254" y="1350"/>
      <point x="254" y="1368" type="qcurve"/>
      <point x="254" y="1396"/>
      <point x="294" y="1441"/>
      <point x="327" y="1441" type="qcurve"/>
      <point x="349" y="1441"/>
      <point x="384" y="1416"/>
      <point x="396" y="1394" type="qcurve"/>
      <point x="477" y="1243" type="line"/>
      <point x="554" y="1384" type="line"/>
      <point x="565" y="1407"/>
      <point x="601" y="1440"/>
      <point x="630" y="1440" type="qcurve"/>
      <point x="659" y="1440"/>
      <point x="699" y="1398"/>
      <point x="699" y="1369" type="qcurve"/>
      <point x="699" y="1355"/>
      <point x="687" y="1325"/>
      <point x="679" y="1313" type="qcurve"/>
    </contour>
  </outline>
</glyph>
<glyph name="plus" format="1">
  <advance width="1287"/>
  <unicode hex="002B"/>
  <outline>
    <contour>
      <point x="746" y="608" type="line"/>
      <point x="1026" y="608" type="line"/>
      <point x="1047" y="608"/>
      <point x="1094" y="599"/>
      <point x="1133" y="577"/>
      <point x="1159" y="537"/>
      <point x="1159" y="507" type="qcurve"/>
      <point x="1159" y="480"/>
      <point x="1137" y="441"/>
      <point x="1100" y="416"/>
      <point x="1052" y="405"/>
      <point x="1026" y="405" type="qcurve"/>
      <point x="746" y="405" type="line"/>
      <point x="746" y="134" type="line"/>
      <point x="746" y="113"/>
      <point x="737" y="66"/>
      <point x="715" y="27"/>
      <point x="674" y="2"/>
      <point x="643" y="2" type="qcurve"/>
      <point x="589" y="2"/>
      <point x="540" y="76"/>
      <point x="540" y="134" type="qcurve"/>
      <point x="540" y="405" type="line"/>
      <point x="261" y="405" type="line"/>
      <point x="239" y="405"/>
      <point x="192" y="414"/>
      <point x="153" y="436"/>
      <point x="128" y="476"/>
      <point x="128" y="507" type="qcurve"/>
      <point x="128" y="533"/>
      <point x="149" y="571"/>
      <point x="185" y="596"/>
      <point x="233" y="608"/>
      <point x="261" y="608" type="qcurve"/>
      <point x="540" y="608" type="line"/>
      <point x="540" y="880" type="line"/>
      <point x="540" y="901"/>
      <point x="548" y="948"/>
      <point x="570" y="987"/>
      <point x="611" y="1013"/>
      <point x="643" y="1013" type="qcurve"/>
      <point x="671" y="1013"/>
      <point x="710" y="991"/>
      <point x="735" y="953"/>
      <point x="746" y="905"/>
      <point x="746" y="880" type="qcurve"/>
    </contour>
  </outline>
</glyph>
<glyph name="comma" format="1">
  <advance width="649"/>
  <unicode hex="002C"/>
  <outline>
    <contour>
      <point x="341" y="-223" type="line"/>
      <point x="68" y="-223" type="line"/>
      <point x="184" y="298" type="line"/>
      <point x="514" y="298" type="line"/>
    </contour>
  </outline>
</glyph>
<glyph name="hyphen" format="1">
  <advance width="709"/>
  <unicode hex="002D"/>
  <outline>
    <contour>
      <point x="166" y="417" type="curve" smooth="yes"/>
      <point x="520" y="417" type="line" smooth="yes"/>
      <point x="594" y="417"/>
      <point x="665" y="452"/>
      <point x="665" y="536" type="curve" smooth="yes"/>
      <point x="665" y="631"/>
      <point x="579" y="656"/>
      <point x="520" y="656" type="curve" smooth="yes"/>
      <point x="189" y="656" type="line" smooth="yes"/>
      <point x="104" y="656"/>
      <point x="44" y="613"/>
      <point x="44" y="536" type="curve" smooth="yes"/>
      <point x="44" y="468"/>
      <point x="101" y="417"/>
    </contour>
  </outline>
</glyph>
<glyph name="period" format="1">
  <advance width="649"/>
  <unicode hex="002E"/>
  <outline>
    <contour>
      <point x="155" y="158" type="qcurve"/>
      <point x="155" y="191"/>
      <point x="180" y="250"/>
      <point x="225" y="295"/>
      <point x="287" y="322"/>
      <point x="324" y="322" type="qcurve"/>
      <point x="357" y="322"/>
      <point x="418" y="298"/>
      <point x="465" y="255"/>
      <point x="493" y="195"/>
      <point x="493" y="158" type="qcurve"/>
      <point x="493" y="125"/>
      <point x="467" y="65"/>
      <point x="422" y="20"/>
      <point x="360" y="-6"/>
      <point x="324" y="-6" type="qcurve"/>
      <point x="289" y="-6"/>
      <point x="228" y="19"/>
      <point x="182" y="63"/>
      <point x="155" y="123"/>
    </contour>
  </outline>
</glyph>
<glyph name="slash" format="1">
  <advance width="669"/>
  <unicode hex="002F"/>
  <outline>
    <contour>
      <point x="199" y="-40" type="qcurve"/>
      <point x="186" y="-78"/>
      <point x="133" y="-108"/>
      <point x="105" y="-108" type="qcurve"/>
      <point x="87" y="-108"/>
      <point x="50" y="-96"/>
      <point x="19" y="-72"/>
      <point x="0" y="-38"/>
      <point x="0" y="-15" type="qcurve"/>
      <point x="0" y="5"/>
      <point x="17" y="56"/>
      <point x="25" y="81" type="qcurve"/>
      <point x="131" y="399"/>
      <point x="343" y="1026"/>
      <point x="449" y="1344" type="qcurve"/>
      <point x="457" y="1369"/>
      <point x="478" y="1414"/>
      <point x="506" y="1449"/>
      <point x="541" y="1469"/>
      <point x="564" y="1469" type="qcurve"/>
      <point x="584" y="1469"/>
      <point x="621" y="1457"/>
      <point x="650" y="1432"/>
      <point x="667" y="1395"/>
      <point x="667" y="1370" type="qcurve"/>
      <point x="667" y="1350"/>
      <point x="652" y="1301"/>
      <point x="644" y="1279" type="qcurve"/>
      <point x="532" y="947"/>
      <point x="311" y="292"/>
    </contour>
  </outline>
</glyph>
<glyph name="zero" format="1">
  <advance width="1299"/>
  <unicode hex="0030"/>
  <outline>
    <contour>
      <point x="649" y="1212" type="qcurve"/>
      <point x="580" y="1212"/>
      <point x="494" y="1139"/>
      <point x="447" y="1006"/>
      <point x="430" y="822"/>
      <point x="430" y="711" type="qcurve"/>
      <point x="430" y="600"/>
      <point x="447" y="416"/>
      <point x="494" y="284"/>
      <point x="580" y="212"/>
      <point x="649" y="212" type="qcurve"/>
      <point x="717" y="212"/>
      <point x="803" y="284"/>
      <point x="851" y="414"/>
      <point x="869" y="598"/>
      <point x="869" y="711" type="qcurve"/>
      <point x="869" y="821"/>
      <point x="852" y="1005"/>
      <point x="804" y="1138"/>
      <point x="718" y="1212"/>
    </contour>
    <contour>
      <point x="649" y="1457" type="qcurve"/>
      <point x="807" y="1457"/>
      <point x="1027" y="1340"/>
      <point x="1164" y="1138"/>
      <point x="1226" y="866"/>
      <point x="1226" y="711" type="qcurve"/>
      <point x="1226" y="609"/>
      <point x="1200" y="420"/>
      <point x="1143" y="254"/>
      <point x="1053" y="117"/>
      <point x="925" y="19"/>
      <point x="756" y="-35"/>
      <point x="649" y="-35" type="qcurve"/>
      <point x="489" y="-35"/>
      <point x="269" y="82"/>
      <point x="132" y="285"/>
      <point x="72" y="556"/>
      <point x="72" y="711" type="qcurve"/>
      <point x="72" y="811"/>
      <point x="97" y="999"/>
      <point x="153" y="1165"/>
      <point x="242" y="1303"/>
      <point x="370" y="1402"/>
      <point x="540" y="1457"/>
    </contour>
  </outline>
</glyph>
<glyph name="one" format="1">
  <advance width="1299"/>
  <unicode hex="0031"/>
  <outline>
    <contour>
      <point x="353" y="999" type="line"/>
      <point x="321" y="982"/>
      <point x="291" y="982" type="qcurve"/>
      <point x="265" y="982"/>
      <point x="221" y="1003"/>
      <point x="189" y="1037"/>
      <point x="171" y="1082"/>
      <point x="171" y="1106" type="qcurve"/>
      <point x="171" y="1142"/>
      <point x="210" y="1194"/>
      <point x="252" y="1220" type="qcurve"/>
      <point x="584" y="1409" type="line"/>
      <point x="613" y="1426"/>
      <point x="677" y="1454"/>
      <point x="712" y="1454" type="qcurve"/>
      <point x="801" y="1454"/>
      <point x="884" y="1327"/>
      <point x="884" y="1208" type="qcurve"/>
      <point x="884" y="241" type="line"/>
      <point x="884" y="192"/>
      <point x="868" y="105"/>
      <point x="827" y="39"/>
      <point x="757" y="1"/>
      <point x="703" y="1" type="qcurve"/>
      <point x="609" y="1"/>
      <point x="525" y="133"/>
      <point x="525" y="264" type="qcurve"/>
      <point x="525" y="1104" type="line"/>
    </contour>
  </outline>
</glyph>
<glyph name="two" format="1">
  <advance width="1299"/>
  <unicode hex="0032"/>
  <outline>
    <contour>
      <point x="601" y="1196" type="qcurve"/>
      <point x="564" y="1196"/>
      <point x="488" y="1183"/>
      <point x="415" y="1163"/>
      <point x="345" y="1137"/>
      <point x="314" y="1125" type="qcurve"/>
      <point x="288" y="1115"/>
      <point x="265" y="1115" type="qcurve"/>
      <point x="239" y="1115"/>
      <point x="196" y="1135"/>
      <point x="165" y="1170"/>
      <point x="147" y="1216"/>
      <point x="147" y="1242" type="qcurve"/>
      <point x="147" y="1278"/>
      <point x="189" y="1346"/>
      <point x="238" y="1367" type="qcurve"/>
      <point x="288" y="1388"/>
      <point x="395" y="1423"/>
      <point x="503" y="1448"/>
      <point x="608" y="1462"/>
      <point x="656" y="1462" type="qcurve"/>
      <point x="764" y="1462"/>
      <point x="946" y="1411"/>
      <point x="1078" y="1314"/>
      <point x="1153" y="1171"/>
      <point x="1153" y="1078" type="qcurve"/>
      <point x="1153" y="973"/>
      <point x="1049" y="755"/>
      <point x="876" y="544"/>
      <point x="652" y="346"/>
      <point x="532" y="259" type="qcurve"/>
      <point x="967" y="259" type="line"/>
      <point x="1006" y="259"/>
      <point x="1077" y="246"/>
      <point x="1131" y="216"/>
      <point x="1164" y="167"/>
      <point x="1164" y="131" type="qcurve"/>
      <point x="1164" y="66"/>
      <point x="1090" y="0"/>
      <point x="1021" y="0" type="qcurve"/>
      <point x="277" y="0" type="line"/>
      <point x="241" y="0"/>
      <point x="177" y="14"/>
      <point x="130" y="47"/>
      <point x="103" y="102"/>
      <point x="103" y="142" type="qcurve"/>
      <point x="103" y="243"/>
      <point x="194" y="320" type="qcurve"/>
      <point x="340" y="444" type="line"/>
      <point x="370" y="470"/>
      <point x="428" y="519"/>
      <point x="449" y="539" type="qcurve"/>
      <point x="489" y="577" type="line"/>
      <point x="561" y="643"/>
      <point x="679" y="772"/>
      <point x="763" y="892"/>
      <point x="809" y="998"/>
      <point x="809" y="1042" type="qcurve"/>
      <point x="809" y="1081"/>
      <point x="775" y="1138"/>
      <point x="718" y="1177"/>
      <point x="642" y="1196"/>
    </contour>
  </outline>
</glyph>
<glyph name="three" format="1">
  <advance width="1299"/>
  <unicode hex="0033"/>
  <outline>
    <contour>
      <point x="566" y="847" type="line"/>
      <point x="617" y="847"/>
      <point x="705" y="869"/>
      <point x="770" y="916"/>
      <point x="808" y="987"/>
      <point x="808" y="1035" type="qcurve"/>
      <point x="808" y="1078"/>
      <point x="772" y="1143"/>
      <point x="710" y="1187"/>
      <point x="627" y="1208"/>
      <point x="581" y="1208" type="qcurve"/>
      <point x="542" y="1208"/>
      <point x="456" y="1197"/>
      <point x="416" y="1189" type="qcurve"/>
      <point x="358" y="1178" type="line"/>
      <point x="335" y="1173"/>
      <point x="310" y="1168"/>
      <point x="297" y="1168" type="qcurve"/>
      <point x="241" y="1168"/>
      <point x="170" y="1234"/>
      <point x="170" y="1285" type="qcurve"/>
      <point x="170" y="1370"/>
      <point x="388" y="1473"/>
      <point x="614" y="1473" type="qcurve"/>
      <point x="744" y="1473"/>
      <point x="946" y="1416"/>
      <point x="1085" y="1312"/>
      <point x="1157" y="1166"/>
      <point x="1157" y="1078" type="qcurve"/>
      <point x="1157" y="1016"/>
      <point x="1116" y="907"/>
      <point x="1047" y="821"/>
      <point x="954" y="763"/>
      <point x="902" y="753" type="qcurve"/>
      <point x="902" y="749" type="line"/>
      <point x="971" y="738"/>
      <point x="1078" y="677"/>
      <point x="1151" y="586"/>
      <point x="1188" y="466"/>
      <point x="1188" y="397" type="qcurve"/>
      <point x="1188" y="288"/>
      <point x="1100" y="130"/>
      <point x="948" y="28"/>
      <point x="743" y="-20"/>
      <point x="625" y="-20" type="qcurve"/>
      <point x="587" y="-20"/>
      <point x="503" y="-11"/>
      <point x="414" y="5"/>
      <point x="326" y="30"/>
      <point x="286" y="45" type="qcurve"/>
      <point x="231" y="65"/>
      <point x="167" y="131"/>
      <point x="167" y="179" type="qcurve"/>
      <point x="167" y="203"/>
      <point x="186" y="247"/>
      <point x="220" y="279"/>
      <point x="270" y="298"/>
      <point x="300" y="298" type="qcurve"/>
      <point x="309" y="298" type="line"/>
      <point x="331" y="292"/>
      <point x="392" y="274"/>
      <point x="465" y="256"/>
      <point x="546" y="243"/>
      <point x="587" y="243" type="qcurve"/>
      <point x="638" y="243"/>
      <point x="725" y="262"/>
      <point x="790" y="304"/>
      <point x="827" y="372"/>
      <point x="827" y="421" type="qcurve"/>
      <point x="827" y="518"/>
      <point x="689" y="624"/>
      <point x="563" y="624" type="qcurve"/>
      <point x="492" y="624" type="line"/>
      <point x="440" y="624"/>
      <point x="384" y="689"/>
      <point x="384" y="734" type="qcurve"/>
      <point x="384" y="755"/>
      <point x="398" y="796"/>
      <point x="425" y="827"/>
      <point x="465" y="847"/>
      <point x="492" y="847" type="qcurve"/>
    </contour>
  </outline>
</glyph>
<glyph name="four" format="1">
  <advance width="1299"/>
  <unicode hex="0034"/>
  <outline>
    <contour>
      <point x="884" y="-8" type="curve" smooth="yes"/>
      <point x="1012" y="-8"/>
      <point x="1049" y="88"/>
      <point x="1052" y="185" type="curve"/>
      <point x="1052" y="305" type="line"/>
      <point x="1099" y="305" type="line" smooth="yes"/>
      <point x="1202" y="305"/>
      <point x="1256" y="347"/>
      <point x="1256" y="428" type="curve" smooth="yes"/>
      <point x="1256" y="521"/>
      <point x="1181" y="551"/>
      <point x="1099" y="551" type="curve" smooth="yes"/>
      <point x="1053" y="551" type="line"/>
      <point x="1053" y="1144" type="line" smooth="yes"/>
      <point x="1053" y="1373"/>
      <point x="980" y="1465"/>
      <point x="809" y="1465" type="curve" smooth="yes"/>
      <point x="678" y="1465"/>
      <point x="580" y="1424"/>
      <point x="505" y="1279" type="curve"/>
      <point x="55" y="524" type="line" smooth="yes"/>
      <point x="36" y="493"/>
      <point x="30" y="463"/>
      <point x="30" y="436" type="curve" smooth="yes"/>
      <point x="30" y="343"/>
      <point x="102" y="305"/>
      <point x="209" y="305" type="curve" smooth="yes"/>
      <point x="713" y="305" type="line"/>
      <point x="713" y="221" type="line"/>
      <point x="716" y="72"/>
      <point x="767" y="-8"/>
    </contour>
    <contour>
      <point x="338" y="551" type="line"/>
      <point x="713" y="1196" type="line"/>
      <point x="713" y="551" type="line"/>
    </contour>
  </outline>
</glyph>
<glyph name="five" format="1">
  <advance width="1299"/>
  <unicode hex="0035"/>
  <outline>
    <contour>
      <point x="160" y="1288" type="line"/>
      <point x="160" y="1340"/>
      <point x="186" y="1404"/>
      <point x="240" y="1440"/>
      <point x="324" y="1453"/>
      <point x="382" y="1453" type="qcurve"/>
      <point x="1025" y="1453" type="line"/>
      <point x="1051" y="1453"/>
      <point x="1097" y="1439"/>
      <point x="1132" y="1410"/>
      <point x="1152" y="1365"/>
      <point x="1152" y="1333" type="qcurve"/>
      <point x="1152" y="1271"/>
      <point x="1076" y="1213"/>
      <point x="1006" y="1213" type="qcurve"/>
      <point x="458" y="1213" type="line"/>
      <point x="448" y="824" type="line"/>
      <point x="578" y="947"/>
      <point x="772" y="947" type="qcurve"/>
      <point x="867" y="947"/>
      <point x="1028" y="879"/>
      <point x="1145" y="752"/>
      <point x="1211" y="571"/>
      <point x="1211" y="457" type="qcurve"/>
      <point x="1211" y="343"/>
      <point x="1120" y="164"/>
      <point x="963" y="40"/>
      <point x="751" y="-26"/>
      <point x="631" y="-26" type="qcurve"/>
      <point x="559" y="-26"/>
      <point x="408" y="0"/>
      <point x="279" y="53"/>
      <point x="185" y="133"/>
      <point x="171" y="188" type="qcurve"/>
      <point x="159" y="213"/>
      <point x="159" y="237" type="qcurve"/>
      <point x="159" y="256"/>
      <point x="173" y="294"/>
      <point x="198" y="322"/>
      <point x="233" y="340"/>
      <point x="254" y="340" type="qcurve"/>
      <point x="273" y="340"/>
      <point x="316" y="316"/>
      <point x="367" y="283"/>
      <point x="424" y="247"/>
      <point x="456" y="236" type="qcurve"/>
      <point x="491" y="223"/>
      <point x="567" y="211"/>
      <point x="606" y="211" type="qcurve"/>
      <point x="659" y="211"/>
      <point x="750" y="242"/>
      <point x="816" y="307"/>
      <point x="854" y="405"/>
      <point x="854" y="472" type="qcurve"/>
      <point x="854" y="535"/>
      <point x="825" y="633"/>
      <point x="771" y="701"/>
      <point x="697" y="736"/>
      <point x="652" y="736" type="qcurve"/>
      <point x="601" y="736"/>
      <point x="532" y="708"/>
      <point x="482" y="666"/>
      <point x="442" y="616"/>
      <point x="397" y="574"/>
      <point x="340" y="546"/>
      <point x="297" y="546" type="qcurve"/>
      <point x="234" y="546"/>
      <point x="160" y="627"/>
      <point x="160" y="712" type="qcurve"/>
    </contour>
  </outline>
</glyph>
<glyph name="six" format="1">
  <advance width="1299"/>
  <unicode hex="0036"/>
  <outline>
    <contour>
      <point x="1069" y="1399" type="qcurve"/>
      <point x="1104" y="1383"/>
      <point x="1137" y="1326"/>
      <point x="1137" y="1294" type="qcurve"/>
      <point x="1137" y="1270"/>
      <point x="1120" y="1223"/>
      <point x="1089" y="1186"/>
      <point x="1046" y="1164"/>
      <point x="1021" y="1164" type="qcurve"/>
      <point x="1012" y="1164"/>
      <point x="1007" y="1165" type="qcurve"/>
      <point x="975" y="1172"/>
      <point x="912" y="1190"/>
      <point x="849" y="1205"/>
      <point x="788" y="1215"/>
      <point x="760" y="1215" type="qcurve"/>
      <point x="665" y="1215"/>
      <point x="534" y="1149"/>
      <point x="454" y="1031"/>
      <point x="419" y="868"/>
      <point x="419" y="770" type="qcurve"/>
      <point x="421" y="768" type="line"/>
      <point x="448" y="813"/>
      <point x="523" y="875"/>
      <point x="612" y="914"/>
      <point x="712" y="931"/>
      <point x="765" y="931" type="qcurve"/>
      <point x="861" y="931"/>
      <point x="1029" y="870"/>
      <point x="1153" y="754"/>
      <point x="1225" y="585"/>
      <point x="1225" y="476" type="qcurve"/>
      <point x="1225" y="365"/>
      <point x="1147" y="180"/>
      <point x="1003" y="48"/>
      <point x="798" y="-25"/>
      <point x="670" y="-25" type="qcurve"/>
      <point x="513" y="-25"/>
      <point x="288" y="76"/>
      <point x="143" y="259"/>
      <point x="74" y="513"/>
      <point x="74" y="666" type="qcurve"/>
      <point x="74" y="777"/>
      <point x="103" y="982"/>
      <point x="166" y="1160"/>
      <point x="269" y="1306"/>
      <point x="417" y="1410"/>
      <point x="614" y="1467"/>
      <point x="741" y="1467" type="qcurve"/>
      <point x="818" y="1467"/>
      <point x="991" y="1434"/>
    </contour>
    <contour>
      <point x="670" y="209" type="qcurve"/>
      <point x="779" y="209"/>
      <point x="896" y="341"/>
      <point x="896" y="466" type="qcurve"/>
      <point x="896" y="524"/>
      <point x="870" y="621"/>
      <point x="817" y="691"/>
      <point x="737" y="729"/>
      <point x="682" y="729" type="qcurve"/>
      <point x="566" y="729"/>
      <point x="445" y="586"/>
      <point x="445" y="462" type="qcurve"/>
      <point x="445" y="403"/>
      <point x="477" y="309"/>
      <point x="536" y="244"/>
      <point x="619" y="209"/>
    </contour>
  </outline>
</glyph>
<glyph name="seven" format="1">
  <advance width="1299"/>
  <unicode hex="0037"/>
  <outline>
    <contour>
      <point x="677" y="102" type="line"/>
      <point x="651" y="50"/>
      <point x="568" y="0"/>
      <point x="521" y="0" type="qcurve"/>
      <point x="487" y="0"/>
      <point x="425" y="23"/>
      <point x="377" y="65"/>
      <point x="348" y="123"/>
      <point x="348" y="157" type="qcurve"/>
      <point x="348" y="194"/>
      <point x="380" y="279"/>
      <point x="400" y="321" type="qcurve"/>
      <point x="803" y="1194" type="line"/>
      <point x="275" y="1194" type="line"/>
      <point x="236" y="1194"/>
      <point x="171" y="1208"/>
      <point x="123" y="1239"/>
      <point x="97" y="1288"/>
      <point x="97" y="1323" type="qcurve"/>
      <point x="97" y="1453"/>
      <point x="276" y="1453" type="qcurve"/>
      <point x="949" y="1453" type="line"/>
      <point x="1000" y="1453"/>
      <point x="1084" y="1442"/>
      <point x="1144" y="1411"/>
      <point x="1177" y="1356"/>
      <point x="1177" y="1312" type="qcurve"/>
      <point x="1177" y="1259"/>
      <point x="1130" y="1125"/>
      <point x="1099" y="1057" type="qcurve"/>
    </contour>
  </outline>
</glyph>
<glyph name="eight" format="1">
  <advance width="1299"/>
  <unicode hex="0038"/>
  <outline>
    <contour>
      <point x="372" y="743" type="line"/>
      <point x="311" y="752"/>
      <point x="211" y="804"/>
      <point x="139" y="885"/>
      <point x="100" y="994"/>
      <point x="100" y="1060" type="qcurve"/>
      <point x="100" y="1154"/>
      <point x="177" y="1305"/>
      <point x="320" y="1411"/>
      <point x="523" y="1467"/>
      <point x="648" y="1467" type="qcurve"/>
      <point x="770" y="1467"/>
      <point x="974" y="1414"/>
      <point x="1120" y="1310"/>
      <point x="1201" y="1159"/>
      <point x="1201" y="1060" type="qcurve"/>
      <point x="1201" y="994"/>
      <point x="1161" y="888"/>
      <point x="1089" y="808"/>
      <point x="987" y="756"/>
      <point x="926" y="743" type="qcurve"/>
      <point x="926" y="741" type="line"/>
      <point x="1070" y="706"/>
      <point x="1227" y="531"/>
      <point x="1227" y="388" type="qcurve"/>
      <point x="1227" y="297"/>
      <point x="1152" y="145"/>
      <point x="1006" y="36"/>
      <point x="789" y="-25"/>
      <point x="648" y="-25" type="qcurve"/>
      <point x="504" y="-25"/>
      <point x="288" y="37"/>
      <point x="144" y="147"/>
      <point x="72" y="298"/>
      <point x="72" y="388" type="qcurve"/>
      <point x="72" y="452"/>
      <point x="109" y="566"/>
      <point x="184" y="658"/>
      <point x="297" y="724"/>
      <point x="372" y="739" type="qcurve"/>
    </contour>
    <contour>
      <point x="439" y="1046" type="qcurve"/>
      <point x="439" y="996"/>
      <point x="470" y="923"/>
      <point x="526" y="876"/>
      <point x="603" y="854"/>
      <point x="650" y="854" type="qcurve"/>
      <point x="697" y="854"/>
      <point x="775" y="876"/>
      <point x="830" y="923"/>
      <point x="861" y="995"/>
      <point x="861" y="1046" type="qcurve"/>
      <point x="861" y="1098"/>
      <point x="826" y="1171"/>
      <point x="768" y="1217"/>
      <point x="692" y="1239"/>
      <point x="650" y="1239" type="qcurve"/>
      <point x="608" y="1239"/>
      <point x="532" y="1217"/>
      <point x="473" y="1171"/>
      <point x="439" y="1097"/>
    </contour>
    <contour>
      <point x="423" y="420" type="qcurve"/>
      <point x="423" y="364"/>
      <point x="458" y="285"/>
      <point x="520" y="233"/>
      <point x="602" y="209"/>
      <point x="650" y="209" type="qcurve"/>
      <point x="692" y="209"/>
      <point x="773" y="231"/>
      <point x="837" y="281"/>
      <point x="876" y="361"/>
      <point x="876" y="420" type="qcurve"/>
      <point x="876" y="473"/>
      <point x="841" y="553"/>
      <point x="781" y="606"/>
      <point x="698" y="632"/>
      <point x="650" y="632" type="qcurve"/>
      <point x="604" y="632"/>
      <point x="522" y="608"/>
      <point x="460" y="557"/>
      <point x="423" y="476"/>
    </contour>
  </outline>
</glyph>
<glyph name="nine" format="1">
  <advance width="1299"/>
  <unicode hex="0039"/>
  <outline>
    <contour>
      <point x="229" y="36" type="qcurve"/>
      <point x="194" y="50"/>
      <point x="161" y="106"/>
      <point x="161" y="141" type="qcurve"/>
      <point x="161" y="193"/>
      <point x="229" y="262"/>
      <point x="286" y="262" type="qcurve"/>
      <point x="316" y="262"/>
      <point x="381" y="250"/>
      <point x="448" y="235"/>
      <point x="516" y="223"/>
      <point x="548" y="223" type="qcurve"/>
      <point x="638" y="223"/>
      <point x="765" y="288"/>
      <point x="844" y="409"/>
      <point x="880" y="573"/>
      <point x="880" y="683" type="qcurve"/>
      <point x="880" y="684"/>
      <point x="878" y="684"/>
      <point x="878" y="685" type="qcurve"/>
      <point x="848" y="637"/>
      <point x="767" y="573"/>
      <point x="672" y="536"/>
      <point x="568" y="521"/>
      <point x="514" y="521" type="qcurve"/>
      <point x="422" y="525"/>
      <point x="261" y="587"/>
      <point x="142" y="701"/>
      <point x="74" y="868"/>
      <point x="74" y="977" type="qcurve"/>
      <point x="74" y="1085"/>
      <point x="149" y="1269"/>
      <point x="291" y="1403"/>
      <point x="497" y="1478"/>
      <point x="628" y="1478" type="qcurve"/>
      <point x="785" y="1478"/>
      <point x="1011" y="1375"/>
      <point x="1157" y="1192"/>
      <point x="1225" y="938"/>
      <point x="1225" y="787" type="qcurve"/>
      <point x="1225" y="672"/>
      <point x="1196" y="469"/>
      <point x="1131" y="285"/>
      <point x="1027" y="134"/>
      <point x="879" y="26"/>
      <point x="683" y="-33"/>
      <point x="558" y="-33" type="qcurve"/>
      <point x="478" y="-33"/>
      <point x="303" y="1"/>
    </contour>
    <contour>
      <point x="629" y="1245" type="qcurve"/>
      <point x="520" y="1245"/>
      <point x="403" y="1112"/>
      <point x="403" y="987" type="qcurve"/>
      <point x="403" y="928"/>
      <point x="429" y="831"/>
      <point x="481" y="762"/>
      <point x="562" y="724"/>
      <point x="616" y="724" type="qcurve"/>
      <point x="731" y="724"/>
      <point x="854" y="864"/>
      <point x="854" y="991" type="qcurve"/>
      <point x="854" y="1049"/>
      <point x="821" y="1143"/>
      <point x="761" y="1209"/>
      <point x="678" y="1245"/>
    </contour>
  </outline>
</glyph>
<glyph name="colon" format="1">
  <advance width="649"/>
  <unicode hex="003A"/>
  <outline>
    <contour>
      <point x="155" y="889" type="qcurve"/>
      <point x="155" y="922"/>
      <point x="180" y="981"/>
      <point x="225" y="1026"/>
      <point x="287" y="1053"/>
      <point x="324" y="1053" type="qcurve"/>
      <point x="357" y="1053"/>
      <point x="419" y="1029"/>
      <point x="465" y="985"/>
      <point x="493" y="925"/>
      <point x="493" y="889" type="qcurve"/>
      <point x="493" y="856"/>
      <point x="468" y="797"/>
      <point x="423" y="752"/>
      <point x="361" y="726"/>
      <point x="324" y="726" type="qcurve"/>
      <point x="290" y="726"/>
      <point x="229" y="749"/>
      <point x="182" y="792"/>
      <point x="155" y="852"/>
    </contour>
    <contour>
      <point x="155" y="158" type="qcurve"/>
      <point x="155" y="191"/>
      <point x="180" y="250"/>
      <point x="225" y="295"/>
      <point x="287" y="322"/>
      <point x="324" y="322" type="qcurve"/>
      <point x="357" y="322"/>
      <point x="418" y="298"/>
      <point x="465" y="255"/>
      <point x="493" y="195"/>
      <point x="493" y="158" type="qcurve"/>
      <point x="493" y="125"/>
      <point x="467" y="65"/>
      <point x="422" y="20"/>
      <point x="360" y="-6"/>
      <point x="324" y="-6" type="qcurve"/>
      <point x="289" y="-6"/>
      <point x="228" y="19"/>
      <point x="182" y="63"/>
      <point x="155" y="123"/>
    </contour>
  </outline>
</glyph>
<glyph name="semicolon" format="1">
  <advance width="649"/>
  <unicode hex="003B"/>
  <outline>
    <contour>
      <point x="191" y="901" type="qcurve"/>
      <point x="191" y="933"/>
      <point x="216" y="992"/>
      <point x="261" y="1037"/>
      <point x="324" y="1064"/>
      <point x="361" y="1064" type="qcurve"/>
      <point x="394" y="1064"/>
      <point x="456" y="1040"/>
      <point x="502" y="996"/>
      <point x="530" y="937"/>
      <point x="530" y="901" type="qcurve"/>
      <point x="530" y="867"/>
      <point x="505" y="807"/>
      <point x="460" y="762"/>
      <point x="398" y="736"/>
      <point x="361" y="736" type="qcurve"/>
      <point x="327" y="736"/>
      <point x="266" y="760"/>
      <point x="219" y="803"/>
      <point x="191" y="864"/>
    </contour>
    <contour>
      <point x="359" y="-223" type="line"/>
      <point x="86" y="-223" type="line"/>
      <point x="202" y="298" type="line"/>
      <point x="532" y="298" type="line"/>
    </contour>
  </outline>
</glyph>
<glyph name="less" format="1">
  <advance width="1287"/>
  <unicode hex="003C"/>
  <outline>
    <contour>
      <point x="186" y="391" type="line" smooth="yes"/>
      <point x="130" y="414"/>
      <point x="100" y="458"/>
      <point x="100" y="506" type="curve" smooth="yes"/>
      <point x="100" y="563"/>
      <point x="136" y="600"/>
      <point x="212" y="633" type="curve"/>
      <point x="978" y="948" type="line" smooth="yes"/>
      <point x="1005" y="959"/>
      <point x="1038" y="973"/>
      <point x="1061" y="973" type="curve" smooth="yes"/>
      <point x="1117" y="973"/>
      <point x="1158" y="927"/>
      <point x="1158" y="878" type="curve" smooth="yes"/>
      <point x="1158" y="825"/>
      <point x="1109" y="800"/>
      <point x="1050" y="776" type="curve" smooth="yes"/>
      <point x="383" y="506" type="line"/>
      <point x="607" y="413"/>
      <point x="828" y="319"/>
      <point x="1052" y="226" type="curve" smooth="yes"/>
      <point x="1111" y="202"/>
      <point x="1158" y="173"/>
      <point x="1158" y="123" type="curve" smooth="yes"/>
      <point x="1158" y="72"/>
      <point x="1119" y="29"/>
      <point x="1066" y="29" type="curve" smooth="yes"/>
      <point x="1042" y="29"/>
      <point x="1008" y="42"/>
      <point x="981" y="55" type="curve"/>
    </contour>
  </outline>
</glyph>
<glyph name="equal" format="1">
  <advance width="1287"/>
  <unicode hex="003D"/>
  <outline>
    <contour>
      <point x="231" y="184" type="line"/>
      <point x="211" y="184"/>
      <point x="174" y="198"/>
      <point x="145" y="225"/>
      <point x="128" y="261"/>
      <point x="128" y="284" type="qcurve"/>
      <point x="128" y="313"/>
      <point x="152" y="353"/>
      <point x="191" y="377"/>
      <point x="242" y="387"/>
      <point x="269" y="387" type="qcurve"/>
      <point x="1036" y="387" type="line"/>
      <point x="1055" y="387"/>
      <point x="1098" y="378"/>
      <point x="1134" y="354"/>
      <point x="1158" y="314"/>
      <point x="1158" y="284" type="qcurve"/>
      <point x="1158" y="254"/>
      <point x="1134" y="216"/>
      <point x="1094" y="193"/>
      <point x="1043" y="184"/>
      <point x="1017" y="184" type="qcurve"/>
    </contour>
    <contour>
      <point x="231" y="627" type="line"/>
      <point x="210" y="627"/>
      <point x="173" y="642"/>
      <point x="145" y="669"/>
      <point x="128" y="706"/>
      <point x="128" y="728" type="qcurve"/>
      <point x="128" y="757"/>
      <point x="152" y="797"/>
      <point x="192" y="821"/>
      <point x="243" y="831"/>
      <point x="271" y="831" type="qcurve"/>
      <point x="1016" y="831" type="line"/>
      <point x="1040" y="831"/>
      <point x="1090" y="823"/>
      <point x="1132" y="800"/>
      <point x="1158" y="760"/>
      <point x="1158" y="728" type="qcurve"/>
      <point x="1158" y="699"/>
      <point x="1134" y="660"/>
      <point x="1094" y="637"/>
      <point x="1043" y="627"/>
      <point x="1016" y="627" type="qcurve"/>
    </contour>
  </outline>
</glyph>
<glyph name="greater" format="1">
  <advance width="1287"/>
  <unicode hex="003E"/>
  <outline>
    <contour>
      <point x="1093" y="621" type="line" smooth="yes"/>
      <point x="1149" y="597"/>
      <point x="1178" y="551"/>
      <point x="1178" y="506" type="curve" smooth="yes"/>
      <point x="1178" y="446"/>
      <point x="1142" y="409"/>
      <point x="1066" y="378" type="curve" smooth="yes"/>
      <point x="275" y="53" type="line" smooth="yes"/>
      <point x="253" y="44"/>
      <point x="232" y="37"/>
      <point x="212" y="37" type="curve" smooth="yes"/>
      <point x="159" y="37"/>
      <point x="122" y="84"/>
      <point x="122" y="132" type="curve" smooth="yes"/>
      <point x="122" y="167"/>
      <point x="137" y="197"/>
      <point x="180" y="215" type="curve" smooth="yes"/>
      <point x="895" y="506" type="line"/>
      <point x="655" y="606"/>
      <point x="417" y="702"/>
      <point x="178" y="806" type="curve" smooth="yes"/>
      <point x="138" y="823"/>
      <point x="121" y="854"/>
      <point x="121" y="887" type="curve" smooth="yes"/>
      <point x="121" y="932"/>
      <point x="154" y="982"/>
      <point x="211" y="982" type="curve" smooth="yes"/>
      <point x="238" y="982"/>
      <point x="271" y="967"/>
      <point x="299" y="955" type="curve" smooth="yes"/>
    </contour>
  </outline>
</glyph>
<glyph name="question" format="1">
  <advance width="1064"/>
  <unicode hex="003F"/>
  <outline>
    <contour>
      <point x="325" y="1234" type="qcurve"/>
      <point x="307" y="1233"/>
      <point x="241" y="1228"/>
      <point x="206" y="1223" type="qcurve"/>
      <point x="201" y="1222"/>
      <point x="191" y="1222"/>
      <point x="186" y="1222" type="qcurve"/>
      <point x="135" y="1222"/>
      <point x="69" y="1292"/>
      <point x="69" y="1350" type="qcurve"/>
      <point x="69" y="1387"/>
      <point x="118" y="1456"/>
      <point x="171" y="1472" type="qcurve"/>
      <point x="249" y="1495"/>
      <point x="414" y="1514"/>
      <point x="490" y="1514" type="qcurve"/>
      <point x="587" y="1514"/>
      <point x="762" y="1468"/>
      <point x="892" y="1370"/>
      <point x="969" y="1218"/>
      <point x="969" y="1112" type="qcurve"/>
      <point x="967" y="1042"/>
      <point x="918" y="930"/>
      <point x="845" y="836"/>
      <point x="755" y="756"/>
      <point x="711" y="718" type="qcurve"/>
      <point x="680" y="691"/>
      <point x="630" y="649"/>
      <point x="596" y="610"/>
      <point x="576" y="570"/>
      <point x="575" y="545" type="qcurve"/>
      <point x="575" y="518"/>
      <point x="560" y="460"/>
      <point x="523" y="410"/>
      <point x="461" y="378"/>
      <point x="415" y="378" type="qcurve"/>
      <point x="352" y="383"/>
      <point x="282" y="455"/>
      <point x="282" y="537" type="qcurve"/>
      <point x="282" y="586" type="line"/>
      <point x="285" y="647"/>
      <point x="342" y="744"/>
      <point x="419" y="825"/>
      <point x="502" y="894"/>
      <point x="530" y="929" type="qcurve"/>
      <point x="558" y="964"/>
      <point x="596" y="1042"/>
      <point x="596" y="1084" type="qcurve"/>
      <point x="596" y="1127"/>
      <point x="565" y="1187"/>
      <point x="514" y="1225"/>
      <point x="448" y="1241"/>
      <point x="412" y="1241" type="qcurve"/>
      <point x="392" y="1241"/>
      <point x="348" y="1237"/>
    </contour>
    <contour>
      <point x="260" y="107" type="qcurve"/>
      <point x="260" y="139"/>
      <point x="284" y="198"/>
      <point x="329" y="243"/>
      <point x="391" y="270"/>
      <point x="429" y="270" type="qcurve"/>
      <point x="462" y="270"/>
      <point x="523" y="246"/>
      <point x="570" y="203"/>
      <point x="598" y="143"/>
      <point x="598" y="107" type="qcurve"/>
      <point x="598" y="73"/>
      <point x="572" y="13"/>
      <point x="527" y="-32"/>
      <point x="465" y="-58"/>
      <point x="429" y="-58" type="qcurve"/>
      <point x="393" y="-58"/>
      <point x="331" y="-32"/>
      <point x="286" y="13"/>
      <point x="260" y="73"/>
    </contour>
  </outline>
</glyph>
<glyph name="at" format="1">
  <advance width="1638"/>
  <unicode hex="0040"/>
  <outline>
    <contour>
      <point x="590" y="645" type="qcurve"/>
      <point x="590" y="609"/>
      <point x="611" y="545"/>
      <point x="651" y="497"/>
      <point x="708" y="470"/>
      <point x="743" y="470" type="qcurve"/>
      <point x="781" y="470"/>
      <point x="852" y="490"/>
      <point x="912" y="526"/>
      <point x="955" y="575"/>
      <point x="964" y="604" type="qcurve"/>
      <point x="1023" y="820" type="line"/>
      <point x="1025" y="828"/>
      <point x="1027" y="842"/>
      <point x="1027" y="849" type="qcurve"/>
      <point x="1027" y="875"/>
      <point x="1000" y="922"/>
      <point x="955" y="958"/>
      <point x="896" y="980"/>
      <point x="864" y="980" type="qcurve"/>
      <point x="805" y="980"/>
      <point x="704" y="918"/>
      <point x="631" y="820"/>
      <point x="590" y="702"/>
    </contour>
    <contour>
      <point x="918" y="132" type="qcurve"/>
      <point x="1003" y="134"/>
      <point x="1084" y="157" type="qcurve"/>
      <point x="1088" y="158"/>
      <point x="1096" y="158" type="qcurve"/>
      <point x="1134" y="158"/>
      <point x="1176" y="113"/>
      <point x="1176" y="84" type="qcurve"/>
      <point x="1176" y="52"/>
      <point x="1138" y="19"/>
      <point x="1100" y="9" type="qcurve"/>
      <point x="1025" y="-10"/>
      <point x="882" y="-30"/>
      <point x="811" y="-30" type="qcurve"/>
      <point x="650" y="-30"/>
      <point x="369" y="69"/>
      <point x="160" y="261"/>
      <point x="40" y="541"/>
      <point x="40" y="721" type="qcurve"/>
      <point x="40" y="843"/>
      <point x="105" y="1055"/>
      <point x="222" y="1230"/>
      <point x="382" y="1367"/>
      <point x="572" y="1460"/>
      <point x="785" y="1509"/>
      <point x="895" y="1509" type="qcurve"/>
      <point x="1021" y="1509"/>
      <point x="1264" y="1436"/>
      <point x="1455" y="1283"/>
      <point x="1572" y="1046"/>
      <point x="1572" y="883" type="qcurve"/>
      <point x="1572" y="798"/>
      <point x="1531" y="647"/>
      <point x="1462" y="520"/>
      <point x="1371" y="420"/>
      <point x="1271" y="349"/>
      <point x="1167" y="312"/>
      <point x="1120" y="312" type="qcurve"/>
      <point x="1069" y="312"/>
      <point x="979" y="358"/>
      <point x="960" y="409" type="qcurve"/>
      <point x="910" y="354"/>
      <point x="772" y="298"/>
      <point x="694" y="298" type="qcurve"/>
      <point x="620" y="298"/>
      <point x="503" y="352"/>
      <point x="420" y="446"/>
      <point x="376" y="573"/>
      <point x="376" y="646" type="qcurve"/>
      <point x="376" y="710"/>
      <point x="407" y="838"/>
      <point x="464" y="955"/>
      <point x="547" y="1056"/>
      <point x="650" y="1130"/>
      <point x="772" y="1173"/>
      <point x="841" y="1173" type="qcurve"/>
      <point x="916" y="1173"/>
      <point x="1042" y="1112"/>
      <point x="1081" y="1046" type="qcurve"/>
      <point x="1089" y="1072" type="line"/>
      <point x="1099" y="1104"/>
      <point x="1145" y="1135"/>
      <point x="1174" y="1135" type="qcurve"/>
      <point x="1203" y="1135"/>
      <point x="1251" y="1098"/>
      <point x="1251" y="1062" type="qcurve"/>
      <point x="1251" y="1046"/>
      <point x="1240" y="1013"/>
      <point x="1236" y="999" type="qcurve"/>
      <point x="1153" y="677" type="line"/>
      <point x="1137" y="622"/>
      <point x="1114" y="525"/>
      <point x="1114" y="498" type="qcurve"/>
      <point x="1114" y="473"/>
      <point x="1131" y="445"/>
      <point x="1155" y="445" type="qcurve"/>
      <point x="1200" y="445"/>
      <point x="1288" y="511"/>
      <point x="1357" y="623"/>
      <point x="1399" y="771"/>
      <point x="1399" y="853" type="qcurve"/>
      <point x="1399" y="981"/>
      <point x="1318" y="1172"/>
      <point x="1180" y="1299"/>
      <point x="997" y="1362"/>
      <point x="895" y="1362" type="qcurve"/>
      <point x="810" y="1362"/>
      <point x="645" y="1321"/>
      <point x="495" y="1244"/>
      <point x="367" y="1131"/>
      <point x="273" y="986"/>
      <point x="220" y="813"/>
      <point x="220" y="713" type="qcurve"/>
      <point x="220" y="571"/>
      <point x="309" y="356"/>
      <point x="462" y="209"/>
      <point x="666" y="128"/>
      <point x="782" y="121" type="qcurve"/>
      <point x="796" y="121" type="line"/>
      <point x="854" y="121"/>
    </contour>
  </outline>
</glyph>
<glyph name="A" format="1">
  <advance width="1505"/>
  <unicode hex="0041"/>
  <outline>
    <contour>
      <point x="741" y="1179" type="line"/>
      <point x="521" y="536" type="line"/>
      <point x="965" y="536" type="line"/>
      <point x="746" y="1179" type="line"/>
    </contour>
    <contour>
      <point x="1393" y="303" type="line"/>
      <point x="1400" y="285"/>
      <point x="1416" y="246"/>
      <point x="1430" y="206"/>
      <point x="1439" y="169"/>
      <point x="1439" y="154" type="qcurve"/>
      <point x="1439" y="117"/>
      <point x="1412" y="60"/>
      <point x="1366" y="21"/>
      <point x="1305" y="0"/>
      <point x="1271" y="0" type="qcurve"/>
      <point x="1232" y="0"/>
      <point x="1176" y="22"/>
      <point x="1132" y="70"/>
      <point x="1095" y="147"/>
      <point x="1074" y="203" type="qcurve"/>
      <point x="1026" y="330" type="line"/>
      <point x="460" y="330" type="line"/>
      <point x="419" y="203" type="line"/>
      <point x="401" y="146"/>
      <point x="364" y="68"/>
      <point x="319" y="21"/>
      <point x="261" y="0"/>
      <point x="222" y="0" type="qcurve"/>
      <point x="188" y="0"/>
      <point x="127" y="21"/>
      <point x="81" y="60"/>
      <point x="54" y="117"/>
      <point x="54" y="154" type="qcurve"/>
      <point x="54" y="169"/>
      <point x="63" y="206"/>
      <point x="77" y="246"/>
      <point x="93" y="285"/>
      <point x="100" y="303" type="qcurve"/>
      <point x="369" y="1030" type="line"/>
      <point x="407" y="1132"/>
      <point x="476" y="1289"/>
      <point x="559" y="1397"/>
      <point x="667" y="1452"/>
      <point x="744" y="1452" type="qcurve"/>
      <point x="816" y="1452"/>
      <point x="918" y="1409"/>
      <point x="1000" y="1310"/>
      <point x="1074" y="1148"/>
      <point x="1119" y="1030" type="qcurve"/>
    </contour>
  </outline>
</glyph>
<glyph name="B" format="1">
  <advance width="1464"/>
  <unicode hex="0042"/>
  <outline>
    <contour>
      <point x="152" y="1276" type="line"/>
      <point x="152" y="1323"/>
      <point x="190" y="1390"/>
      <point x="253" y="1432"/>
      <point x="337" y="1452"/>
      <point x="384" y="1452" type="qcurve"/>
      <point x="694" y="1452" type="line"/>
      <point x="762" y="1452"/>
      <point x="906" y="1447"/>
      <point x="1044" y="1424"/>
      <point x="1166" y="1379"/>
      <point x="1258" y="1298"/>
      <point x="1312" y="1175"/>
      <point x="1312" y="1087" type="qcurve"/>
      <point x="1312" y="1028"/>
      <point x="1272" y="919"/>
      <point x="1198" y="831"/>
      <point x="1096" y="770"/>
      <point x="1034" y="759" type="qcurve"/>
      <point x="1034" y="755" type="line"/>
      <point x="1109" y="744"/>
      <point x="1230" y="683"/>
      <point x="1314" y="591"/>
      <point x="1360" y="471"/>
      <point x="1360" y="402" type="qcurve"/>
      <point x="1360" y="326"/>
      <point x="1300" y="181"/>
      <point x="1176" y="69"/>
      <point x="985" y="0"/>
      <point x="854" y="0" type="qcurve"/>
      <point x="384" y="0" type="line"/>
      <point x="327" y="0"/>
      <point x="241" y="18"/>
      <point x="182" y="73"/>
      <point x="152" y="174"/>
      <point x="152" y="257" type="qcurve"/>
    </contour>
    <contour>
      <point x="505" y="224" type="line"/>
      <point x="671" y="224" type="line"/>
      <point x="751" y="224"/>
      <point x="873" y="240"/>
      <point x="955" y="288"/>
      <point x="997" y="373"/>
      <point x="997" y="441" type="qcurve"/>
      <point x="997" y="504"/>
      <point x="949" y="584"/>
      <point x="861" y="631"/>
      <point x="737" y="649"/>
      <point x="661" y="649" type="qcurve"/>
      <point x="505" y="649" type="line"/>
    </contour>
    <contour>
      <point x="505" y="1228" type="line"/>
      <point x="505" y="831" type="line"/>
      <point x="648" y="831" type="line"/>
      <point x="714" y="831"/>
      <point x="827" y="849"/>
      <point x="908" y="895"/>
      <point x="954" y="974"/>
      <point x="954" y="1035" type="qcurve"/>
      <point x="954" y="1096"/>
      <point x="909" y="1171"/>
      <point x="831" y="1213"/>
      <point x="727" y="1228"/>
      <point x="669" y="1228" type="qcurve"/>
    </contour>
  </outline>
</glyph>
<glyph name="C" format="1">
  <advance width="1464"/>
  <unicode hex="0043"/>
  <outline>
    <contour>
      <point x="86" y="714" type="qcurve"/>
      <point x="86" y="896"/>
      <point x="193" y="1183"/>
      <point x="385" y="1381"/>
      <point x="650" y="1486"/>
      <point x="808" y="1486" type="qcurve"/>
      <point x="933" y="1486"/>
      <point x="1118" y="1455"/>
      <point x="1240" y="1401"/>
      <point x="1300" y="1327"/>
      <point x="1300" y="1284" type="qcurve"/>
      <point x="1300" y="1255"/>
      <point x="1276" y="1212"/>
      <point x="1237" y="1184"/>
      <point x="1189" y="1171"/>
      <point x="1165" y="1171" type="qcurve"/>
      <point x="1151" y="1171"/>
      <point x="1123" y="1172"/>
      <point x="1110" y="1176" type="qcurve"/>
      <point x="1072" y="1186"/>
      <point x="1003" y="1205"/>
      <point x="936" y="1219"/>
      <point x="869" y="1228"/>
      <point x="833" y="1228" type="qcurve"/>
      <point x="758" y="1228"/>
      <point x="625" y="1183"/>
      <point x="527" y="1069"/>
      <point x="470" y="874"/>
      <point x="470" y="723" type="qcurve"/>
      <point x="470" y="607"/>
      <point x="516" y="422"/>
      <point x="607" y="293"/>
      <point x="744" y="224"/>
      <point x="835" y="224" type="qcurve"/>
      <point x="872" y="224"/>
      <point x="952" y="240"/>
      <point x="1036" y="265"/>
      <point x="1123" y="297"/>
      <point x="1166" y="313" type="qcurve"/>
      <point x="1179" y="317"/>
      <point x="1198" y="317" type="qcurve"/>
      <point x="1223" y="317"/>
      <point x="1264" y="298"/>
      <point x="1294" y="266"/>
      <point x="1310" y="223"/>
      <point x="1310" y="199" type="qcurve"/>
      <point x="1310" y="160"/>
      <point x="1259" y="95"/>
      <point x="1175" y="43"/>
      <point x="1066" y="4"/>
      <point x="950" y="-22"/>
      <point x="835" y="-35"/>
      <point x="786" y="-35" type="qcurve"/>
      <point x="638" y="-35"/>
      <point x="382" y="64"/>
      <point x="194" y="255"/>
      <point x="86" y="534"/>
    </contour>
  </outline>
</glyph>
<glyph name="D" format="1">
  <advance width="1558"/>
  <unicode hex="0044"/>
  <outline>
    <contour>
      <point x="326" y="0" type="curve" smooth="yes"/>
      <point x="674" y="0" type="line" smooth="yes"/>
      <point x="1152" y="0"/>
      <point x="1470" y="227"/>
      <point x="1470" y="716" type="curve" smooth="yes"/>
      <point x="1470" y="1216"/>
      <point x="1190" y="1452"/>
      <point x="645" y="1452" type="curve" smooth="yes"/>
      <point x="397" y="1452" type="line" smooth="yes"/>
      <point x="208" y="1452"/>
      <point x="143" y="1375"/>
      <point x="143" y="1195" type="curve" smooth="yes"/>
      <point x="143" y="255" type="line" smooth="yes"/>
      <point x="143" y="128"/>
      <point x="181" y="0"/>
    </contour>
    <contour>
      <point x="509" y="224" type="line"/>
      <point x="509" y="1226" type="line"/>
      <point x="655" y="1226" type="line" smooth="yes"/>
      <point x="944" y="1226"/>
      <point x="1082" y="1062"/>
      <point x="1082" y="725" type="curve" smooth="yes"/>
      <point x="1082" y="364"/>
      <point x="949" y="224"/>
      <point x="646" y="224" type="curve" smooth="yes"/>
    </contour>
  </outline>
</glyph>
<glyph name="E" format="1">
  <advance width="1272"/>
  <unicode hex="0045"/>
  <outline>
    <contour>
      <point x="334" y="0" type="line"/>
      <point x="283" y="0"/>
      <point x="214" y="42"/>
      <point x="172" y="109"/>
      <point x="154" y="193"/>
      <point x="154" y="235" type="qcurve"/>
      <point x="154" y="1188" type="line"/>
      <point x="154" y="1245"/>
      <point x="168" y="1342"/>
      <point x="216" y="1412"/>
      <point x="308" y="1452"/>
      <point x="386" y="1452" type="qcurve"/>
      <point x="1028" y="1452" type="line"/>
      <point x="1057" y="1452"/>
      <point x="1108" y="1431"/>
      <point x="1146" y="1396"/>
      <point x="1168" y="1348"/>
      <point x="1168" y="1321" type="qcurve"/>
      <point x="1168" y="1294"/>
      <point x="1146" y="1247"/>
      <point x="1108" y="1212"/>
      <point x="1057" y="1192"/>
      <point x="1028" y="1192" type="qcurve"/>
      <point x="513" y="1192" type="line"/>
      <point x="513" y="868" type="line"/>
      <point x="983" y="868" type="line"/>
      <point x="1012" y="868"/>
      <point x="1063" y="848"/>
      <point x="1101" y="812"/>
      <point x="1123" y="765"/>
      <point x="1123" y="738" type="qcurve"/>
      <point x="1123" y="711"/>
      <point x="1101" y="664"/>
      <point x="1063" y="629"/>
      <point x="1012" y="609"/>
      <point x="983" y="609" type="qcurve"/>
      <point x="513" y="609" type="line"/>
      <point x="513" y="259" type="line"/>
      <point x="1053" y="259" type="line"/>
      <point x="1080" y="259"/>
      <point x="1127" y="239"/>
      <point x="1163" y="203"/>
      <point x="1183" y="156"/>
      <point x="1183" y="129" type="qcurve"/>
      <point x="1183" y="102"/>
      <point x="1163" y="55"/>
      <point x="1127" y="20"/>
      <point x="1080" y="0"/>
      <point x="1053" y="0" type="qcurve"/>
    </contour>
  </outline>
</glyph>
<glyph name="F" format="1">
  <advance width="1197"/>
  <unicode hex="0046"/>
  <outline>
    <contour>
      <point x="332" y="0" type="curve" smooth="yes"/>
      <point x="435" y="0"/>
      <point x="518" y="86"/>
      <point x="518" y="195" type="curve" smooth="yes"/>
      <point x="519" y="613" type="line"/>
      <point x="971" y="613" type="line" smooth="yes"/>
      <point x="1043" y="613"/>
      <point x="1101" y="670"/>
      <point x="1101" y="742" type="curve" smooth="yes"/>
      <point x="1101" y="814"/>
      <point x="1043" y="872"/>
      <point x="971" y="872" type="curve" smooth="yes"/>
      <point x="519" y="872" type="line"/>
      <point x="519" y="1192" type="line"/>
      <point x="1002" y="1192" type="line" smooth="yes"/>
      <point x="1074" y="1192"/>
      <point x="1132" y="1249"/>
      <point x="1132" y="1321" type="curve" smooth="yes"/>
      <point x="1132" y="1393"/>
      <point x="1074" y="1452"/>
      <point x="1002" y="1452" type="curve" smooth="yes"/>
      <point x="382" y="1452" type="line" smooth="yes"/>
      <point x="256" y="1452"/>
      <point x="147" y="1395"/>
      <point x="147" y="1267" type="curve" smooth="yes"/>
      <point x="147" y="195" type="line" smooth="yes"/>
      <point x="147" y="86"/>
      <point x="229" y="0"/>
    </contour>
  </outline>
</glyph>
<glyph name="G" format="1">
  <advance width="1578"/>
  <unicode hex="0047"/>
  <outline>
    <contour>
      <point x="1322" y="782" type="qcurve"/>
      <point x="1361" y="782"/>
      <point x="1410" y="761"/>
      <point x="1436" y="718"/>
      <point x="1445" y="654"/>
      <point x="1445" y="612" type="qcurve"/>
      <point x="1445" y="314" type="line"/>
      <point x="1445" y="236"/>
      <point x="1424" y="129"/>
      <point x="1366" y="57"/>
      <point x="1261" y="14"/>
      <point x="1177" y="1" type="qcurve"/>
      <point x="1141" y="-5"/>
      <point x="1059" y="-18"/>
      <point x="974" y="-28"/>
      <point x="891" y="-35"/>
      <point x="855" y="-35" type="qcurve"/>
      <point x="679" y="-35"/>
      <point x="396" y="56"/>
      <point x="196" y="243"/>
      <point x="89" y="530"/>
      <point x="89" y="725" type="qcurve"/>
      <point x="89" y="882"/>
      <point x="180" y="1159"/>
      <point x="367" y="1366"/>
      <point x="655" y="1486"/>
      <point x="852" y="1486" type="qcurve"/>
      <point x="916" y="1486"/>
      <point x="1042" y="1473"/>
      <point x="1159" y="1451"/>
      <point x="1266" y="1419"/>
      <point x="1311" y="1400" type="qcurve"/>
      <point x="1356" y="1381"/>
      <point x="1400" y="1316"/>
      <point x="1400" y="1278" type="qcurve"/>
      <point x="1400" y="1216"/>
      <point x="1324" y="1152"/>
      <point x="1268" y="1152" type="qcurve"/>
      <point x="1240" y="1152"/>
      <point x="1148" y="1175"/>
      <point x="1043" y="1204"/>
      <point x="934" y="1227"/>
      <point x="889" y="1227" type="qcurve"/>
      <point x="779" y="1227"/>
      <point x="622" y="1156"/>
      <point x="522" y="1022"/>
      <point x="476" y="830"/>
      <point x="476" y="710" type="qcurve"/>
      <point x="476" y="577"/>
      <point x="517" y="392"/>
      <point x="607" y="276"/>
      <point x="748" y="224"/>
      <point x="847" y="224" type="qcurve"/>
      <point x="907" y="224"/>
      <point x="1028" y="231"/>
      <point x="1085" y="245" type="qcurve"/>
      <point x="1085" y="572" type="line"/>
      <point x="951" y="572" type="line"/>
      <point x="920" y="572"/>
      <point x="868" y="583"/>
      <point x="829" y="608"/>
      <point x="807" y="649"/>
      <point x="807" y="679" type="qcurve"/>
      <point x="807" y="725"/>
      <point x="868" y="783"/>
      <point x="931" y="783" type="qcurve"/>
      <point x="1030" y="783"/>
      <point x="1222" y="782"/>
    </contour>
  </outline>
</glyph>
<glyph name="H" format="1">
  <advance width="1558"/>
  <unicode hex="0048"/>
  <outline>
    <contour>
      <point x="336" y="0" type="curve" smooth="yes"/>
      <point x="439" y="0"/>
      <point x="522" y="86"/>
      <point x="522" y="195" type="curve" smooth="yes"/>
      <point x="522" y="608" type="line"/>
      <point x="1037" y="608" type="line"/>
      <point x="1038" y="195" type="line" smooth="yes"/>
      <point x="1038" y="86"/>
      <point x="1120" y="0"/>
      <point x="1223" y="0" type="curve" smooth="yes"/>
      <point x="1326" y="0"/>
      <point x="1409" y="86"/>
      <point x="1409" y="195" type="curve" smooth="yes"/>
      <point x="1409" y="1258" type="line" smooth="yes"/>
      <point x="1409" y="1367"/>
      <point x="1326" y="1453"/>
      <point x="1223" y="1453" type="curve" smooth="yes"/>
      <point x="1121" y="1453"/>
      <point x="1037" y="1367"/>
      <point x="1037" y="1258" type="curve" smooth="yes"/>
      <point x="1037" y="893" type="line"/>
      <point x="522" y="893" type="line"/>
      <point x="522" y="1258" type="line" smooth="yes"/>
      <point x="522" y="1367"/>
      <point x="439" y="1453"/>
      <point x="336" y="1453" type="curve" smooth="yes"/>
      <point x="233" y="1453"/>
      <point x="151" y="1367"/>
      <point x="151" y="1258" type="curve" smooth="yes"/>
      <point x="151" y="195" type="line" smooth="yes"/>
      <point x="151" y="86"/>
      <point x="233" y="0"/>
    </contour>
  </outline>
</glyph>
<glyph name="I" format="1">
  <advance width="689"/>
  <unicode hex="0049"/>
  <outline>
    <contour>
      <point x="530" y="195" type="line" smooth="yes"/>
      <point x="530" y="86"/>
      <point x="447" y="0"/>
      <point x="344" y="0" type="curve" smooth="yes"/>
      <point x="241" y="0"/>
      <point x="159" y="86"/>
      <point x="159" y="195" type="curve" smooth="yes"/>
      <point x="159" y="1258" type="line" smooth="yes"/>
      <point x="159" y="1367"/>
      <point x="241" y="1453"/>
      <point x="344" y="1453" type="curve" smooth="yes"/>
      <point x="447" y="1453"/>
      <point x="530" y="1367"/>
      <point x="530" y="1258" type="curve" smooth="yes"/>
    </contour>
  </outline>
</glyph>
<glyph name="J" format="1">
  <advance width="1204"/>
  <unicode hex="004A"/>
  <outline>
    <contour>
      <point x="699" y="1258" type="line"/>
      <point x="699" y="1299"/>
      <point x="728" y="1370"/>
      <point x="778" y="1423"/>
      <point x="845" y="1453"/>
      <point x="884" y="1453" type="qcurve"/>
      <point x="923" y="1453"/>
      <point x="990" y="1423"/>
      <point x="1041" y="1370"/>
      <point x="1070" y="1299"/>
      <point x="1070" y="1258" type="qcurve"/>
      <point x="1069" y="474" type="line"/>
      <point x="1069" y="348"/>
      <point x="998" y="158"/>
      <point x="864" y="31"/>
      <point x="669" y="-34"/>
      <point x="544" y="-34" type="qcurve"/>
      <point x="433" y="-34"/>
      <point x="232" y="33"/>
      <point x="157" y="107" type="qcurve"/>
      <point x="121" y="142"/>
      <point x="74" y="227"/>
      <point x="74" y="263" type="qcurve"/>
      <point x="74" y="287"/>
      <point x="96" y="333"/>
      <point x="132" y="368"/>
      <point x="179" y="389"/>
      <point x="203" y="389" type="qcurve"/>
      <point x="224" y="389"/>
      <point x="260" y="367"/>
      <point x="295" y="336"/>
      <point x="328" y="300"/>
      <point x="346" y="286" type="qcurve"/>
      <point x="382" y="257"/>
      <point x="462" y="224"/>
      <point x="510" y="224" type="qcurve"/>
      <point x="608" y="224"/>
      <point x="699" y="344"/>
      <point x="699" y="472" type="qcurve"/>
    </contour>
  </outline>
</glyph>
<glyph name="K" format="1">
  <advance width="1451"/>
  <unicode hex="004B"/>
  <outline>
    <contour>
      <point x="526" y="815" type="line"/>
      <point x="913" y="1322" type="line"/>
      <point x="957" y="1380"/>
      <point x="1041" y="1452"/>
      <point x="1096" y="1452" type="qcurve"/>
      <point x="1127" y="1452"/>
      <point x="1187" y="1429"/>
      <point x="1235" y="1387"/>
      <point x="1265" y="1331"/>
      <point x="1265" y="1298" type="qcurve"/>
      <point x="1265" y="1278"/>
      <point x="1247" y="1235"/>
      <point x="1220" y="1192"/>
      <point x="1185" y="1149"/>
      <point x="1169" y="1130" type="qcurve"/>
      <point x="870" y="781" type="line"/>
      <point x="1218" y="344" type="line"/>
      <point x="1235" y="323"/>
      <point x="1269" y="276"/>
      <point x="1297" y="229"/>
      <point x="1315" y="184"/>
      <point x="1315" y="163" type="qcurve"/>
      <point x="1315" y="130"/>
      <point x="1284" y="71"/>
      <point x="1234" y="26"/>
      <point x="1171" y="0"/>
      <point x="1140" y="0" type="qcurve"/>
      <point x="1104" y="0"/>
      <point x="1042" y="32"/>
      <point x="987" y="82"/>
      <point x="940" y="142"/>
      <point x="919" y="171" type="qcurve"/>
      <point x="526" y="704" type="line"/>
      <point x="528" y="195" type="line"/>
      <point x="528" y="154"/>
      <point x="499" y="83"/>
      <point x="448" y="30"/>
      <point x="381" y="0"/>
      <point x="342" y="0" type="qcurve"/>
      <point x="303" y="0"/>
      <point x="236" y="30"/>
      <point x="186" y="83"/>
      <point x="157" y="154"/>
      <point x="157" y="195" type="qcurve"/>
      <point x="157" y="1258" type="line"/>
      <point x="157" y="1299"/>
      <point x="186" y="1370"/>
      <point x="236" y="1423"/>
      <point x="303" y="1453"/>
      <point x="342" y="1453" type="qcurve"/>
      <point x="379" y="1453"/>
      <point x="447" y="1423"/>
      <point x="498" y="1370"/>
      <point x="528" y="1299"/>
      <point x="528" y="1258" type="qcurve"/>
    </contour>
  </outline>
</glyph>
<glyph name="L" format="1">
  <advance width="1197"/>
  <unicode hex="004C"/>
  <outline>
    <contour>
      <point x="338" y="0" type="curve" smooth="yes"/>
      <point x="1023" y="0" type="line" smooth="yes"/>
      <point x="1096" y="0"/>
      <point x="1156" y="60"/>
      <point x="1156" y="133" type="curve" smooth="yes"/>
      <point x="1156" y="206"/>
      <point x="1096" y="266"/>
      <point x="1023" y="266" type="curve" smooth="yes"/>
      <point x="524" y="266" type="line"/>
      <point x="523" y="1258" type="line" smooth="yes"/>
      <point x="523" y="1367"/>
      <point x="440" y="1453"/>
      <point x="337" y="1453" type="curve" smooth="yes"/>
      <point x="234" y="1453"/>
      <point x="152" y="1367"/>
      <point x="152" y="1258" type="curve" smooth="yes"/>
      <point x="152" y="273" type="line" smooth="yes"/>
      <point x="152" y="137"/>
      <point x="193" y="0"/>
    </contour>
  </outline>
</glyph>
<glyph name="M" format="1">
  <advance width="2054"/>
  <unicode hex="004D"/>
  <outline>
    <contour>
      <point x="1592" y="1103" type="line"/>
      <point x="1503" y="883"/>
      <point x="1433" y="711" type="qcurve"/>
      <point x="1403" y="637"/>
      <point x="1347" y="497"/>
      <point x="1302" y="387"/>
      <point x="1288" y="353" type="qcurve"/>
      <point x="1275" y="320" type="line"/>
      <point x="1254" y="269"/>
      <point x="1207" y="177"/>
      <point x="1147" y="108"/>
      <point x="1072" y="67"/>
      <point x="1023" y="67" type="qcurve"/>
      <point x="978" y="67"/>
      <point x="910" y="98"/>
      <point x="853" y="161"/>
      <point x="803" y="256"/>
      <point x="778" y="319" type="qcurve"/>
      <point x="463" y="1099" type="line"/>
      <point x="463" y="145" type="line"/>
      <point x="463" y="115"/>
      <point x="440" y="61"/>
      <point x="400" y="22"/>
      <point x="346" y="-1"/>
      <point x="316" y="-1" type="qcurve"/>
      <point x="286" y="-1"/>
      <point x="232" y="22"/>
      <point x="193" y="61"/>
      <point x="170" y="115"/>
      <point x="170" y="145" type="qcurve"/>
      <point x="170" y="1068" type="line"/>
      <point x="170" y="1155"/>
      <point x="188" y="1298"/>
      <point x="243" y="1398"/>
      <point x="342" y="1453"/>
      <point x="423" y="1453" type="qcurve"/>
      <point x="481" y="1453"/>
      <point x="568" y="1413"/>
      <point x="643" y="1324"/>
      <point x="714" y="1182"/>
      <point x="756" y="1081" type="qcurve"/>
      <point x="1023" y="436" type="line"/>
      <point x="1031" y="436" type="line"/>
      <point x="1301" y="1081" type="line"/>
      <point x="1337" y="1167"/>
      <point x="1406" y="1305"/>
      <point x="1484" y="1401"/>
      <point x="1576" y="1453"/>
      <point x="1635" y="1453" type="qcurve"/>
      <point x="1699" y="1453"/>
      <point x="1794" y="1415"/>
      <point x="1855" y="1331"/>
      <point x="1885" y="1198"/>
      <point x="1885" y="1104" type="qcurve"/>
      <point x="1885" y="145" type="line"/>
      <point x="1885" y="115"/>
      <point x="1862" y="61"/>
      <point x="1822" y="22"/>
      <point x="1768" y="-1"/>
      <point x="1738" y="-1" type="qcurve"/>
      <point x="1708" y="-1"/>
      <point x="1654" y="22"/>
      <point x="1615" y="61"/>
      <point x="1592" y="115"/>
      <point x="1592" y="145" type="qcurve"/>
    </contour>
  </outline>
</glyph>
<glyph name="N" format="1">
  <advance width="1598"/>
  <unicode hex="004E"/>
  <outline>
    <contour>
      <point x="458" y="157" type="line"/>
      <point x="458" y="124"/>
      <point x="433" y="67"/>
      <point x="390" y="25"/>
      <point x="333" y="0"/>
      <point x="300" y="0" type="qcurve"/>
      <point x="267" y="0"/>
      <point x="210" y="25"/>
      <point x="168" y="67"/>
      <point x="144" y="124"/>
      <point x="144" y="157" type="qcurve"/>
      <point x="144" y="1249" type="line"/>
      <point x="144" y="1298"/>
      <point x="173" y="1374"/>
      <point x="222" y="1426"/>
      <point x="288" y="1453"/>
      <point x="326" y="1453" type="qcurve"/>
      <point x="358" y="1453"/>
      <point x="419" y="1428"/>
      <point x="475" y="1386"/>
      <point x="527" y="1329"/>
      <point x="551" y="1297" type="qcurve"/>
      <point x="1141" y="497" type="line"/>
      <point x="1141" y="1296" type="line"/>
      <point x="1141" y="1329"/>
      <point x="1165" y="1386"/>
      <point x="1207" y="1428"/>
      <point x="1264" y="1453"/>
      <point x="1297" y="1453" type="qcurve"/>
      <point x="1330" y="1453"/>
      <point x="1387" y="1428"/>
      <point x="1429" y="1386"/>
      <point x="1454" y="1329"/>
      <point x="1454" y="1296" type="qcurve"/>
      <point x="1454" y="278" type="line"/>
      <point x="1454" y="223"/>
      <point x="1442" y="122"/>
      <point x="1404" y="46"/>
      <point x="1334" y="0"/>
      <point x="1276" y="0" type="qcurve"/>
      <point x="1245" y="0"/>
      <point x="1186" y="24"/>
      <point x="1131" y="66"/>
      <point x="1079" y="123"/>
      <point x="1054" y="156" type="qcurve"/>
      <point x="458" y="966" type="line"/>
    </contour>
  </outline>
</glyph>
<glyph name="O" format="1">
  <advance width="1612"/>
  <unicode hex="004F"/>
  <outline>
    <contour>
      <point x="480" y="725" type="curve" smooth="yes"/>
      <point x="480" y="394"/>
      <point x="582" y="224"/>
      <point x="806" y="224" type="curve" smooth="yes"/>
      <point x="1026" y="224"/>
      <point x="1133" y="393"/>
      <point x="1133" y="725" type="curve" smooth="yes"/>
      <point x="1133" y="1045"/>
      <point x="1032" y="1227"/>
      <point x="806" y="1227" type="curve" smooth="yes"/>
      <point x="582" y="1227"/>
      <point x="480" y="1045"/>
    </contour>
    <contour>
      <point x="91" y="725" type="curve" smooth="yes"/>
      <point x="91" y="1166"/>
      <point x="327" y="1486"/>
      <point x="806" y="1486" type="curve" smooth="yes"/>
      <point x="1274" y="1486"/>
      <point x="1521" y="1178"/>
      <point x="1521" y="725" type="curve" smooth="yes"/>
      <point x="1521" y="279"/>
      <point x="1279" y="-35"/>
      <point x="806" y="-35" type="curve" smooth="yes"/>
      <point x="344" y="-35"/>
      <point x="91" y="265"/>
    </contour>
  </outline>
</glyph>
<glyph name="P" format="1">
  <advance width="1391"/>
  <unicode hex="0050"/>
  <outline>
    <contour>
      <point x="524" y="195" type="line"/>
      <point x="524" y="154"/>
      <point x="494" y="83"/>
      <point x="443" y="30"/>
      <point x="376" y="0"/>
      <point x="337" y="0" type="qcurve"/>
      <point x="298" y="0"/>
      <point x="231" y="30"/>
      <point x="181" y="83"/>
      <point x="152" y="154"/>
      <point x="152" y="195" type="qcurve"/>
      <point x="152" y="1178" type="line"/>
      <point x="152" y="1235"/>
      <point x="167" y="1336"/>
      <point x="216" y="1410"/>
      <point x="311" y="1453"/>
      <point x="392" y="1453" type="qcurve"/>
      <point x="753" y="1453" type="line"/>
      <point x="868" y="1453"/>
      <point x="1081" y="1413"/>
      <point x="1245" y="1312"/>
      <point x="1343" y="1138"/>
      <point x="1343" y="1005" type="qcurve"/>
      <point x="1343" y="890"/>
      <point x="1258" y="721"/>
      <point x="1103" y="609"/>
      <point x="885" y="554"/>
      <point x="753" y="554" type="qcurve"/>
      <point x="524" y="554" type="line"/>
    </contour>
    <contour>
      <point x="692" y="777" type="line"/>
      <point x="756" y="777"/>
      <point x="862" y="799"/>
      <point x="937" y="850"/>
      <point x="979" y="934"/>
      <point x="979" y="1005" type="qcurve"/>
      <point x="979" y="1075"/>
      <point x="939" y="1156"/>
      <point x="868" y="1206"/>
      <point x="769" y="1228"/>
      <point x="709" y="1228" type="qcurve"/>
      <point x="524" y="1228" type="line"/>
      <point x="524" y="777" type="line"/>
    </contour>
  </outline>
</glyph>
<glyph name="Q" format="1">
  <advance width="1612"/>
  <unicode hex="0051"/>
  <outline>
    <contour>
      <point x="811" y="-35" type="curve" smooth="yes"/>
      <point x="882.556" y="-35"/>
      <point x="1005.86" y="-18.2857"/>
      <point x="1042" y="-15" type="curve"/>
      <point x="1401" y="-1" type="line" smooth="yes"/>
      <point x="1514" y="3"/>
      <point x="1570" y="42"/>
      <point x="1570" y="125" type="curve" smooth="yes"/>
      <point x="1570" y="224"/>
      <point x="1480" y="246"/>
      <point x="1392" y="246" type="curve" smooth="yes"/>
      <point x="1314" y="246" type="line"/>
      <point x="1434" y="369"/>
      <point x="1515" y="538"/>
      <point x="1515" y="735" type="curve" smooth="yes"/>
      <point x="1515" y="1196"/>
      <point x="1267" y="1486"/>
      <point x="806" y="1486" type="curve" smooth="yes"/>
      <point x="329" y="1486"/>
      <point x="91" y="1167"/>
      <point x="91" y="725" type="curve" smooth="yes"/>
      <point x="91" y="265"/>
      <point x="344" y="-35"/>
    </contour>
    <contour>
      <point x="806" y="224" type="curve" smooth="yes"/>
      <point x="582" y="224"/>
      <point x="480" y="394"/>
      <point x="480" y="725" type="curve" smooth="yes"/>
      <point x="480" y="1045"/>
      <point x="582" y="1227"/>
      <point x="806" y="1227" type="curve" smooth="yes"/>
      <point x="1032" y="1227"/>
      <point x="1133" y="1045"/>
      <point x="1133" y="725" type="curve" smooth="yes"/>
      <point x="1133" y="393"/>
      <point x="1026" y="224"/>
    </contour>
  </outline>
</glyph>
<glyph name="R" format="1">
  <advance width="1464"/>
  <unicode hex="0052"/>
  <outline>
    <contour>
      <point x="526" y="195" type="line" smooth="yes"/>
      <point x="526" y="86"/>
      <point x="443" y="0"/>
      <point x="340" y="0" type="curve" smooth="yes"/>
      <point x="237" y="0"/>
      <point x="155" y="86"/>
      <point x="155" y="195" type="curve" smooth="yes"/>
      <point x="155" y="1269" type="line" smooth="yes"/>
      <point x="155" y="1392"/>
      <point x="260" y="1453"/>
      <point x="383" y="1453" type="curve" smooth="yes"/>
      <point x="784" y="1453" type="line" smooth="yes"/>
      <point x="1080" y="1453"/>
      <point x="1347" y="1391"/>
      <point x="1347" y="1088" type="curve" smooth="yes"/>
      <point x="1347" y="922"/>
      <point x="1262" y="788"/>
      <point x="1025" y="748" type="curve"/>
      <point x="1025" y="744" type="line"/>
      <point x="1280" y="712"/>
      <point x="1304" y="595"/>
      <point x="1333" y="280" type="curve"/>
      <point x="1335" y="251"/>
      <point x="1337" y="224"/>
      <point x="1337" y="197" type="curve" smooth="yes"/>
      <point x="1337" y="82"/>
      <point x="1302" y="1"/>
      <point x="1156" y="1" type="curve" smooth="yes"/>
      <point x="1022" y="1"/>
      <point x="984" y="133"/>
      <point x="965" y="292" type="curve" smooth="yes"/>
      <point x="938" y="524"/>
      <point x="926" y="598"/>
      <point x="729" y="598" type="curve" smooth="yes"/>
      <point x="526" y="598" type="line"/>
    </contour>
    <contour>
      <point x="680" y="830" type="line" smooth="yes"/>
      <point x="824" y="830"/>
      <point x="983" y="853"/>
      <point x="983" y="1029" type="curve" smooth="yes"/>
      <point x="983" y="1224"/>
      <point x="830" y="1228"/>
      <point x="671" y="1228" type="curve" smooth="yes"/>
      <point x="520" y="1228" type="line"/>
      <point x="520" y="830" type="line"/>
    </contour>
  </outline>
</glyph>
<glyph name="S" format="1">
  <advance width="1371"/>
  <unicode hex="0053"/>
  <outline>
    <contour>
      <point x="461" y="1073" type="curve" smooth="yes"/>
      <point x="461" y="943"/>
      <point x="648" y="908"/>
      <point x="824" y="856" type="curve" smooth="yes"/>
      <point x="1107" y="772"/>
      <point x="1293" y="675"/>
      <point x="1293" y="419" type="curve" smooth="yes"/>
      <point x="1293" y="139"/>
      <point x="1063" y="-35"/>
      <point x="695" y="-35" type="curve" smooth="yes"/>
      <point x="413" y="-35"/>
      <point x="90" y="70"/>
      <point x="90" y="226" type="curve" smooth="yes"/>
      <point x="90" y="292"/>
      <point x="152" y="362"/>
      <point x="205" y="362" type="curve" smooth="yes"/>
      <point x="253" y="362"/>
      <point x="294" y="326"/>
      <point x="350" y="305" type="curve"/>
      <point x="442" y="264"/>
      <point x="560" y="224"/>
      <point x="685" y="224" type="curve" smooth="yes"/>
      <point x="821" y="224"/>
      <point x="936" y="272"/>
      <point x="936" y="388" type="curve" smooth="yes"/>
      <point x="936" y="477"/>
      <point x="867" y="522"/>
      <point x="783" y="552" type="curve" smooth="yes"/>
      <point x="738" y="568" type="line" smooth="yes"/>
      <point x="721" y="574"/>
      <point x="706" y="579"/>
      <point x="687" y="585" type="curve" smooth="yes"/>
      <point x="635" y="600" type="line"/>
      <point x="589" y="611"/>
      <point x="577" y="618"/>
      <point x="545" y="629" type="curve" smooth="yes"/>
      <point x="451" y="662" type="line"/>
      <point x="208" y="750"/>
      <point x="109" y="845"/>
      <point x="109" y="1048" type="curve" smooth="yes"/>
      <point x="109" y="1315"/>
      <point x="338" y="1486"/>
      <point x="706" y="1486" type="curve" smooth="yes"/>
      <point x="907" y="1486"/>
      <point x="1236" y="1410"/>
      <point x="1236" y="1238" type="curve" smooth="yes"/>
      <point x="1236" y="1171"/>
      <point x="1181" y="1124"/>
      <point x="1119" y="1124" type="curve" smooth="yes"/>
      <point x="1099" y="1124"/>
      <point x="1081" y="1128"/>
      <point x="1064" y="1137" type="curve" smooth="yes"/>
      <point x="939" y="1201"/>
      <point x="856" y="1227"/>
      <point x="720" y="1227" type="curve" smooth="yes"/>
      <point x="592" y="1227"/>
      <point x="461" y="1184"/>
    </contour>
  </outline>
</glyph>
<glyph name="T" format="1">
  <advance width="1238"/>
  <unicode hex="0054"/>
  <outline>
    <contour>
      <point x="161" y="1188" type="line"/>
      <point x="132" y="1188"/>
      <point x="80" y="1209"/>
      <point x="41" y="1245"/>
      <point x="18" y="1293"/>
      <point x="18" y="1320" type="qcurve"/>
      <point x="18" y="1347"/>
      <point x="41" y="1396"/>
      <point x="80" y="1432"/>
      <point x="132" y="1453"/>
      <point x="161" y="1453" type="qcurve"/>
      <point x="1074" y="1453" type="line"/>
      <point x="1103" y="1453"/>
      <point x="1155" y="1432"/>
      <point x="1194" y="1396"/>
      <point x="1217" y="1347"/>
      <point x="1217" y="1320" type="qcurve"/>
      <point x="1217" y="1293"/>
      <point x="1194" y="1245"/>
      <point x="1155" y="1209"/>
      <point x="1103" y="1188"/>
      <point x="1074" y="1188" type="qcurve"/>
      <point x="806" y="1188" type="line"/>
      <point x="806" y="195" type="line"/>
      <point x="806" y="154"/>
      <point x="777" y="83"/>
      <point x="726" y="30"/>
      <point x="659" y="0"/>
      <point x="620" y="0" type="qcurve"/>
      <point x="581" y="0"/>
      <point x="514" y="30"/>
      <point x="464" y="83"/>
      <point x="435" y="154"/>
      <point x="435" y="195" type="qcurve"/>
      <point x="435" y="1188" type="line"/>
    </contour>
  </outline>
</glyph>
<glyph name="U" format="1">
  <advance width="1539"/>
  <unicode hex="0055"/>
  <outline>
    <contour>
      <point x="1025" y="1258" type="line"/>
      <point x="1025" y="1299"/>
      <point x="1054" y="1370"/>
      <point x="1104" y="1423"/>
      <point x="1171" y="1453"/>
      <point x="1210" y="1453" type="qcurve"/>
      <point x="1249" y="1453"/>
      <point x="1316" y="1423"/>
      <point x="1367" y="1370"/>
      <point x="1396" y="1299"/>
      <point x="1396" y="1258" type="qcurve"/>
      <point x="1396" y="492" type="line"/>
      <point x="1396" y="360"/>
      <point x="1303" y="163"/>
      <point x="1136" y="31"/>
      <point x="906" y="-35"/>
      <point x="769" y="-35" type="qcurve"/>
      <point x="634" y="-35"/>
      <point x="405" y="30"/>
      <point x="238" y="160"/>
      <point x="144" y="358"/>
      <point x="144" y="492" type="qcurve"/>
      <point x="144" y="1258" type="line"/>
      <point x="144" y="1299"/>
      <point x="173" y="1370"/>
      <point x="223" y="1423"/>
      <point x="290" y="1453"/>
      <point x="329" y="1453" type="qcurve"/>
      <point x="368" y="1453"/>
      <point x="435" y="1423"/>
      <point x="486" y="1370"/>
      <point x="515" y="1299"/>
      <point x="515" y="1258" type="qcurve"/>
      <point x="516" y="498" type="line"/>
      <point x="516" y="426"/>
      <point x="560" y="322"/>
      <point x="631" y="256"/>
      <point x="722" y="224"/>
      <point x="769" y="224" type="qcurve"/>
      <point x="817" y="224"/>
      <point x="908" y="256"/>
      <point x="980" y="322"/>
      <point x="1025" y="426"/>
      <point x="1025" y="498" type="qcurve"/>
    </contour>
  </outline>
</glyph>
<glyph name="V" format="1">
  <advance width="1451"/>
  <unicode hex="0056"/>
  <outline>
    <contour>
      <point x="715" y="271" type="line"/>
      <point x="720" y="271" type="line"/>
      <point x="1023" y="1289" type="line"/>
      <point x="1035" y="1331"/>
      <point x="1077" y="1392"/>
      <point x="1128" y="1432"/>
      <point x="1185" y="1452"/>
      <point x="1213" y="1452" type="qcurve"/>
      <point x="1242" y="1452"/>
      <point x="1295" y="1431"/>
      <point x="1336" y="1391"/>
      <point x="1360" y="1331"/>
      <point x="1360" y="1292" type="qcurve"/>
      <point x="1360" y="1247"/>
      <point x="1344" y="1196" type="qcurve"/>
      <point x="1084" y="393" type="line"/>
      <point x="1051" y="292"/>
      <point x="990" y="145"/>
      <point x="910" y="47"/>
      <point x="798" y="0"/>
      <point x="715" y="0" type="qcurve"/>
      <point x="639" y="0"/>
      <point x="535" y="34"/>
      <point x="456" y="118"/>
      <point x="392" y="258"/>
      <point x="357" y="364" type="qcurve"/>
      <point x="78" y="1209" type="line"/>
      <point x="71" y="1229"/>
      <point x="66" y="1265"/>
      <point x="66" y="1282" type="qcurve"/>
      <point x="66" y="1321"/>
      <point x="93" y="1383"/>
      <point x="139" y="1428"/>
      <point x="197" y="1452"/>
      <point x="229" y="1452" type="qcurve"/>
      <point x="256" y="1452"/>
      <point x="311" y="1433"/>
      <point x="360" y="1393"/>
      <point x="400" y="1330"/>
      <point x="413" y="1286" type="qcurve"/>
    </contour>
  </outline>
</glyph>
<glyph name="W" format="1">
  <advance width="2087"/>
  <unicode hex="0057"/>
  <outline>
    <contour>
      <point x="541" y="0" type="curve" smooth="yes"/>
      <point x="721" y="0"/>
      <point x="785" y="112"/>
      <point x="831" y="291" type="curve" smooth="yes"/>
      <point x="1043" y="1118" type="line"/>
      <point x="1246" y="329" type="line"/>
      <point x="1305" y="105"/>
      <point x="1373" y="0"/>
      <point x="1538" y="0" type="curve" smooth="yes"/>
      <point x="1704" y="0"/>
      <point x="1771" y="124"/>
      <point x="1813" y="296" type="curve" smooth="yes"/>
      <point x="2042" y="1228" type="line" smooth="yes"/>
      <point x="2048" y="1252"/>
      <point x="2051" y="1274"/>
      <point x="2051" y="1295" type="curve" smooth="yes"/>
      <point x="2051" y="1399"/>
      <point x="1980" y="1454"/>
      <point x="1905" y="1454" type="curve" smooth="yes"/>
      <point x="1829" y="1454"/>
      <point x="1752" y="1400"/>
      <point x="1728" y="1291" type="curve"/>
      <point x="1528" y="330" type="line"/>
      <point x="1452" y="609"/>
      <point x="1382" y="884"/>
      <point x="1306" y="1163" type="curve" smooth="yes"/>
      <point x="1255" y="1347"/>
      <point x="1186" y="1453"/>
      <point x="1042" y="1453" type="curve" smooth="yes"/>
      <point x="875" y="1453"/>
      <point x="821" y="1311"/>
      <point x="783" y="1163" type="curve" smooth="yes"/>
      <point x="567" y="329" type="line"/>
      <point x="366" y="1279" type="line" smooth="yes"/>
      <point x="340" y="1402"/>
      <point x="267" y="1453"/>
      <point x="198" y="1453" type="curve" smooth="yes"/>
      <point x="115" y="1453"/>
      <point x="37" y="1384"/>
      <point x="37" y="1280" type="curve" smooth="yes"/>
      <point x="37" y="1262"/>
      <point x="39" y="1244"/>
      <point x="44" y="1226" type="curve" smooth="yes"/>
      <point x="283" y="261" type="line" smooth="yes"/>
      <point x="327" y="82"/>
      <point x="402" y="0"/>
    </contour>
  </outline>
</glyph>
<glyph name="X" format="1">
  <advance width="1374"/>
  <unicode hex="0058"/>
  <outline>
    <contour>
      <point x="218" y="0" type="curve" smooth="yes"/>
      <point x="270" y="0"/>
      <point x="325" y="26"/>
      <point x="369" y="89" type="curve" smooth="yes"/>
      <point x="681" y="539" type="line"/>
      <point x="979" y="97" type="line" smooth="yes"/>
      <point x="1026" y="26"/>
      <point x="1080" y="-1"/>
      <point x="1133" y="-1" type="curve" smooth="yes"/>
      <point x="1220" y="-1"/>
      <point x="1297" y="79"/>
      <point x="1297" y="167" type="curve" smooth="yes"/>
      <point x="1297" y="198"/>
      <point x="1288" y="231"/>
      <point x="1265" y="263" type="curve" smooth="yes"/>
      <point x="915" y="745" type="line"/>
      <point x="1262" y="1211" type="line" smooth="yes"/>
      <point x="1285" y="1242"/>
      <point x="1296" y="1276"/>
      <point x="1297" y="1309" type="curve"/>
      <point x="1297" y="1386"/>
      <point x="1231" y="1452"/>
      <point x="1150" y="1452" type="curve" smooth="yes"/>
      <point x="1097" y="1452"/>
      <point x="1037" y="1423"/>
      <point x="987" y="1350" type="curve" smooth="yes"/>
      <point x="705" y="940" type="line"/>
      <point x="422" y="1360" type="line" smooth="yes"/>
      <point x="379" y="1424"/>
      <point x="325" y="1452"/>
      <point x="273" y="1452" type="curve" smooth="yes"/>
      <point x="187" y="1452"/>
      <point x="109" y="1382"/>
      <point x="109" y="1289" type="curve" smooth="yes"/>
      <point x="109" y="1253"/>
      <point x="121" y="1214"/>
      <point x="150" y="1175" type="curve" smooth="yes"/>
      <point x="470" y="745" type="line"/>
      <point x="131" y="287" type="line" smooth="yes"/>
      <point x="92" y="235"/>
      <point x="77" y="187"/>
      <point x="77" y="144" type="curve" smooth="yes"/>
      <point x="77" y="59"/>
      <point x="142" y="0"/>
    </contour>
  </outline>
</glyph>
<glyph name="Y" format="1">
  <advance width="1391"/>
  <unicode hex="0059"/>
  <outline>
    <contour>
      <point x="883" y="195" type="line"/>
      <point x="882" y="154"/>
      <point x="852" y="83"/>
      <point x="801" y="30"/>
      <point x="734" y="0"/>
      <point x="695" y="0" type="qcurve"/>
      <point x="656" y="0"/>
      <point x="589" y="30"/>
      <point x="539" y="83"/>
      <point x="510" y="154"/>
      <point x="510" y="195" type="qcurve"/>
      <point x="510" y="556" type="line"/>
      <point x="143" y="1169" type="line"/>
      <point x="124" y="1200"/>
      <point x="108" y="1259"/>
      <point x="108" y="1287" type="qcurve"/>
      <point x="108" y="1324"/>
      <point x="135" y="1385"/>
      <point x="180" y="1429"/>
      <point x="239" y="1453"/>
      <point x="271" y="1453" type="qcurve"/>
      <point x="319" y="1453"/>
      <point x="415" y="1393"/>
      <point x="448" y="1324" type="qcurve"/>
      <point x="711" y="801" type="line"/>
      <point x="715" y="801" type="line"/>
      <point x="989" y="1328" type="line"/>
      <point x="1023" y="1394"/>
      <point x="1115" y="1452"/>
      <point x="1162" y="1452" type="qcurve"/>
      <point x="1190" y="1452"/>
      <point x="1241" y="1432"/>
      <point x="1279" y="1396"/>
      <point x="1301" y="1344"/>
      <point x="1301" y="1313" type="qcurve"/>
      <point x="1301" y="1287"/>
      <point x="1285" y="1230"/>
      <point x="1266" y="1199" type="qcurve"/>
      <point x="883" y="562" type="line"/>
    </contour>
  </outline>
</glyph>
<glyph name="Z" format="1">
  <advance width="1278"/>
  <unicode hex="005A"/>
  <outline>
    <contour>
      <point x="1083" y="259" type="line"/>
      <point x="1110" y="259"/>
      <point x="1157" y="239"/>
      <point x="1193" y="203"/>
      <point x="1213" y="156"/>
      <point x="1213" y="129" type="qcurve"/>
      <point x="1213" y="102"/>
      <point x="1193" y="55"/>
      <point x="1157" y="20"/>
      <point x="1110" y="0"/>
      <point x="1083" y="0" type="qcurve"/>
      <point x="208" y="0" type="line"/>
      <point x="172" y="0"/>
      <point x="116" y="19"/>
      <point x="79" y="52"/>
      <point x="60" y="97"/>
      <point x="60" y="122" type="qcurve"/>
      <point x="60" y="155"/>
      <point x="97" y="239"/>
      <point x="123" y="276" type="qcurve"/>
      <point x="286" y="506"/>
      <point x="607" y="964"/>
      <point x="769" y="1194" type="qcurve"/>
      <point x="204" y="1194" type="line"/>
      <point x="177" y="1194"/>
      <point x="130" y="1214"/>
      <point x="95" y="1249"/>
      <point x="75" y="1296"/>
      <point x="75" y="1323" type="qcurve"/>
      <point x="75" y="1350"/>
      <point x="95" y="1397"/>
      <point x="130" y="1433"/>
      <point x="177" y="1453"/>
      <point x="204" y="1453" type="qcurve"/>
      <point x="1042" y="1453" type="line"/>
      <point x="1077" y="1453"/>
      <point x="1138" y="1440"/>
      <point x="1184" y="1411"/>
      <point x="1211" y="1363"/>
      <point x="1211" y="1329" type="qcurve"/>
      <point x="1211" y="1295"/>
      <point x="1174" y="1215"/>
      <point x="1149" y="1180" type="qcurve"/>
      <point x="499" y="259" type="line"/>
    </contour>
  </outline>
</glyph>
<glyph name="bracketleft" format="1">
  <advance width="789"/>
  <unicode hex="005B"/>
  <outline>
    <contour>
      <point x="169" y="1305" type="line"/>
      <point x="169" y="1339"/>
      <point x="194" y="1394"/>
      <point x="239" y="1431"/>
      <point x="300" y="1451"/>
      <point x="337" y="1451" type="qcurve"/>
      <point x="585" y="1451" type="line"/>
      <point x="610" y="1451"/>
      <point x="652" y="1433"/>
      <point x="680" y="1403"/>
      <point x="696" y="1362"/>
      <point x="696" y="1339" type="qcurve"/>
      <point x="696" y="1285"/>
      <point x="625" y="1227"/>
      <point x="562" y="1227" type="qcurve"/>
      <point x="460" y="1227" type="line"/>
      <point x="460" y="-20" type="line"/>
      <point x="562" y="-20" type="line"/>
      <point x="625" y="-20"/>
      <point x="696" y="-77"/>
      <point x="696" y="-131" type="qcurve"/>
      <point x="696" y="-182"/>
      <point x="629" y="-243"/>
      <point x="563" y="-245" type="qcurve"/>
      <point x="337" y="-245" type="line"/>
      <point x="296" y="-245"/>
      <point x="234" y="-226"/>
      <point x="191" y="-181"/>
      <point x="169" y="-107"/>
      <point x="169" y="-53" type="qcurve"/>
    </contour>
  </outline>
</glyph>
<glyph name="backslash" format="1">
  <advance width="669"/>
  <unicode hex="005C"/>
  <outline>
    <contour>
      <point x="7" y="1370" type="line"/>
      <point x="3" y="1381"/>
      <point x="1" y="1401"/>
      <point x="1" y="1409" type="qcurve"/>
      <point x="1" y="1457"/>
      <point x="62" y="1504"/>
      <point x="104" y="1504" type="qcurve"/>
      <point x="127" y="1504"/>
      <point x="163" y="1483"/>
      <point x="190" y="1448"/>
      <point x="211" y="1403"/>
      <point x="220" y="1379" type="qcurve"/>
      <point x="653" y="90" type="line"/>
      <point x="658" y="73"/>
      <point x="668" y="40"/>
      <point x="668" y="25" type="qcurve"/>
      <point x="668" y="2"/>
      <point x="649" y="-33"/>
      <point x="619" y="-57"/>
      <point x="581" y="-70"/>
      <point x="563" y="-70" type="qcurve"/>
      <point x="540" y="-70"/>
      <point x="506" y="-50"/>
      <point x="479" y="-15"/>
      <point x="459" y="30"/>
      <point x="451" y="54" type="qcurve"/>
    </contour>
  </outline>
</glyph>
<glyph name="bracketright" format="1">
  <advance width="789"/>
  <unicode hex="005D"/>
  <outline>
    <contour>
      <point x="619" y="-100" type="line"/>
      <point x="619" y="-134"/>
      <point x="593" y="-188"/>
      <point x="548" y="-225"/>
      <point x="486" y="-245"/>
      <point x="451" y="-245" type="qcurve"/>
      <point x="203" y="-245" type="line"/>
      <point x="147" y="-240"/>
      <point x="91" y="-174"/>
      <point x="91" y="-131" type="qcurve"/>
      <point x="91" y="-80"/>
      <point x="158" y="-20"/>
      <point x="226" y="-20" type="qcurve"/>
      <point x="327" y="-20" type="line"/>
      <point x="327" y="1227" type="line"/>
      <point x="226" y="1227" type="line"/>
      <point x="162" y="1227"/>
      <point x="92" y="1284"/>
      <point x="92" y="1339" type="qcurve"/>
      <point x="92" y="1390"/>
      <point x="158" y="1451"/>
      <point x="225" y="1451" type="qcurve"/>
      <point x="451" y="1451" type="line"/>
      <point x="490" y="1451"/>
      <point x="552" y="1432"/>
      <point x="596" y="1387"/>
      <point x="619" y="1313"/>
      <point x="619" y="1258" type="qcurve"/>
    </contour>
  </outline>
</glyph>
<glyph name="asciicircum" format="1">
  <advance width="1287"/>
  <unicode hex="005E"/>
  <outline>
    <contour>
      <point x="642" y="1211" type="line"/>
      <point x="579" y="1083"/>
      <point x="455" y="830"/>
      <point x="392" y="702" type="qcurve"/>
      <point x="372" y="661"/>
      <point x="323" y="607"/>
      <point x="288" y="607" type="qcurve"/>
      <point x="250" y="607"/>
      <point x="195" y="656"/>
      <point x="195" y="697" type="qcurve"/>
      <point x="195" y="713"/>
      <point x="215" y="758"/>
      <point x="225" y="778" type="qcurve"/>
      <point x="501" y="1331" type="line"/>
      <point x="513" y="1355"/>
      <point x="540" y="1398"/>
      <point x="574" y="1431"/>
      <point x="616" y="1451"/>
      <point x="643" y="1451" type="qcurve"/>
      <point x="691" y="1451"/>
      <point x="755" y="1388"/>
      <point x="784" y="1331" type="qcurve"/>
      <point x="1060" y="778" type="line"/>
      <point x="1070" y="758"/>
      <point x="1089" y="712"/>
      <point x="1089" y="695" type="qcurve"/>
      <point x="1089" y="656"/>
      <point x="1035" y="610"/>
      <point x="997" y="610" type="qcurve"/>
      <point x="962" y="610"/>
      <point x="914" y="664"/>
      <point x="892" y="702" type="qcurve"/>
    </contour>
  </outline>
</glyph>
<glyph name="underscore" format="1">
  <advance width="1024"/>
  <unicode hex="005F"/>
  <outline>
    <contour>
      <point x="66" y="-255" type="line" smooth="yes"/>
      <point x="22" y="-255"/>
      <point x="0" y="-222"/>
      <point x="0" y="-187" type="curve" smooth="yes"/>
      <point x="0" y="-138"/>
      <point x="30" y="-118"/>
      <point x="94" y="-118" type="curve" smooth="yes"/>
      <point x="956" y="-118" type="line" smooth="yes"/>
      <point x="1000" y="-118"/>
      <point x="1023" y="-151"/>
      <point x="1023" y="-187" type="curve" smooth="yes"/>
      <point x="1023" y="-236"/>
      <point x="988" y="-255"/>
      <point x="928" y="-255" type="curve" smooth="yes"/>
    </contour>
  </outline>
</glyph>
<glyph name="grave" format="1">
  <advance width="569"/>
  <unicode hex="0060"/>
  <outline>
    <contour>
      <point x="442" y="1118" type="curve" smooth="yes"/>
      <point x="478" y="1118"/>
      <point x="507" y="1152"/>
      <point x="507" y="1189" type="curve" smooth="yes"/>
      <point x="507" y="1205"/>
      <point x="495" y="1223"/>
      <point x="484" y="1240" type="curve" smooth="yes"/>
      <point x="292" y="1520" type="line" smooth="yes"/>
      <point x="259" y="1568"/>
      <point x="221" y="1601"/>
      <point x="178" y="1601" type="curve" smooth="yes"/>
      <point x="111" y="1601"/>
      <point x="39" y="1541"/>
      <point x="39" y="1474" type="curve" smooth="yes"/>
      <point x="39" y="1447"/>
      <point x="49" y="1424"/>
      <point x="73" y="1404" type="curve" smooth="yes"/>
      <point x="367" y="1152" type="line"/>
      <point x="387" y="1132"/>
      <point x="421" y="1118"/>
    </contour>
  </outline>
</glyph>
<glyph name="a" format="1">
  <advance width="1123"/>
  <unicode hex="0061"/>
  <outline>
    <contour>
      <point x="712" y="658" type="line" smooth="yes"/>
      <point x="712" y="770"/>
      <point x="648" y="812"/>
      <point x="548" y="812" type="curve" smooth="yes"/>
      <point x="429" y="812"/>
      <point x="341" y="783"/>
      <point x="266" y="764" type="curve" smooth="yes"/>
      <point x="251" y="760"/>
      <point x="237" y="758"/>
      <point x="225" y="758" type="curve" smooth="yes"/>
      <point x="181" y="758"/>
      <point x="139" y="788"/>
      <point x="139" y="839" type="curve" smooth="yes"/>
      <point x="139" y="987"/>
      <point x="385" y="1023"/>
      <point x="569" y="1023" type="curve" smooth="yes"/>
      <point x="824" y="1023"/>
      <point x="1005" y="916"/>
      <point x="1005" y="600" type="curve" smooth="yes"/>
      <point x="1005" y="200" type="line" smooth="yes"/>
      <point x="1005" y="96"/>
      <point x="986" y="0"/>
      <point x="863" y="0" type="curve" smooth="yes"/>
      <point x="767" y="0"/>
      <point x="722" y="66"/>
      <point x="722" y="183" type="curve"/>
      <point x="653" y="47"/>
      <point x="517" y="-12"/>
      <point x="378" y="-12" type="curve" smooth="yes"/>
      <point x="190" y="-12"/>
      <point x="52" y="102"/>
      <point x="52" y="274" type="curve" smooth="yes"/>
      <point x="52" y="518"/>
      <point x="260" y="615"/>
      <point x="616" y="615" type="curve" smooth="yes"/>
      <point x="712" y="615" type="line"/>
    </contour>
    <contour>
      <point x="711" y="466" type="line"/>
      <point x="694" y="466"/>
      <point x="678" y="467"/>
      <point x="661" y="467" type="curve" smooth="yes"/>
      <point x="496" y="467"/>
      <point x="338" y="440"/>
      <point x="338" y="299" type="curve" smooth="yes"/>
      <point x="338" y="214"/>
      <point x="405" y="157"/>
      <point x="500" y="157" type="curve" smooth="yes"/>
      <point x="622" y="157"/>
      <point x="711" y="247"/>
      <point x="711" y="403" type="curve" smooth="yes"/>
    </contour>
  </outline>
</glyph>
<glyph name="b" format="1">
  <advance width="1255"/>
  <unicode hex="0062"/>
  <outline>
    <contour>
      <point x="434" y="514" type="qcurve"/>
      <point x="434" y="433"/>
      <point x="455" y="308"/>
      <point x="506" y="224"/>
      <point x="592" y="180"/>
      <point x="658" y="180" type="qcurve"/>
      <point x="718" y="180"/>
      <point x="797" y="236"/>
      <point x="842" y="329"/>
      <point x="860" y="448"/>
      <point x="860" y="511" type="qcurve"/>
      <point x="860" y="571"/>
      <point x="841" y="685"/>
      <point x="794" y="775"/>
      <point x="713" y="829"/>
      <point x="651" y="829" type="qcurve"/>
      <point x="588" y="829"/>
      <point x="505" y="782"/>
      <point x="454" y="699"/>
      <point x="434" y="583"/>
    </contour>
    <contour>
      <point x="433" y="830" type="line"/>
      <point x="487" y="920"/>
      <point x="667" y="1023"/>
      <point x="784" y="1023" type="qcurve"/>
      <point x="869" y="1023"/>
      <point x="1016" y="951"/>
      <point x="1124" y="818"/>
      <point x="1185" y="629"/>
      <point x="1185" y="512" type="qcurve"/>
      <point x="1185" y="409"/>
      <point x="1130" y="220"/>
      <point x="1028" y="75"/>
      <point x="881" y="-12"/>
      <point x="789" y="-12" type="qcurve"/>
      <point x="679" y="-12"/>
      <point x="494" y="91"/>
      <point x="433" y="197" type="qcurve"/>
      <point x="433" y="102"/>
      <point x="356" y="0"/>
      <point x="267" y="0" type="qcurve"/>
      <point x="183" y="0"/>
      <point x="114" y="102"/>
      <point x="114" y="197" type="qcurve"/>
      <point x="114" y="1254" type="line"/>
      <point x="114" y="1349"/>
      <point x="183" y="1451"/>
      <point x="267" y="1451" type="qcurve"/>
      <point x="356" y="1451"/>
      <point x="433" y="1349"/>
      <point x="433" y="1254" type="qcurve"/>
    </contour>
  </outline>
</glyph>
<glyph name="c" format="1">
  <advance width="1031"/>
  <unicode hex="0063"/>
  <outline>
    <contour>
      <point x="72" y="507" type="qcurve"/>
      <point x="72" y="620"/>
      <point x="154" y="810"/>
      <point x="297" y="948"/>
      <point x="492" y="1025"/>
      <point x="606" y="1025" type="qcurve"/>
      <point x="666" y="1025"/>
      <point x="787" y="1005"/>
      <point x="884" y="963"/>
      <point x="945" y="898"/>
      <point x="945" y="853" type="qcurve"/>
      <point x="945" y="809"/>
      <point x="888" y="757"/>
      <point x="844" y="757" type="qcurve"/>
      <point x="821" y="757"/>
      <point x="771" y="767"/>
      <point x="718" y="778"/>
      <point x="666" y="788"/>
      <point x="642" y="788" type="qcurve"/>
      <point x="591" y="788"/>
      <point x="501" y="753"/>
      <point x="435" y="683"/>
      <point x="396" y="579"/>
      <point x="396" y="509" type="qcurve"/>
      <point x="396" y="453"/>
      <point x="426" y="351"/>
      <point x="487" y="274"/>
      <point x="580" y="228"/>
      <point x="643" y="228" type="qcurve"/>
      <point x="668" y="228"/>
      <point x="725" y="238"/>
      <point x="781" y="251"/>
      <point x="836" y="261"/>
      <point x="860" y="261" type="qcurve"/>
      <point x="902" y="261"/>
      <point x="959" y="210"/>
      <point x="959" y="168" type="qcurve"/>
      <point x="959" y="125"/>
      <point x="897" y="58"/>
      <point x="795" y="12"/>
      <point x="664" y="-12"/>
      <point x="595" y="-12" type="qcurve"/>
      <point x="496" y="-12"/>
      <point x="307" y="53"/>
      <point x="161" y="182"/>
      <point x="72" y="377"/>
    </contour>
  </outline>
</glyph>
<glyph name="d" format="1">
  <advance width="1258"/>
  <unicode hex="0064"/>
  <outline>
    <contour>
      <point x="613" y="829" type="qcurve"/>
      <point x="553" y="829"/>
      <point x="472" y="779"/>
      <point x="424" y="692"/>
      <point x="403" y="576"/>
      <point x="403" y="511" type="qcurve"/>
      <point x="403" y="454"/>
      <point x="419" y="336"/>
      <point x="463" y="240"/>
      <point x="542" y="178"/>
      <point x="605" y="178" type="qcurve"/>
      <point x="667" y="178"/>
      <point x="752" y="218"/>
      <point x="805" y="301"/>
      <point x="828" y="428"/>
      <point x="828" y="514" type="qcurve"/>
      <point x="828" y="585"/>
      <point x="806" y="701"/>
      <point x="756" y="784"/>
      <point x="674" y="829"/>
    </contour>
    <contour>
      <point x="831" y="1255" type="line"/>
      <point x="831" y="1350"/>
      <point x="900" y="1452"/>
      <point x="984" y="1452" type="qcurve"/>
      <point x="1073" y="1452"/>
      <point x="1150" y="1350"/>
      <point x="1150" y="1255" type="qcurve"/>
      <point x="1150" y="197" type="line"/>
      <point x="1150" y="102"/>
      <point x="1073" y="0"/>
      <point x="984" y="0" type="qcurve"/>
      <point x="900" y="0"/>
      <point x="831" y="102"/>
      <point x="831" y="197" type="qcurve"/>
      <point x="769" y="86"/>
      <point x="592" y="-12"/>
      <point x="474" y="-12" type="qcurve"/>
      <point x="383" y="-12"/>
      <point x="237" y="71"/>
      <point x="134" y="214"/>
      <point x="79" y="405"/>
      <point x="79" y="512" type="qcurve"/>
      <point x="79" y="626"/>
      <point x="137" y="814"/>
      <point x="242" y="949"/>
      <point x="391" y="1023"/>
      <point x="481" y="1023" type="qcurve"/>
      <point x="592" y="1023"/>
      <point x="773" y="923"/>
      <point x="831" y="830" type="qcurve"/>
    </contour>
  </outline>
</glyph>
<glyph name="e" format="1">
  <advance width="1187"/>
  <unicode hex="0065"/>
  <outline>
    <contour>
      <point x="1110" y="536" type="qcurve"/>
      <point x="1110" y="495"/>
      <point x="1056" y="455"/>
      <point x="1008" y="455" type="qcurve"/>
      <point x="389" y="455" type="line"/>
      <point x="394" y="334"/>
      <point x="523" y="201"/>
      <point x="655" y="201" type="qcurve"/>
      <point x="698" y="201"/>
      <point x="773" y="212"/>
      <point x="845" y="231"/>
      <point x="917" y="255"/>
      <point x="956" y="268" type="qcurve"/>
      <point x="969" y="273"/>
      <point x="979" y="273" type="qcurve"/>
      <point x="1012" y="273"/>
      <point x="1052" y="222"/>
      <point x="1052" y="188" type="qcurve"/>
      <point x="1052" y="168"/>
      <point x="1045" y="150" type="qcurve"/>
      <point x="1025" y="102"/>
      <point x="933" y="39"/>
      <point x="813" y="2"/>
      <point x="679" y="-12"/>
      <point x="618" y="-12" type="qcurve"/>
      <point x="503" y="-12"/>
      <point x="304" y="54"/>
      <point x="158" y="184"/>
      <point x="75" y="380"/>
      <point x="75" y="509" type="qcurve"/>
      <point x="75" y="617"/>
      <point x="155" y="805"/>
      <point x="298" y="943"/>
      <point x="495" y="1023"/>
      <point x="613" y="1023" type="qcurve"/>
      <point x="741" y="1023"/>
      <point x="927" y="944"/>
      <point x="1049" y="811"/>
      <point x="1109" y="634"/>
    </contour>
    <contour>
      <point x="843" y="597" type="line"/>
      <point x="840" y="650"/>
      <point x="809" y="740"/>
      <point x="752" y="806"/>
      <point x="669" y="843"/>
      <point x="614" y="843" type="qcurve"/>
      <point x="564" y="843"/>
      <point x="483" y="804"/>
      <point x="424" y="737"/>
      <point x="391" y="648"/>
      <point x="388" y="597" type="qcurve"/>
    </contour>
  </outline>
</glyph>
<glyph name="f" format="1">
  <advance width="754"/>
  <unicode hex="0066"/>
  <outline>
    <contour>
      <point x="517" y="197" type="line"/>
      <point x="517" y="102"/>
      <point x="440" y="0"/>
      <point x="351" y="0" type="qcurve"/>
      <point x="267" y="0"/>
      <point x="198" y="102"/>
      <point x="198" y="197" type="qcurve"/>
      <point x="197" y="824" type="line"/>
      <point x="147" y="824" type="line"/>
      <point x="120" y="824"/>
      <point x="72" y="833"/>
      <point x="37" y="855"/>
      <point x="16" y="890"/>
      <point x="16" y="917" type="qcurve"/>
      <point x="16" y="955"/>
      <point x="74" y="1010"/>
      <point x="134" y="1010" type="qcurve"/>
      <point x="197" y="1010" type="line"/>
      <point x="197" y="1074" type="line"/>
      <point x="197" y="1179"/>
      <point x="238" y="1328"/>
      <point x="322" y="1424"/>
      <point x="451" y="1468"/>
      <point x="540" y="1468" type="qcurve"/>
      <point x="586" y="1468"/>
      <point x="675" y="1461"/>
      <point x="746" y="1437"/>
      <point x="790" y="1389"/>
      <point x="790" y="1348" type="qcurve"/>
      <point x="790" y="1303"/>
      <point x="736" y="1249"/>
      <point x="686" y="1249" type="qcurve"/>
      <point x="674" y="1249"/>
      <point x="650" y="1250"/>
      <point x="639" y="1250" type="qcurve"/>
      <point x="601" y="1250"/>
      <point x="554" y="1231"/>
      <point x="527" y="1183"/>
      <point x="517" y="1100"/>
      <point x="517" y="1036" type="qcurve"/>
      <point x="517" y="1010" type="line"/>
      <point x="613" y="1010" type="line"/>
      <point x="635" y="1010"/>
      <point x="677" y="999"/>
      <point x="709" y="977"/>
      <point x="729" y="942"/>
      <point x="729" y="917" type="qcurve"/>
      <point x="729" y="870"/>
      <point x="662" y="824"/>
      <point x="601" y="824" type="qcurve"/>
      <point x="517" y="824" type="line"/>
    </contour>
  </outline>
</glyph>
<glyph name="g" format="1">
  <advance width="1258"/>
  <unicode hex="0067"/>
  <outline>
    <contour>
      <point x="843" y="193" type="line"/>
      <point x="772" y="61"/>
      <point x="632" y="7"/>
      <point x="486" y="7" type="curve" smooth="yes"/>
      <point x="241" y="7"/>
      <point x="73" y="186"/>
      <point x="73" y="497" type="curve" smooth="yes"/>
      <point x="73" y="790"/>
      <point x="225" y="1023"/>
      <point x="492" y="1023" type="curve" smooth="yes"/>
      <point x="644" y="1023"/>
      <point x="762" y="968"/>
      <point x="847" y="835" type="curve"/>
      <point x="847" y="861" type="line" smooth="yes"/>
      <point x="847" y="957"/>
      <point x="903" y="1006"/>
      <point x="996" y="1006" type="curve" smooth="yes"/>
      <point x="1109" y="1006"/>
      <point x="1145" y="932"/>
      <point x="1145" y="800" type="curve" smooth="yes"/>
      <point x="1145" y="130" type="line" smooth="yes"/>
      <point x="1145" y="-196"/>
      <point x="987" y="-385"/>
      <point x="618" y="-385" type="curve" smooth="yes"/>
      <point x="363" y="-385"/>
      <point x="209" y="-340"/>
      <point x="209" y="-249" type="curve" smooth="yes"/>
      <point x="209" y="-193"/>
      <point x="238" y="-144"/>
      <point x="317" y="-144" type="curve" smooth="yes"/>
      <point x="402" y="-144"/>
      <point x="487" y="-169"/>
      <point x="610" y="-169" type="curve" smooth="yes"/>
      <point x="756" y="-169"/>
      <point x="843" y="-117"/>
      <point x="843" y="74" type="curve" smooth="yes"/>
    </contour>
    <contour>
      <point x="843" y="504" type="curve" smooth="yes"/>
      <point x="843" y="699"/>
      <point x="793" y="829"/>
      <point x="625" y="829" type="curve" smooth="yes"/>
      <point x="460" y="829"/>
      <point x="415" y="686"/>
      <point x="415" y="506" type="curve" smooth="yes"/>
      <point x="415" y="302"/>
      <point x="489" y="199"/>
      <point x="626" y="199" type="curve"/>
      <point x="753" y="202"/>
      <point x="843" y="289"/>
    </contour>
  </outline>
</glyph>
<glyph name="h" format="1">
  <advance width="1238"/>
  <unicode hex="0068"/>
  <outline>
    <contour>
      <point x="435" y="804" type="line"/>
      <point x="453" y="852"/>
      <point x="520" y="933"/>
      <point x="611" y="991"/>
      <point x="723" y="1023"/>
      <point x="786" y="1023" type="qcurve"/>
      <point x="851" y="1023"/>
      <point x="972" y="976"/>
      <point x="1066" y="883"/>
      <point x="1122" y="743"/>
      <point x="1122" y="649" type="qcurve"/>
      <point x="1121" y="197" type="line"/>
      <point x="1121" y="102"/>
      <point x="1044" y="0"/>
      <point x="955" y="0" type="qcurve"/>
      <point x="871" y="0"/>
      <point x="802" y="102"/>
      <point x="802" y="197" type="qcurve"/>
      <point x="802" y="635" type="line"/>
      <point x="802" y="682"/>
      <point x="777" y="753"/>
      <point x="734" y="801"/>
      <point x="674" y="825"/>
      <point x="640" y="825" type="qcurve"/>
      <point x="599" y="825"/>
      <point x="525" y="798"/>
      <point x="469" y="744"/>
      <point x="436" y="663"/>
      <point x="436" y="608" type="qcurve"/>
      <point x="436" y="197" type="line"/>
      <point x="436" y="102"/>
      <point x="359" y="0"/>
      <point x="270" y="0" type="qcurve"/>
      <point x="186" y="0"/>
      <point x="117" y="102"/>
      <point x="117" y="197" type="qcurve"/>
      <point x="116" y="1255" type="line"/>
      <point x="116" y="1350"/>
      <point x="185" y="1452"/>
      <point x="269" y="1452" type="qcurve"/>
      <point x="358" y="1452"/>
      <point x="435" y="1350"/>
      <point x="435" y="1255" type="qcurve"/>
    </contour>
  </outline>
</glyph>
<glyph name="i" format="1">
  <advance width="554"/>
  <unicode hex="0069"/>
  <outline>
    <contour>
      <point x="451" y="1362" type="qcurve"/>
      <point x="451" y="1329"/>
      <point x="421" y="1278"/>
      <point x="373" y="1244"/>
      <point x="310" y="1227"/>
      <point x="277" y="1227" type="qcurve"/>
      <point x="242" y="1227"/>
      <point x="179" y="1245"/>
      <point x="131" y="1280"/>
      <point x="103" y="1330"/>
      <point x="103" y="1362" type="qcurve"/>
      <point x="103" y="1391"/>
      <point x="130" y="1440"/>
      <point x="176" y="1476"/>
      <point x="240" y="1496"/>
      <point x="278" y="1496" type="qcurve"/>
      <point x="311" y="1496"/>
      <point x="374" y="1478"/>
      <point x="422" y="1444"/>
      <point x="451" y="1394"/>
    </contour>
    <contour>
      <point x="436" y="197" type="line"/>
      <point x="436" y="102"/>
      <point x="359" y="0"/>
      <point x="270" y="0" type="qcurve"/>
      <point x="186" y="0"/>
      <point x="117" y="102"/>
      <point x="117" y="197" type="qcurve"/>
      <point x="117" y="809" type="line"/>
      <point x="117" y="904"/>
      <point x="186" y="1006"/>
      <point x="270" y="1006" type="qcurve"/>
      <point x="359" y="1006"/>
      <point x="436" y="904"/>
      <point x="436" y="809" type="qcurve"/>
    </contour>
  </outline>
</glyph>
<glyph name="j" format="1">
  <advance width="568"/>
  <unicode hex="006A"/>
  <outline>
    <contour>
      <point x="119" y="-385" type="curve" smooth="yes"/>
      <point x="380" y="-385"/>
      <point x="450" y="-276"/>
      <point x="450" y="-17" type="curve" smooth="yes"/>
      <point x="450" y="809" type="line" smooth="yes"/>
      <point x="450" y="936"/>
      <point x="403" y="1006"/>
      <point x="284" y="1006" type="curve" smooth="yes"/>
      <point x="172" y="1006"/>
      <point x="131" y="936"/>
      <point x="131" y="809" type="curve" smooth="yes"/>
      <point x="131" y="26" type="line" smooth="yes"/>
      <point x="131" y="-141"/>
      <point x="124" y="-166"/>
      <point x="32" y="-169" type="curve"/>
      <point x="-31" y="-169"/>
      <point x="-62" y="-207"/>
      <point x="-62" y="-272" type="curve" smooth="yes"/>
      <point x="-62.0" y="-311.373966157"/>
      <point x="-46.8576520618" y="-348.521116442"/>
      <point x="6.90706840372" y="-368.877891297" type="curve" smooth="yes"/>
      <point x="33.7062031206" y="-379.024767298"/>
      <point x="70.1012377143" y="-385.0"/>
    </contour>
    <contour>
      <point x="291" y="1227" type="curve" smooth="yes"/>
      <point x="376" y="1227"/>
      <point x="465" y="1272"/>
      <point x="465" y="1362" type="curve" smooth="yes"/>
      <point x="465" y="1447"/>
      <point x="379" y="1496"/>
      <point x="292" y="1496" type="curve" smooth="yes"/>
      <point x="192" y="1496"/>
      <point x="117" y="1439"/>
      <point x="117" y="1362" type="curve" smooth="yes"/>
      <point x="117" y="1277"/>
      <point x="198" y="1227"/>
    </contour>
  </outline>
</glyph>
<glyph name="k" format="1">
  <advance width="1111"/>
  <unicode hex="006B"/>
  <outline>
    <contour>
      <point x="442" y="611" type="line"/>
      <point x="512" y="685"/>
      <point x="650" y="832"/>
      <point x="720" y="907" type="qcurve"/>
      <point x="762" y="954"/>
      <point x="853" y="1017"/>
      <point x="896" y="1017" type="qcurve"/>
      <point x="923" y="1017"/>
      <point x="975" y="996"/>
      <point x="1016" y="960"/>
      <point x="1041" y="914"/>
      <point x="1041" y="889" type="qcurve"/>
      <point x="1041" y="859"/>
      <point x="1001" y="811"/>
      <point x="978" y="789" type="qcurve"/>
      <point x="919" y="733"/>
      <point x="800" y="625"/>
      <point x="740" y="568" type="qcurve"/>
      <point x="1003" y="249" type="line"/>
      <point x="1028" y="219"/>
      <point x="1069" y="159"/>
      <point x="1069" y="131" type="qcurve"/>
      <point x="1069" y="105"/>
      <point x="1046" y="59"/>
      <point x="1008" y="25"/>
      <point x="959" y="5"/>
      <point x="933" y="5" type="qcurve"/>
      <point x="911" y="5"/>
      <point x="857" y="27"/>
      <point x="802" y="64"/>
      <point x="749" y="115"/>
      <point x="729" y="145" type="qcurve"/>
      <point x="657" y="242"/>
      <point x="514" y="434"/>
      <point x="442" y="531" type="qcurve"/>
      <point x="442" y="197" type="line"/>
      <point x="442" y="102"/>
      <point x="365" y="0"/>
      <point x="276" y="0" type="qcurve"/>
      <point x="192" y="0"/>
      <point x="123" y="102"/>
      <point x="123" y="197" type="qcurve"/>
      <point x="123" y="1255" type="line"/>
      <point x="123" y="1350"/>
      <point x="192" y="1452"/>
      <point x="276" y="1452" type="qcurve"/>
      <point x="365" y="1452"/>
      <point x="442" y="1350"/>
      <point x="442" y="1255" type="qcurve"/>
    </contour>
  </outline>
</glyph>
<glyph name="l" format="1">
  <advance width="554"/>
  <unicode hex="006C"/>
  <outline>
    <contour>
      <point x="436" y="197" type="line" smooth="yes"/>
      <point x="436" y="70"/>
      <point x="389" y="0"/>
      <point x="270" y="0" type="curve" smooth="yes"/>
      <point x="158" y="0"/>
      <point x="117" y="70"/>
      <point x="117" y="197" type="curve" smooth="yes"/>
      <point x="117" y="1254" type="line" smooth="yes"/>
      <point x="117" y="1381"/>
      <point x="158" y="1451"/>
      <point x="270" y="1451" type="curve" smooth="yes"/>
      <point x="389" y="1451"/>
      <point x="436" y="1381"/>
      <point x="436" y="1254" type="curve" smooth="yes"/>
    </contour>
  </outline>
</glyph>
<glyph name="m" format="1">
  <advance width="1919"/>
  <unicode hex="006D"/>
  <outline>
    <contour>
      <point x="121" y="809" type="line" smooth="yes"/>
      <point x="121" y="936"/>
      <point x="162" y="1006"/>
      <point x="274" y="1006" type="curve" smooth="yes"/>
      <point x="393" y="1006"/>
      <point x="440" y="936"/>
      <point x="440" y="809" type="curve"/>
      <point x="493" y="937"/>
      <point x="630" y="1023"/>
      <point x="778" y="1023" type="curve" smooth="yes"/>
      <point x="917" y="1023"/>
      <point x="1054" y="952"/>
      <point x="1102" y="784" type="curve"/>
      <point x="1185" y="964"/>
      <point x="1332" y="1023"/>
      <point x="1476" y="1023" type="curve" smooth="yes"/>
      <point x="1647" y="1023"/>
      <point x="1799" y="901"/>
      <point x="1799" y="649" type="curve" smooth="yes"/>
      <point x="1799" y="197" type="line" smooth="yes"/>
      <point x="1799" y="70"/>
      <point x="1752" y="0"/>
      <point x="1633" y="0" type="curve" smooth="yes"/>
      <point x="1521" y="0"/>
      <point x="1480" y="70"/>
      <point x="1480" y="197" type="curve" smooth="yes"/>
      <point x="1480" y="635" type="line" smooth="yes"/>
      <point x="1480" y="756"/>
      <point x="1411" y="825"/>
      <point x="1322" y="825" type="curve" smooth="yes"/>
      <point x="1213" y="825"/>
      <point x="1119" y="758"/>
      <point x="1119" y="602" type="curve" smooth="yes"/>
      <point x="1119" y="197" type="line" smooth="yes"/>
      <point x="1119" y="70"/>
      <point x="1072" y="0"/>
      <point x="953" y="0" type="curve" smooth="yes"/>
      <point x="841" y="0"/>
      <point x="800" y="70"/>
      <point x="800" y="197" type="curve" smooth="yes"/>
      <point x="800" y="616" type="line" smooth="yes"/>
      <point x="800" y="753"/>
      <point x="739" y="825"/>
      <point x="642" y="825" type="curve" smooth="yes"/>
      <point x="527" y="825"/>
      <point x="440" y="750"/>
      <point x="440" y="611" type="curve" smooth="yes"/>
      <point x="440" y="197" type="line" smooth="yes"/>
      <point x="440" y="70"/>
      <point x="393" y="0"/>
      <point x="274" y="0" type="curve" smooth="yes"/>
      <point x="162" y="0"/>
      <point x="121" y="70"/>
      <point x="121" y="197" type="curve" smooth="yes"/>
    </contour>
  </outline>
</glyph>
<glyph name="n" format="1">
  <advance width="1238"/>
  <unicode hex="006E"/>
  <outline>
    <contour>
      <point x="788" y="1023" type="curve" smooth="yes"/>
      <point x="623" y="1023"/>
      <point x="483" y="937"/>
      <point x="435" y="809" type="curve"/>
      <point x="435.0" y="819.233471207"/>
      <point x="434.694833849" y="829.096847295"/>
      <point x="434.071421848" y="838.583326821" type="curve" smooth="yes"/>
      <point x="426.958131165" y="946.826489104"/>
      <point x="378.4111569" y="1006.0"/>
      <point x="269" y="1006" type="curve" smooth="yes"/>
      <point x="157" y="1006"/>
      <point x="116" y="936"/>
      <point x="116" y="809" type="curve" smooth="yes"/>
      <point x="117" y="197" type="line" smooth="yes"/>
      <point x="117" y="70"/>
      <point x="158" y="0"/>
      <point x="270" y="0" type="curve" smooth="yes"/>
      <point x="389" y="0"/>
      <point x="436" y="70"/>
      <point x="436" y="197" type="curve" smooth="yes"/>
      <point x="436" y="611" type="line" smooth="yes"/>
      <point x="436" y="752"/>
      <point x="527" y="825"/>
      <point x="640" y="825" type="curve" smooth="yes"/>
      <point x="731" y="825"/>
      <point x="802" y="762"/>
      <point x="802" y="635" type="curve" smooth="yes"/>
      <point x="802" y="197" type="line" smooth="yes"/>
      <point x="802" y="70"/>
      <point x="843" y="0"/>
      <point x="955" y="0" type="curve" smooth="yes"/>
      <point x="1074" y="0"/>
      <point x="1121" y="70"/>
      <point x="1121" y="197" type="curve" smooth="yes"/>
      <point x="1121" y="649" type="line" smooth="yes"/>
      <point x="1121" y="901"/>
      <point x="960" y="1023"/>
    </contour>
  </outline>
</glyph>
<glyph name="o" format="1">
  <advance width="1258"/>
  <unicode hex="006F"/>
  <outline>
    <contour>
      <point x="71" y="504" type="qcurve"/>
      <point x="71" y="610"/>
      <point x="140" y="799"/>
      <point x="279" y="941"/>
      <point x="488" y="1025"/>
      <point x="629" y="1025" type="qcurve"/>
      <point x="764" y="1025"/>
      <point x="972" y="947"/>
      <point x="1114" y="808"/>
      <point x="1188" y="617"/>
      <point x="1188" y="504" type="qcurve"/>
      <point x="1188" y="399"/>
      <point x="1118" y="212"/>
      <point x="978" y="71"/>
      <point x="768" y="-12"/>
      <point x="629" y="-12" type="qcurve"/>
      <point x="492" y="-12"/>
      <point x="283" y="67"/>
      <point x="142" y="206"/>
      <point x="71" y="395"/>
    </contour>
    <contour>
      <point x="404" y="504" type="qcurve"/>
      <point x="404" y="438"/>
      <point x="428" y="319"/>
      <point x="481" y="229"/>
      <point x="567" y="176"/>
      <point x="629" y="176" type="qcurve"/>
      <point x="686" y="176"/>
      <point x="771" y="224"/>
      <point x="826" y="310"/>
      <point x="854" y="431"/>
      <point x="854" y="504" type="qcurve"/>
      <point x="854" y="570"/>
      <point x="829" y="689"/>
      <point x="775" y="780"/>
      <point x="690" y="833"/>
      <point x="629" y="833" type="qcurve"/>
      <point x="568" y="833"/>
      <point x="482" y="781"/>
      <point x="428" y="691"/>
      <point x="404" y="571"/>
    </contour>
  </outline>
</glyph>
<glyph name="p" format="1">
  <advance width="1258"/>
  <unicode hex="0070"/>
  <outline>
    <contour>
      <point x="434" y="506" type="qcurve"/>
      <point x="434" y="439"/>
      <point x="455" y="323"/>
      <point x="506" y="236"/>
      <point x="591" y="186"/>
      <point x="654" y="186" type="qcurve"/>
      <point x="712" y="186"/>
      <point x="791" y="235"/>
      <point x="839" y="322"/>
      <point x="860" y="440"/>
      <point x="860" y="509" type="qcurve"/>
      <point x="860" y="564"/>
      <point x="844" y="679"/>
      <point x="800" y="773"/>
      <point x="722" y="833"/>
      <point x="659" y="833" type="qcurve"/>
      <point x="596" y="833"/>
      <point x="509" y="793"/>
      <point x="456" y="711"/>
      <point x="434" y="588"/>
    </contour>
    <contour>
      <point x="433" y="809" type="qcurve"/>
      <point x="458" y="862"/>
      <point x="536" y="942"/>
      <point x="630" y="996"/>
      <point x="733" y="1023"/>
      <point x="784" y="1023" type="qcurve"/>
      <point x="876" y="1023"/>
      <point x="1024" y="941"/>
      <point x="1129" y="800"/>
      <point x="1185" y="609"/>
      <point x="1185" y="500" type="qcurve"/>
      <point x="1185" y="387"/>
      <point x="1126" y="199"/>
      <point x="1019" y="64"/>
      <point x="870" y="-12"/>
      <point x="779" y="-12" type="qcurve"/>
      <point x="667" y="-12"/>
      <point x="491" y="92"/>
      <point x="433" y="186" type="qcurve"/>
      <point x="433" y="-174" type="line"/>
      <point x="433" y="-269"/>
      <point x="356" y="-371"/>
      <point x="267" y="-371" type="qcurve"/>
      <point x="183" y="-371"/>
      <point x="114" y="-269"/>
      <point x="114" y="-174" type="qcurve"/>
      <point x="114" y="809" type="line"/>
      <point x="114" y="904"/>
      <point x="183" y="1006"/>
      <point x="267" y="1006" type="qcurve"/>
      <point x="356" y="1006"/>
      <point x="433" y="904"/>
    </contour>
  </outline>
</glyph>
<glyph name="q" format="1">
  <advance width="1258"/>
  <unicode hex="0071"/>
  <outline>
    <contour>
      <point x="823" y="506" type="qcurve"/>
      <point x="823" y="588"/>
      <point x="802" y="710"/>
      <point x="752" y="792"/>
      <point x="667" y="833"/>
      <point x="604" y="833" type="qcurve"/>
      <point x="543" y="833"/>
      <point x="463" y="776"/>
      <point x="416" y="683"/>
      <point x="397" y="567"/>
      <point x="397" y="509" type="qcurve"/>
      <point x="397" y="450"/>
      <point x="414" y="335"/>
      <point x="459" y="243"/>
      <point x="540" y="187"/>
      <point x="604" y="187" type="qcurve"/>
      <point x="663" y="187"/>
      <point x="746" y="233"/>
      <point x="799" y="317"/>
      <point x="823" y="435"/>
    </contour>
    <contour>
      <point x="824" y="809" type="qcurve"/>
      <point x="824" y="904"/>
      <point x="893" y="1006"/>
      <point x="977" y="1006" type="qcurve"/>
      <point x="1066" y="1006"/>
      <point x="1143" y="904"/>
      <point x="1143" y="809" type="qcurve"/>
      <point x="1142" y="-150" type="line"/>
      <point x="1142" y="-245"/>
      <point x="1065" y="-347"/>
      <point x="976" y="-347" type="qcurve"/>
      <point x="892" y="-347"/>
      <point x="823" y="-245"/>
      <point x="823" y="-150" type="qcurve"/>
      <point x="823" y="186" type="line"/>
      <point x="766" y="95"/>
      <point x="592" y="-12"/>
      <point x="476" y="-12" type="qcurve"/>
      <point x="390" y="-12"/>
      <point x="243" y="59"/>
      <point x="134" y="191"/>
      <point x="72" y="381"/>
      <point x="72" y="500" type="qcurve"/>
      <point x="72" y="603"/>
      <point x="125" y="793"/>
      <point x="226" y="937"/>
      <point x="373" y="1023"/>
      <point x="468" y="1023" type="qcurve"/>
      <point x="580" y="1023"/>
      <point x="768" y="914"/>
    </contour>
  </outline>
</glyph>
<glyph name="r" format="1">
  <advance width="824"/>
  <unicode hex="0072"/>
  <outline>
    <contour>
      <point x="436" y="197" type="line"/>
      <point x="436" y="102"/>
      <point x="359" y="0"/>
      <point x="270" y="0" type="qcurve"/>
      <point x="186" y="0"/>
      <point x="117" y="102"/>
      <point x="117" y="197" type="qcurve"/>
      <point x="117" y="857" type="line"/>
      <point x="117" y="894"/>
      <point x="144" y="950"/>
      <point x="189" y="986"/>
      <point x="247" y="1006"/>
      <point x="279" y="1006" type="qcurve"/>
      <point x="357" y="1006"/>
      <point x="436" y="906"/>
      <point x="436" y="807" type="qcurve"/>
      <point x="453" y="908"/>
      <point x="583" y="1023"/>
      <point x="685" y="1023" type="qcurve"/>
      <point x="716" y="1023"/>
      <point x="764" y="1002"/>
      <point x="796" y="968"/>
      <point x="812" y="924"/>
      <point x="812" y="902" type="qcurve"/>
      <point x="812" y="838"/>
      <point x="723" y="777"/>
      <point x="648" y="772" type="qcurve"/>
      <point x="603" y="768"/>
      <point x="526" y="742"/>
      <point x="469" y="691"/>
      <point x="436" y="611"/>
      <point x="436" y="553" type="qcurve"/>
    </contour>
  </outline>
</glyph>
<glyph name="s" format="1">
  <advance width="1071"/>
  <unicode hex="0073"/>
  <outline>
    <contour>
      <point x="569" y="-12" type="curve"/>
      <point x="830" y="-9"/>
      <point x="1010" y="112"/>
      <point x="1010" y="318" type="curve" smooth="yes"/>
      <point x="1010" y="509.374"/>
      <point x="840.114" y="566.88"/>
      <point x="657.549" y="607.726" type="curve" smooth="yes"/>
      <point x="604.484" y="619.599"/>
      <point x="550.347" y="630.064"/>
      <point x="499" y="642" type="curve" smooth="yes"/>
      <point x="419" y="660"/>
      <point x="371" y="686"/>
      <point x="371" y="738" type="curve" smooth="yes"/>
      <point x="371" y="807"/>
      <point x="451" y="826"/>
      <point x="574" y="826" type="curve" smooth="yes"/>
      <point x="692.153" y="826"/>
      <point x="751.261" y="799.935"/>
      <point x="795.552" y="785.826" type="curve" smooth="yes"/>
      <point x="811.988" y="780.59"/>
      <point x="826.384" y="777"/>
      <point x="841" y="777" type="curve" smooth="yes"/>
      <point x="892" y="777"/>
      <point x="933" y="806"/>
      <point x="933" y="861" type="curve" smooth="yes"/>
      <point x="933" y="900.081"/>
      <point x="910.924" y="934.292"/>
      <point x="868.015" y="961.213" type="curve" smooth="yes"/>
      <point x="804.422" y="1001.11"/>
      <point x="695.068" y="1025"/>
      <point x="544" y="1025" type="curve" smooth="yes"/>
      <point x="262" y="1025"/>
      <point x="89" y="919"/>
      <point x="89" y="734" type="curve" smooth="yes"/>
      <point x="89" y="534.054"/>
      <point x="230.284" y="480.349"/>
      <point x="441.147" y="431.425" type="curve" smooth="yes"/>
      <point x="498.152" y="418.199"/>
      <point x="560.242" y="405.322"/>
      <point x="626" y="390" type="curve"/>
      <point x="687" y="373"/>
      <point x="723" y="342"/>
      <point x="723" y="305" type="curve" smooth="yes"/>
      <point x="723" y="210.374"/>
      <point x="645.997" y="183"/>
      <point x="560" y="183" type="curve" smooth="yes"/>
      <point x="439.951" y="183"/>
      <point x="329.976" y="226.966"/>
      <point x="248.576" y="252.942" type="curve" smooth="yes"/>
      <point x="224.234" y="260.711"/>
      <point x="203.258" y="266"/>
      <point x="187" y="266" type="curve" smooth="yes"/>
      <point x="131" y="266"/>
      <point x="91" y="234"/>
      <point x="91" y="178" type="curve" smooth="yes"/>
      <point x="91" y="140.711"/>
      <point x="110.605" y="109.023"/>
      <point x="144.498" y="82.8373" type="curve" smooth="yes"/>
      <point x="226.949" y="19.1379"/>
      <point x="393.957" y="-12"/>
    </contour>
  </outline>
</glyph>
<glyph name="t" format="1">
  <advance width="785"/>
  <unicode hex="0074"/>
  <outline>
    <contour>
      <point x="212" y="1010" type="line"/>
      <point x="234" y="1217" type="line" smooth="yes"/>
      <point x="242" y="1296"/>
      <point x="267" y="1388"/>
      <point x="386" y="1388" type="curve" smooth="yes"/>
      <point x="474" y="1388"/>
      <point x="511" y="1326"/>
      <point x="511" y="1205" type="curve" smooth="yes"/>
      <point x="511" y="1010" type="line"/>
      <point x="623" y="1010" type="line" smooth="yes"/>
      <point x="691" y="1010"/>
      <point x="738" y="977"/>
      <point x="738" y="904" type="curve" smooth="yes"/>
      <point x="738" y="836"/>
      <point x="689" y="802"/>
      <point x="612" y="802" type="curve" smooth="yes"/>
      <point x="511" y="802" type="line"/>
      <point x="511" y="424" type="line" smooth="yes"/>
      <point x="511" y="263"/>
      <point x="514" y="204"/>
      <point x="622" y="204" type="curve" smooth="yes"/>
      <point x="700" y="204"/>
      <point x="773" y="197"/>
      <point x="773" y="106" type="curve" smooth="yes"/>
      <point x="773" y="6"/>
      <point x="667" y="-12"/>
      <point x="504" y="-12" type="curve"/>
      <point x="317" y="-9"/>
      <point x="191" y="88"/>
      <point x="191" y="356" type="curve" smooth="yes"/>
      <point x="191" y="802" type="line"/>
      <point x="145" y="802" type="line" smooth="yes"/>
      <point x="73" y="802"/>
      <point x="19" y="834"/>
      <point x="19" y="910" type="curve" smooth="yes"/>
      <point x="19" y="970"/>
      <point x="57" y="1010"/>
      <point x="134" y="1010" type="curve" smooth="yes"/>
    </contour>
  </outline>
</glyph>
<glyph name="u" format="1">
  <advance width="1238"/>
  <unicode hex="0075"/>
  <outline>
    <contour>
      <point x="481" y="-10" type="curve" smooth="yes"/>
      <point x="645" y="-10"/>
      <point x="768" y="61"/>
      <point x="803" y="189" type="curve"/>
      <point x="803" y="178"/>
      <point x="803.294212337" y="175.892497169"/>
      <point x="803.900873313" y="165.960188512" type="curve" smooth="yes"/>
      <point x="810.455770911" y="58.6428091656"/>
      <point x="853.487603664" y="2.13162820728e-14"/>
      <point x="956" y="0" type="curve" smooth="yes"/>
      <point x="1075" y="0"/>
      <point x="1122" y="70"/>
      <point x="1122" y="197" type="curve" smooth="yes"/>
      <point x="1122" y="809" type="line" smooth="yes"/>
      <point x="1122" y="936"/>
      <point x="1081" y="1006"/>
      <point x="962" y="1006" type="curve" smooth="yes"/>
      <point x="850" y="1006"/>
      <point x="803" y="936"/>
      <point x="803" y="809" type="curve" smooth="yes"/>
      <point x="803" y="465" type="line"/>
      <point x="803" y="305"/>
      <point x="702" y="219"/>
      <point x="595" y="219" type="curve" smooth="yes"/>
      <point x="504" y="219"/>
      <point x="436" y="281"/>
      <point x="436" y="406" type="curve" smooth="yes"/>
      <point x="436" y="809" type="line" smooth="yes"/>
      <point x="436" y="936"/>
      <point x="396" y="1006"/>
      <point x="277" y="1006" type="curve" smooth="yes"/>
      <point x="165" y="1006"/>
      <point x="117" y="936"/>
      <point x="117" y="809" type="curve" smooth="yes"/>
      <point x="117" y="406" type="line" smooth="yes"/>
      <point x="117" y="109"/>
      <point x="302" y="-10"/>
    </contour>
  </outline>
</glyph>
<glyph name="v" format="1">
  <advance width="1117"/>
  <unicode hex="0076"/>
  <outline>
    <contour>
      <point x="827" y="222" type="curve"/>
      <point x="771" y="61"/>
      <point x="693" y="0"/>
      <point x="560" y="0" type="curve" smooth="yes"/>
      <point x="402" y="0"/>
      <point x="337" y="100"/>
      <point x="257" y="316" type="curve" smooth="yes"/>
      <point x="96" y="748" type="line"/>
      <point x="81" y="785"/>
      <point x="59" y="832"/>
      <point x="59" y="868" type="curve" smooth="yes"/>
      <point x="59" y="951"/>
      <point x="122" y="1006"/>
      <point x="202" y="1006" type="curve" smooth="yes"/>
      <point x="296" y="1006"/>
      <point x="372" y="877"/>
      <point x="396" y="785" type="curve"/>
      <point x="560" y="276" type="line"/>
      <point x="735" y="822" type="line"/>
      <point x="764" y="923"/>
      <point x="816" y="1006"/>
      <point x="906" y="1006" type="curve" smooth="yes"/>
      <point x="983" y="1006"/>
      <point x="1055" y="958"/>
      <point x="1055" y="868" type="curve" smooth="yes"/>
      <point x="1055" y="833"/>
      <point x="1034" y="785"/>
      <point x="1021" y="748" type="curve" smooth="yes"/>
      <point x="957" y="571"/>
      <point x="892" y="398"/>
    </contour>
  </outline>
</glyph>
<glyph name="w" format="1">
  <advance width="1769"/>
  <unicode hex="0077"/>
  <outline>
    <contour>
      <point x="891" y="767" type="line"/>
      <point x="746" y="312" type="line"/>
      <point x="722" y="235"/>
      <point x="670" y="118"/>
      <point x="607" y="40"/>
      <point x="527" y="0"/>
      <point x="475" y="0" type="qcurve"/>
      <point x="433" y="0"/>
      <point x="366" y="29"/>
      <point x="311" y="91"/>
      <point x="266" y="189"/>
      <point x="246" y="258" type="qcurve"/>
      <point x="108" y="720" type="line"/>
      <point x="97" y="754"/>
      <point x="70" y="829"/>
      <point x="70" y="862" type="qcurve"/>
      <point x="70" y="895"/>
      <point x="89" y="948"/>
      <point x="122" y="985"/>
      <point x="168" y="1006"/>
      <point x="195" y="1006" type="qcurve"/>
      <point x="227" y="1006"/>
      <point x="280" y="981"/>
      <point x="321" y="938"/>
      <point x="350" y="878"/>
      <point x="358" y="843" type="qcurve"/>
      <point x="507" y="270" type="line"/>
      <point x="670" y="768" type="line"/>
      <point x="685" y="817"/>
      <point x="718" y="905"/>
      <point x="768" y="971"/>
      <point x="839" y="1010"/>
      <point x="892" y="1010" type="qcurve"/>
      <point x="941" y="1010"/>
      <point x="1009" y="983"/>
      <point x="1058" y="929"/>
      <point x="1093" y="847"/>
      <point x="1108" y="793" type="qcurve"/>
      <point x="1263" y="278" type="line"/>
      <point x="1298" y="408"/>
      <point x="1369" y="665"/>
      <point x="1404" y="795" type="qcurve"/>
      <point x="1414" y="835"/>
      <point x="1442" y="912"/>
      <point x="1482" y="973"/>
      <point x="1536" y="1010"/>
      <point x="1573" y="1010" type="qcurve"/>
      <point x="1633" y="1010"/>
      <point x="1699" y="935"/>
      <point x="1699" y="875" type="qcurve"/>
      <point x="1699" y="846"/>
      <point x="1679" y="776"/>
      <point x="1668" y="744" type="qcurve"/>
      <point x="1519" y="284" type="line"/>
      <point x="1501" y="227"/>
      <point x="1459" y="124"/>
      <point x="1404" y="46"/>
      <point x="1331" y="0"/>
      <point x="1280" y="0" type="qcurve"/>
      <point x="1235" y="0"/>
      <point x="1164" y="30"/>
      <point x="1106" y="102"/>
      <point x="1054" y="222"/>
      <point x="1028" y="313" type="qcurve"/>
    </contour>
  </outline>
</glyph>
<glyph name="x" format="1">
  <advance width="1126"/>
  <unicode hex="0078"/>
  <outline>
    <contour>
      <point x="354" y="519" type="line"/>
      <point x="309" y="573"/>
      <point x="224" y="679"/>
      <point x="181" y="733" type="qcurve"/>
      <point x="153" y="767"/>
      <point x="111" y="841"/>
      <point x="111" y="873" type="qcurve"/>
      <point x="111" y="901"/>
      <point x="136" y="950"/>
      <point x="178" y="986"/>
      <point x="233" y="1006"/>
      <point x="263" y="1006" type="qcurve"/>
      <point x="305" y="1006"/>
      <point x="380" y="947"/>
      <point x="411" y="904" type="qcurve"/>
      <point x="566" y="690" type="line"/>
      <point x="596" y="729"/>
      <point x="656" y="817"/>
      <point x="720" y="899"/>
      <point x="786" y="966"/>
      <point x="822" y="983" type="qcurve"/>
      <point x="836" y="994"/>
      <point x="867" y="1004"/>
      <point x="883" y="1004" type="qcurve"/>
      <point x="909" y="1004"/>
      <point x="958" y="984"/>
      <point x="995" y="950"/>
      <point x="1017" y="905"/>
      <point x="1017" y="880" type="qcurve"/>
      <point x="1017" y="847"/>
      <point x="974" y="775"/>
      <point x="948" y="740" type="qcurve"/>
      <point x="773" y="521" type="line"/>
      <point x="822" y="459"/>
      <point x="919" y="336"/>
      <point x="969" y="274" type="qcurve"/>
      <point x="996" y="239"/>
      <point x="1039" y="165"/>
      <point x="1039" y="133" type="qcurve"/>
      <point x="1039" y="108"/>
      <point x="1016" y="62"/>
      <point x="979" y="26"/>
      <point x="929" y="5"/>
      <point x="902" y="5" type="qcurve"/>
      <point x="884" y="5"/>
      <point x="839" y="21"/>
      <point x="792" y="49"/>
      <point x="747" y="90"/>
      <point x="729" y="116" type="qcurve"/>
      <point x="557" y="348" type="line"/>
      <point x="384" y="115" type="line"/>
      <point x="366" y="90"/>
      <point x="323" y="49"/>
      <point x="278" y="21"/>
      <point x="236" y="5"/>
      <point x="218" y="5" type="qcurve"/>
      <point x="192" y="5"/>
      <point x="144" y="26"/>
      <point x="108" y="62"/>
      <point x="86" y="107"/>
      <point x="86" y="131" type="qcurve"/>
      <point x="86" y="146"/>
      <point x="99" y="183"/>
      <point x="120" y="222"/>
      <point x="148" y="262"/>
      <point x="162" y="280" type="qcurve"/>
    </contour>
  </outline>
</glyph>
<glyph name="y" format="1">
  <advance width="1091"/>
  <unicode hex="0079"/>
  <outline>
    <contour>
      <point x="454" y="-431" type="curve" smooth="yes"/>
      <point x="534" y="-431"/>
      <point x="581" y="-351"/>
      <point x="615" y="-264" type="curve" smooth="yes"/>
      <point x="1016" y="754" type="line" smooth="yes"/>
      <point x="1031" y="791"/>
      <point x="1051" y="836"/>
      <point x="1051" y="871" type="curve" smooth="yes"/>
      <point x="1051" y="940"/>
      <point x="993" y="1005"/>
      <point x="924" y="1005" type="curve" smooth="yes"/>
      <point x="849.447" y="1005"/>
      <point x="785.642" y="932.38"/>
      <point x="748" y="826" type="curve"/>
      <point x="550" y="301" type="line"/>
      <point x="550" y="301"/>
      <point x="343.248" y="859.515"/>
      <point x="334.683" y="877.085" type="curve" smooth="yes"/>
      <point x="300.511" y="947.181"/>
      <point x="253.165" y="1006"/>
      <point x="186" y="1006" type="curve" smooth="yes"/>
      <point x="110" y="1006"/>
      <point x="47" y="953"/>
      <point x="47" y="876" type="curve" smooth="yes"/>
      <point x="47" y="843"/>
      <point x="62" y="807"/>
      <point x="77" y="774" type="curve"/>
      <point x="403" y="13" type="line"/>
      <point x="341" y="-159" type="line" smooth="yes"/>
      <point x="326" y="-200"/>
      <point x="303" y="-249"/>
      <point x="303" y="-288" type="curve" smooth="yes"/>
      <point x="303" y="-375"/>
      <point x="371" y="-431"/>
    </contour>
  </outline>
</glyph>
<glyph name="z" format="1">
  <advance width="1007"/>
  <unicode hex="007A"/>
  <outline>
    <contour>
      <point x="832" y="228" type="line"/>
      <point x="859" y="228"/>
      <point x="901" y="208"/>
      <point x="931" y="175"/>
      <point x="946" y="135"/>
      <point x="946" y="114" type="qcurve"/>
      <point x="946" y="52"/>
      <point x="860" y="0"/>
      <point x="788" y="0" type="qcurve"/>
      <point x="214" y="0" type="line"/>
      <point x="185" y="0"/>
      <point x="132" y="11"/>
      <point x="91" y="36"/>
      <point x="67" y="79"/>
      <point x="67" y="112" type="qcurve"/>
      <point x="67" y="145"/>
      <point x="101" y="208"/>
      <point x="124" y="237" type="qcurve"/>
      <point x="550" y="780" type="line"/>
      <point x="246" y="780" type="line"/>
      <point x="213" y="780"/>
      <point x="156" y="791"/>
      <point x="114" y="818"/>
      <point x="89" y="862"/>
      <point x="89" y="895" type="qcurve"/>
      <point x="89" y="1010"/>
      <point x="246" y="1010" type="qcurve"/>
      <point x="764" y="1010" type="line"/>
      <point x="801" y="1010"/>
      <point x="866" y="1002"/>
      <point x="915" y="978"/>
      <point x="943" y="937"/>
      <point x="943" y="904" type="qcurve"/>
      <point x="942" y="872"/>
      <point x="905" y="806"/>
      <point x="883" y="777" type="qcurve"/>
      <point x="465" y="228" type="line"/>
    </contour>
  </outline>
</glyph>
<glyph name="braceleft" format="1">
  <advance width="789"/>
  <unicode hex="007B"/>
  <outline>
    <contour>
      <point x="629" y="-23" type="qcurve"/>
      <point x="657" y="-23"/>
      <point x="705" y="-35"/>
      <point x="741" y="-64"/>
      <point x="762" y="-112"/>
      <point x="762" y="-147" type="qcurve"/>
      <point x="757" y="-191"/>
      <point x="706" y="-248"/>
      <point x="650" y="-248" type="qcurve"/>
      <point x="500" y="-248" type="line"/>
      <point x="449" y="-248"/>
      <point x="355" y="-217"/>
      <point x="283" y="-156"/>
      <point x="240" y="-66"/>
      <point x="240" y="-7" type="qcurve"/>
      <point x="240" y="314" type="line"/>
      <point x="240" y="357"/>
      <point x="230" y="422"/>
      <point x="202" y="468"/>
      <point x="154" y="494"/>
      <point x="117" y="497" type="qcurve"/>
      <point x="94" y="499"/>
      <point x="53" y="513"/>
      <point x="20" y="540"/>
      <point x="1" y="583"/>
      <point x="1" y="614" type="qcurve"/>
      <point x="1" y="663"/>
      <point x="58" y="726"/>
      <point x="117" y="731" type="qcurve"/>
      <point x="186" y="736"/>
      <point x="240" y="820"/>
      <point x="240" y="915" type="qcurve"/>
      <point x="240" y="1226" type="line"/>
      <point x="240" y="1270"/>
      <point x="269" y="1360"/>
      <point x="332" y="1433"/>
      <point x="431" y="1479"/>
      <point x="500" y="1479" type="qcurve"/>
      <point x="639" y="1479" type="line"/>
      <point x="661" y="1479"/>
      <point x="704" y="1471"/>
      <point x="738" y="1446"/>
      <point x="760" y="1401"/>
      <point x="760" y="1365" type="qcurve"/>
      <point x="760" y="1311"/>
      <point x="695" y="1253"/>
      <point x="639" y="1253" type="qcurve"/>
      <point x="623" y="1253" type="line"/>
      <point x="589" y="1253"/>
      <point x="552" y="1225"/>
      <point x="535" y="1171"/>
      <point x="532" y="1090"/>
      <point x="532" y="1038" type="qcurve"/>
      <point x="532" y="877" type="line"/>
      <point x="532" y="774"/>
      <point x="448" y="647"/>
      <point x="354" y="619" type="qcurve"/>
      <point x="350" y="615"/>
      <point x="349" y="613" type="qcurve"/>
      <point x="367" y="608"/>
      <point x="429" y="580"/>
      <point x="488" y="526"/>
      <point x="532" y="440"/>
      <point x="532" y="376" type="qcurve"/>
      <point x="532" y="181" type="line"/>
      <point x="532" y="133"/>
      <point x="534" y="58"/>
      <point x="552" y="5"/>
      <point x="592" y="-23"/>
    </contour>
  </outline>
</glyph>
<glyph name="bar" format="1">
  <advance width="455"/>
  <unicode hex="007C"/>
  <outline>
    <contour>
      <point x="227" y="-252" type="curve" smooth="yes"/>
      <point x="307" y="-252"/>
      <point x="330" y="-185"/>
      <point x="330" y="-116" type="curve" smooth="yes"/>
      <point x="330" y="1327" type="line" smooth="yes"/>
      <point x="330" y="1418"/>
      <point x="312" y="1495"/>
      <point x="228" y="1495" type="curve" smooth="yes"/>
      <point x="173" y="1495"/>
      <point x="125" y="1458"/>
      <point x="125" y="1394" type="curve" smooth="yes"/>
      <point x="125" y="-83" type="line" smooth="yes"/>
      <point x="125" y="-174"/>
      <point x="142" y="-252"/>
    </contour>
  </outline>
</glyph>
<glyph name="braceright" format="1">
  <advance width="789"/>
  <unicode hex="007D"/>
  <outline>
    <contour>
      <point x="169" y="-23" type="line"/>
      <point x="199" y="-23"/>
      <point x="233" y="0"/>
      <point x="251" y="45"/>
      <point x="255" y="113"/>
      <point x="255" y="158" type="qcurve"/>
      <point x="255" y="376" type="line"/>
      <point x="255" y="435"/>
      <point x="293" y="518"/>
      <point x="350" y="574"/>
      <point x="413" y="605"/>
      <point x="439" y="613" type="qcurve"/>
      <point x="433" y="620"/>
      <point x="390" y="637"/>
      <point x="370" y="649" type="qcurve"/>
      <point x="348" y="662"/>
      <point x="307" y="700"/>
      <point x="275" y="749"/>
      <point x="255" y="813"/>
      <point x="255" y="853" type="qcurve"/>
      <point x="255" y="1050" type="line"/>
      <point x="255" y="1093"/>
      <point x="253" y="1167"/>
      <point x="236" y="1222"/>
      <point x="199" y="1253"/>
      <point x="164" y="1253" type="qcurve"/>
      <point x="147" y="1253" type="line"/>
      <point x="123" y="1253"/>
      <point x="78" y="1265"/>
      <point x="45" y="1293"/>
      <point x="25" y="1336"/>
      <point x="25" y="1368" type="qcurve"/>
      <point x="25" y="1416"/>
      <point x="80" y="1479"/>
      <point x="137" y="1479" type="qcurve"/>
      <point x="292" y="1479" type="line"/>
      <point x="341" y="1479"/>
      <point x="433" y="1447"/>
      <point x="504" y="1386"/>
      <point x="547" y="1295"/>
      <point x="547" y="1237" type="qcurve"/>
      <point x="547" y="915" type="line"/>
      <point x="547" y="870"/>
      <point x="558" y="804"/>
      <point x="585" y="759"/>
      <point x="633" y="734"/>
      <point x="670" y="731" type="qcurve"/>
      <point x="692" y="729"/>
      <point x="733" y="715"/>
      <point x="766" y="688"/>
      <point x="786" y="645"/>
      <point x="786" y="614" type="qcurve"/>
      <point x="786" y="591"/>
      <point x="772" y="550"/>
      <point x="746" y="518"/>
      <point x="708" y="499"/>
      <point x="683" y="499" type="qcurve"/>
      <point x="644" y="497"/>
      <point x="591" y="475"/>
      <point x="560" y="431"/>
      <point x="547" y="363"/>
      <point x="547" y="314" type="qcurve"/>
      <point x="547" y="4" type="line"/>
      <point x="547" y="-47"/>
      <point x="514" y="-138"/>
      <point x="449" y="-207"/>
      <point x="354" y="-248"/>
      <point x="292" y="-248" type="qcurve"/>
      <point x="137" y="-248" type="line"/>
      <point x="90" y="-248"/>
      <point x="24" y="-193"/>
      <point x="24" y="-136" type="qcurve"/>
      <point x="24" y="-113"/>
      <point x="37" y="-72"/>
      <point x="65" y="-41"/>
      <point x="107" y="-23"/>
      <point x="137" y="-23" type="qcurve"/>
    </contour>
  </outline>
</glyph>
<glyph name="asciitilde" format="1">
  <advance width="1287"/>
  <unicode hex="007E"/>
  <outline>
    <contour>
      <point x="786" y="1313" type="qcurve"/>
      <point x="800" y="1313"/>
      <point x="817" y="1329"/>
      <point x="829" y="1352"/>
      <point x="840" y="1380"/>
      <point x="859" y="1403"/>
      <point x="889" y="1419"/>
      <point x="914" y="1419" type="qcurve"/>
      <point x="928" y="1419"/>
      <point x="956" y="1408"/>
      <point x="978" y="1389"/>
      <point x="992" y="1362"/>
      <point x="992" y="1346" type="qcurve"/>
      <point x="992" y="1294"/>
      <point x="960" y="1214"/>
      <point x="906" y="1160"/>
      <point x="834" y="1133"/>
      <point x="794" y="1133" type="qcurve"/>
      <point x="750" y="1133"/>
      <point x="671" y="1165"/>
      <point x="600" y="1204"/>
      <point x="537" y="1238"/>
      <point x="509" y="1240" type="qcurve"/>
      <point x="488" y="1240"/>
      <point x="468" y="1224"/>
      <point x="451" y="1198"/>
      <point x="429" y="1165"/>
      <point x="406" y="1148" type="qcurve"/>
      <point x="396" y="1140"/>
      <point x="370" y="1136"/>
      <point x="358" y="1136" type="qcurve"/>
      <point x="327" y="1136"/>
      <point x="284" y="1176"/>
      <point x="284" y="1206" type="qcurve"/>
      <point x="284" y="1264"/>
      <point x="325" y="1345"/>
      <point x="386" y="1396"/>
      <point x="457" y="1419"/>
      <point x="487" y="1419" type="qcurve"/>
      <point x="535" y="1419"/>
      <point x="621" y="1386"/>
      <point x="696" y="1346"/>
      <point x="760" y="1313"/>
    </contour>
  </outline>
</glyph>
<glyph name="cent" format="1">
  <advance width="1063"/>
  <unicode hex="00A2"/>
  <outline>
    <contour>
      <point x="104" y="507" type="qcurve"/>
      <point x="104" y="617"/>
      <point x="176" y="799"/>
      <point x="301" y="934"/>
      <point x="468" y="1017"/>
      <point x="564" y="1029" type="qcurve"/>
      <point x="564" y="1199" type="line"/>
      <point x="564" y="1242"/>
      <point x="602" y="1285"/>
      <point x="636" y="1285" type="qcurve"/>
      <point x="663" y="1285"/>
      <point x="707" y="1249"/>
      <point x="707" y="1214" type="qcurve"/>
      <point x="707" y="1030" type="line"/>
      <point x="758" y="1025"/>
      <point x="859" y="998"/>
      <point x="939" y="955"/>
      <point x="989" y="899"/>
      <point x="989" y="866" type="qcurve"/>
      <point x="989" y="849"/>
      <point x="976" y="812"/>
      <point x="952" y="781"/>
      <point x="916" y="761"/>
      <point x="893" y="761" type="qcurve"/>
      <point x="887" y="761" type="line"/>
      <point x="834" y="772"/>
      <point x="736" y="796"/>
      <point x="688" y="796" type="qcurve"/>
      <point x="634" y="796"/>
      <point x="540" y="765"/>
      <point x="469" y="696"/>
      <point x="428" y="587"/>
      <point x="428" y="509" type="qcurve"/>
      <point x="428" y="436"/>
      <point x="465" y="327"/>
      <point x="532" y="255"/>
      <point x="628" y="220"/>
      <point x="688" y="220" type="qcurve"/>
      <point x="740" y="220"/>
      <point x="853" y="246"/>
      <point x="904" y="258" type="qcurve"/>
      <point x="909" y="258" type="line"/>
      <point x="931" y="258"/>
      <point x="966" y="238"/>
      <point x="990" y="208"/>
      <point x="1002" y="172"/>
      <point x="1002" y="155" type="qcurve"/>
      <point x="1002" y="113"/>
      <point x="941" y="52"/>
      <point x="851" y="12"/>
      <point x="749" y="-12"/>
      <point x="707" y="-16" type="qcurve"/>
      <point x="707" y="-200" type="line"/>
      <point x="707" y="-233"/>
      <point x="664" y="-271"/>
      <point x="635" y="-271" type="qcurve"/>
      <point x="606" y="-271"/>
      <point x="564" y="-234"/>
      <point x="564" y="-200" type="qcurve"/>
      <point x="564" y="-16" type="line"/>
      <point x="468" y="-7"/>
      <point x="300" y="71"/>
      <point x="175" y="204"/>
      <point x="104" y="390"/>
    </contour>
  </outline>
</glyph>
<glyph name="sterling" format="1">
  <advance width="1399"/>
  <unicode hex="00A3"/>
  <outline>
    <contour>
      <point x="195" y="671" type="line"/>
      <point x="167" y="671"/>
      <point x="125" y="689"/>
      <point x="96" y="720"/>
      <point x="82" y="761"/>
      <point x="82" y="784" type="qcurve"/>
      <point x="82" y="838"/>
      <point x="153" y="900"/>
      <point x="228" y="900" type="qcurve"/>
      <point x="278" y="900" type="line"/>
      <point x="278" y="1036" type="line"/>
      <point x="278" y="1139"/>
      <point x="336" y="1303"/>
      <point x="453" y="1418"/>
      <point x="631" y="1479"/>
      <point x="752" y="1479" type="qcurve"/>
      <point x="792" y="1479"/>
      <point x="887" y="1471"/>
      <point x="983" y="1453"/>
      <point x="1074" y="1424"/>
      <point x="1143" y="1381"/>
      <point x="1185" y="1323"/>
      <point x="1185" y="1286" type="qcurve"/>
      <point x="1185" y="1244"/>
      <point x="1127" y="1187"/>
      <point x="1069" y="1187" type="qcurve"/>
      <point x="1037" y="1187"/>
      <point x="961" y="1202"/>
      <point x="882" y="1220"/>
      <point x="807" y="1235"/>
      <point x="776" y="1235" type="qcurve"/>
      <point x="717" y="1235"/>
      <point x="650" y="1205"/>
      <point x="616" y="1141"/>
      <point x="607" y="1040"/>
      <point x="607" y="970" type="qcurve"/>
      <point x="607" y="900" type="line"/>
      <point x="824" y="900" type="line"/>
      <point x="855" y="900"/>
      <point x="909" y="889"/>
      <point x="948" y="864"/>
      <point x="970" y="822"/>
      <point x="970" y="792" type="qcurve"/>
      <point x="970" y="728"/>
      <point x="881" y="671"/>
      <point x="789" y="671" type="qcurve"/>
      <point x="607" y="671" type="line"/>
      <point x="607" y="265" type="line"/>
      <point x="1087" y="265" type="line"/>
      <point x="1126" y="265"/>
      <point x="1197" y="252"/>
      <point x="1251" y="220"/>
      <point x="1284" y="167"/>
      <point x="1284" y="128" type="qcurve"/>
      <point x="1284" y="58"/>
      <point x="1199" y="-1"/>
      <point x="1122" y="-1" type="qcurve"/>
      <point x="267" y="-1" type="line"/>
      <point x="232" y="-1"/>
      <point x="172" y="10"/>
      <point x="127" y="39"/>
      <point x="101" y="89"/>
      <point x="101" y="128" type="qcurve"/>
      <point x="101" y="155"/>
      <point x="116" y="203"/>
      <point x="149" y="239"/>
      <point x="198" y="260"/>
      <point x="233" y="260" type="qcurve"/>
      <point x="278" y="260" type="line"/>
      <point x="278" y="671" type="line"/>
    </contour>
  </outline>
</glyph>
<glyph name="currency" format="1">
  <advance width="1258"/>
  <unicode hex="00A4"/>
  <outline>
    <contour>
      <point x="636" y="198" type="curve" smooth="yes"/>
      <point x="536" y="198"/>
      <point x="454" y="221"/>
      <point x="386" y="264" type="curve"/>
      <point x="323" y="200" type="line" smooth="yes"/>
      <point x="296" y="172"/>
      <point x="278" y="158"/>
      <point x="247" y="158" type="curve"/>
      <point x="205" y="161"/>
      <point x="185" y="199"/>
      <point x="185" y="236" type="curve"/>
      <point x="187" y="251"/>
      <point x="194" y="264"/>
      <point x="205" y="275" type="curve" smooth="yes"/>
      <point x="285" y="355" type="line"/>
      <point x="225" y="428"/>
      <point x="199" y="519"/>
      <point x="199" y="614" type="curve" smooth="yes"/>
      <point x="199" y="705"/>
      <point x="225" y="793"/>
      <point x="281" y="868" type="curve"/>
      <point x="219" y="931" type="line" smooth="yes"/>
      <point x="198" y="952"/>
      <point x="185" y="967"/>
      <point x="185" y="998" type="curve" smooth="yes"/>
      <point x="185" y="1031"/>
      <point x="219" y="1061"/>
      <point x="254" y="1061" type="curve" smooth="yes"/>
      <point x="277" y="1061"/>
      <point x="295" y="1044"/>
      <point x="315" y="1027" type="curve"/>
      <point x="380" y="961" type="line"/>
      <point x="448" y="1005"/>
      <point x="531" y="1033"/>
      <point x="636" y="1033" type="curve" smooth="yes"/>
      <point x="740" y="1033"/>
      <point x="824" y="1008"/>
      <point x="892" y="961" type="curve"/>
      <point x="957" y="1027" type="line" smooth="yes"/>
      <point x="976" y="1046"/>
      <point x="1003" y="1059"/>
      <point x="1022" y="1059" type="curve" smooth="yes"/>
      <point x="1054" y="1059"/>
      <point x="1085" y="1031"/>
      <point x="1088" y="998" type="curve"/>
      <point x="1088" y="967"/>
      <point x="1074" y="951"/>
      <point x="1054" y="931" type="curve" smooth="yes"/>
      <point x="991" y="868" type="line"/>
      <point x="1047" y="796"/>
      <point x="1074" y="703"/>
      <point x="1074" y="614" type="curve" smooth="yes"/>
      <point x="1074" y="518"/>
      <point x="1046" y="430"/>
      <point x="987" y="354" type="curve"/>
      <point x="1046" y="296" type="line" smooth="yes"/>
      <point x="1073" y="269"/>
      <point x="1087" y="251"/>
      <point x="1088" y="220" type="curve"/>
      <point x="1083" y="176"/>
      <point x="1047" y="158"/>
      <point x="1010" y="158" type="curve"/>
      <point x="991" y="161"/>
      <point x="972" y="176"/>
      <point x="957" y="193" type="curve"/>
      <point x="885" y="264" type="line"/>
      <point x="818" y="220"/>
      <point x="735" y="198"/>
    </contour>
    <contour>
      <point x="636" y="907" type="curve" smooth="yes"/>
      <point x="444" y="907"/>
      <point x="351" y="758"/>
      <point x="351" y="614" type="curve" smooth="yes"/>
      <point x="351" y="467"/>
      <point x="447" y="322"/>
      <point x="636" y="322" type="curve" smooth="yes"/>
      <point x="817" y="322"/>
      <point x="921" y="458"/>
      <point x="921" y="614" type="curve" smooth="yes"/>
      <point x="921" y="759"/>
      <point x="824" y="907"/>
    </contour>
  </outline>
</glyph>
<glyph name="yen" format="1">
  <advance width="1338"/>
  <unicode hex="00A5"/>
  <outline>
    <contour>
      <point x="878" y="654" type="qcurve"/>
      <point x="1142" y="654" type="line"/>
      <point x="1174" y="654"/>
      <point x="1207" y="612"/>
      <point x="1207" y="588" type="qcurve"/>
      <point x="1207" y="562"/>
      <point x="1175" y="522"/>
      <point x="1142" y="522" type="qcurve"/>
      <point x="857" y="522" type="line"/>
      <point x="857" y="407" type="line"/>
      <point x="1142" y="407" type="line"/>
      <point x="1174" y="407"/>
      <point x="1207" y="366"/>
      <point x="1207" y="341" type="qcurve"/>
      <point x="1207" y="315"/>
      <point x="1175" y="274"/>
      <point x="1142" y="274" type="qcurve"/>
      <point x="856" y="274" type="line"/>
      <point x="856" y="223" type="line"/>
      <point x="856" y="179"/>
      <point x="838" y="99"/>
      <point x="794" y="38"/>
      <point x="723" y="2"/>
      <point x="670" y="2" type="qcurve"/>
      <point x="580" y="2"/>
      <point x="484" y="108"/>
      <point x="484" y="223" type="qcurve"/>
      <point x="484" y="274" type="line"/>
      <point x="211" y="274" type="line"/>
      <point x="177" y="274"/>
      <point x="146" y="316"/>
      <point x="146" y="342" type="qcurve"/>
      <point x="146" y="365"/>
      <point x="176" y="407"/>
      <point x="211" y="407" type="qcurve"/>
      <point x="484" y="407" type="line"/>
      <point x="484" y="522" type="line"/>
      <point x="211" y="522" type="line"/>
      <point x="177" y="522"/>
      <point x="146" y="563"/>
      <point x="146" y="589" type="qcurve"/>
      <point x="146" y="613"/>
      <point x="177" y="654"/>
      <point x="211" y="654" type="qcurve"/>
      <point x="458" y="654" type="line"/>
      <point x="144" y="1165" type="line"/>
      <point x="122" y="1200"/>
      <point x="83" y="1277"/>
      <point x="83" y="1308" type="qcurve"/>
      <point x="83" y="1337"/>
      <point x="108" y="1386"/>
      <point x="152" y="1422"/>
      <point x="208" y="1442"/>
      <point x="240" y="1442" type="qcurve"/>
      <point x="276" y="1442"/>
      <point x="345" y="1404"/>
      <point x="404" y="1347"/>
      <point x="450" y="1280"/>
      <point x="463" y="1252" type="qcurve"/>
      <point x="686" y="849" type="line"/>
      <point x="915" y="1259" type="line"/>
      <point x="935" y="1297"/>
      <point x="982" y="1365"/>
      <point x="1034" y="1415"/>
      <point x="1091" y="1444"/>
      <point x="1122" y="1444" type="qcurve"/>
      <point x="1148" y="1444"/>
      <point x="1199" y="1428"/>
      <point x="1239" y="1398"/>
      <point x="1264" y="1353"/>
      <point x="1264" y="1324" type="qcurve"/>
      <point x="1264" y="1309"/>
      <point x="1253" y="1275"/>
      <point x="1237" y="1239"/>
      <point x="1216" y="1203"/>
      <point x="1206" y="1187" type="qcurve"/>
      <point x="1124" y="1053"/>
      <point x="961" y="788"/>
    </contour>
  </outline>
</glyph>
<glyph name="brokenbar" format="1">
  <advance width="455"/>
  <unicode hex="00A6"/>
  <outline>
    <contour>
      <point x="125" y="1352" type="line"/>
      <point x="125" y="1400"/>
      <point x="184" y="1454"/>
      <point x="228" y="1454" type="qcurve"/>
      <point x="280" y="1454"/>
      <point x="330" y="1382"/>
      <point x="330" y="1325" type="qcurve"/>
      <point x="330" y="865" type="line"/>
      <point x="330" y="840"/>
      <point x="320" y="793"/>
      <point x="296" y="757"/>
      <point x="257" y="735"/>
      <point x="227" y="735" type="qcurve"/>
      <point x="174" y="735"/>
      <point x="125" y="805"/>
      <point x="125" y="865" type="qcurve"/>
    </contour>
    <contour>
      <point x="125" y="611" type="line"/>
      <point x="125" y="656"/>
      <point x="183" y="713"/>
      <point x="228" y="713" type="qcurve"/>
      <point x="280" y="713"/>
      <point x="330" y="642"/>
      <point x="330" y="582" type="qcurve"/>
      <point x="330" y="107" type="line"/>
      <point x="330" y="82"/>
      <point x="320" y="35"/>
      <point x="297" y="-1"/>
      <point x="257" y="-23"/>
      <point x="227" y="-23" type="qcurve"/>
      <point x="174" y="-23"/>
      <point x="125" y="46"/>
      <point x="125" y="107" type="qcurve"/>
    </contour>
  </outline>
</glyph>
<glyph name="section" format="1">
  <advance width="1299"/>
  <unicode hex="00A7"/>
  <outline>
    <contour>
      <point x="610" y="911" type="qcurve"/>
      <point x="580" y="893"/>
      <point x="531" y="859"/>
      <point x="496" y="824"/>
      <point x="478" y="786"/>
      <point x="478" y="762" type="qcurve"/>
      <point x="478" y="732"/>
      <point x="514" y="687"/>
      <point x="571" y="650"/>
      <point x="641" y="618"/>
      <point x="675" y="603" type="qcurve"/>
      <point x="706" y="620"/>
      <point x="760" y="655"/>
      <point x="801" y="692"/>
      <point x="824" y="734"/>
      <point x="824" y="758" type="qcurve"/>
      <point x="824" y="786"/>
      <point x="790" y="829"/>
      <point x="732" y="864"/>
      <point x="654" y="894"/>
    </contour>
    <contour>
      <point x="983" y="1477" type="qcurve"/>
      <point x="1025" y="1468"/>
      <point x="1063" y="1414"/>
      <point x="1063" y="1385" type="qcurve"/>
      <point x="1063" y="1366"/>
      <point x="1049" y="1332"/>
      <point x="1025" y="1306"/>
      <point x="990" y="1290"/>
      <point x="969" y="1290" type="qcurve"/>
      <point x="953" y="1290"/>
      <point x="938" y="1295" type="qcurve"/>
      <point x="891" y="1304" type="line"/>
      <point x="858" y="1310"/>
      <point x="797" y="1320"/>
      <point x="762" y="1320" type="qcurve"/>
      <point x="735" y="1320"/>
      <point x="679" y="1311"/>
      <point x="634" y="1288"/>
      <point x="605" y="1251"/>
      <point x="605" y="1223" type="qcurve"/>
      <point x="605" y="1191"/>
      <point x="647" y="1146"/>
      <point x="716" y="1110"/>
      <point x="804" y="1078"/>
      <point x="897" y="1042"/>
      <point x="985" y="997"/>
      <point x="1054" y="934"/>
      <point x="1096" y="848"/>
      <point x="1096" y="790" type="qcurve"/>
      <point x="1096" y="694"/>
      <point x="977" y="551"/>
      <point x="871" y="511" type="qcurve"/>
      <point x="913" y="494"/>
      <point x="981" y="448"/>
      <point x="1030" y="389"/>
      <point x="1057" y="315"/>
      <point x="1057" y="271" type="qcurve"/>
      <point x="1057" y="199"/>
      <point x="998" y="87"/>
      <point x="889" y="9"/>
      <point x="734" y="-34"/>
      <point x="638" y="-35" type="qcurve"/>
      <point x="604" y="-35" type="line"/>
      <point x="514" y="-35"/>
      <point x="337" y="-11"/>
      <point x="252" y="10" type="qcurve"/>
      <point x="210" y="21"/>
      <point x="174" y="68"/>
      <point x="174" y="97" type="qcurve"/>
      <point x="174" y="116"/>
      <point x="189" y="151"/>
      <point x="214" y="178"/>
      <point x="249" y="195"/>
      <point x="270" y="195" type="qcurve"/>
      <point x="296" y="195"/>
      <point x="363" y="173"/>
      <point x="394" y="168" type="qcurve"/>
      <point x="423" y="163"/>
      <point x="487" y="159"/>
      <point x="525" y="159" type="qcurve"/>
      <point x="558" y="159"/>
      <point x="620" y="174"/>
      <point x="669" y="206"/>
      <point x="698" y="255"/>
      <point x="698" y="289" type="qcurve"/>
      <point x="698" y="321"/>
      <point x="655" y="366"/>
      <point x="584" y="402"/>
      <point x="494" y="433"/>
      <point x="400" y="468"/>
      <point x="310" y="513"/>
      <point x="239" y="576"/>
      <point x="196" y="662"/>
      <point x="196" y="721" type="qcurve"/>
      <point x="196" y="762"/>
      <point x="229" y="843"/>
      <point x="288" y="913"/>
      <point x="372" y="968"/>
      <point x="423" y="982" type="qcurve"/>
      <point x="418" y="984"/>
      <point x="416" y="988" type="qcurve"/>
      <point x="330" y="1023"/>
      <point x="240" y="1142"/>
      <point x="240" y="1219" type="qcurve"/>
      <point x="240" y="1514"/>
      <point x="685" y="1514" type="qcurve"/>
      <point x="763" y="1514"/>
      <point x="908" y="1493"/>
    </contour>
  </outline>
</glyph>
<glyph name="dieresis" format="1">
  <advance width="569"/>
  <unicode hex="00A8"/>
  <outline>
    <contour>
      <point x="55" y="1171" type="qcurve"/>
      <point x="26" y="1171"/>
      <point x="-27" y="1192"/>
      <point x="-69" y="1229"/>
      <point x="-94" y="1282"/>
      <point x="-94" y="1314" type="qcurve"/>
      <point x="-94" y="1343"/>
      <point x="-71" y="1396"/>
      <point x="-30" y="1435"/>
      <point x="24" y="1458"/>
      <point x="55" y="1458" type="qcurve"/>
      <point x="85" y="1458"/>
      <point x="138" y="1436"/>
      <point x="179" y="1397"/>
      <point x="203" y="1344"/>
      <point x="203" y="1314" type="qcurve"/>
      <point x="203" y="1284"/>
      <point x="179" y="1231"/>
      <point x="138" y="1193"/>
      <point x="85" y="1171"/>
    </contour>
    <contour>
      <point x="515" y="1171" type="qcurve"/>
      <point x="486" y="1171"/>
      <point x="432" y="1192"/>
      <point x="391" y="1229"/>
      <point x="366" y="1282"/>
      <point x="366" y="1314" type="qcurve"/>
      <point x="366" y="1342"/>
      <point x="388" y="1395"/>
      <point x="428" y="1434"/>
      <point x="483" y="1458"/>
      <point x="515" y="1458" type="qcurve"/>
      <point x="544" y="1458"/>
      <point x="597" y="1436"/>
      <point x="638" y="1398"/>
      <point x="663" y="1345"/>
      <point x="663" y="1314" type="qcurve"/>
      <point x="663" y="1284"/>
      <point x="639" y="1231"/>
      <point x="598" y="1193"/>
      <point x="545" y="1171"/>
    </contour>
  </outline>
</glyph>
<glyph name="copyright" format="1">
  <advance width="1733"/>
  <unicode hex="00A9"/>
  <outline>
    <contour>
      <point x="874" y="67" type="qcurve"/>
      <point x="776" y="67"/>
      <point x="591" y="115"/>
      <point x="428" y="204"/>
      <point x="292" y="329"/>
      <point x="194" y="485"/>
      <point x="140" y="666"/>
      <point x="140" y="766" type="qcurve"/>
      <point x="140" y="859"/>
      <point x="190" y="1036"/>
      <point x="283" y="1192"/>
      <point x="415" y="1323"/>
      <point x="578" y="1417"/>
      <point x="769" y="1470"/>
      <point x="874" y="1470" type="qcurve"/>
      <point x="970" y="1470"/>
      <point x="1153" y="1422"/>
      <point x="1316" y="1333"/>
      <point x="1452" y="1206"/>
      <point x="1550" y="1050"/>
      <point x="1605" y="867"/>
      <point x="1605" y="766" type="qcurve"/>
      <point x="1605" y="670"/>
      <point x="1553" y="492"/>
      <point x="1457" y="336"/>
      <point x="1323" y="209"/>
      <point x="1161" y="117"/>
      <point x="974" y="67"/>
    </contour>
    <contour>
      <point x="304" y="766" type="qcurve"/>
      <point x="304" y="650"/>
      <point x="389" y="446"/>
      <point x="541" y="294"/>
      <point x="750" y="207"/>
      <point x="874" y="207" type="qcurve"/>
      <point x="990" y="207"/>
      <point x="1196" y="289"/>
      <point x="1351" y="438"/>
      <point x="1442" y="643"/>
      <point x="1442" y="766" type="qcurve"/>
      <point x="1442" y="881"/>
      <point x="1357" y="1085"/>
      <point x="1206" y="1237"/>
      <point x="997" y="1325"/>
      <point x="874" y="1325" type="qcurve"/>
      <point x="753" y="1325"/>
      <point x="545" y="1240"/>
      <point x="392" y="1090"/>
      <point x="304" y="885"/>
    </contour>
    <contour>
      <point x="975" y="517" type="qcurve"/>
      <point x="1003" y="518"/>
      <point x="1056" y="532"/>
      <point x="1084" y="546" type="qcurve"/>
      <point x="1093" y="549"/>
      <point x="1100" y="549" type="qcurve"/>
      <point x="1122" y="549"/>
      <point x="1151" y="512"/>
      <point x="1151" y="490" type="qcurve"/>
      <point x="1151" y="467"/>
      <point x="1121" y="431"/>
      <point x="1073" y="405"/>
      <point x="1013" y="387"/>
      <point x="953" y="376"/>
      <point x="898" y="371"/>
      <point x="880" y="371" type="qcurve"/>
      <point x="805" y="371"/>
      <point x="666" y="419"/>
      <point x="559" y="516"/>
      <point x="494" y="666"/>
      <point x="494" y="768" type="qcurve"/>
      <point x="494" y="865"/>
      <point x="556" y="1012"/>
      <point x="662" y="1111"/>
      <point x="803" y="1160"/>
      <point x="881" y="1160" type="qcurve"/>
      <point x="903" y="1160"/>
      <point x="959" y="1155"/>
      <point x="1019" y="1143"/>
      <point x="1076" y="1125"/>
      <point x="1121" y="1101"/>
      <point x="1149" y="1069"/>
      <point x="1149" y="1050" type="qcurve"/>
      <point x="1149" y="1026"/>
      <point x="1119" y="983"/>
      <point x="1093" y="983" type="qcurve"/>
      <point x="1084" y="983"/>
      <point x="1055" y="992"/>
      <point x="1023" y="1003"/>
      <point x="991" y="1015"/>
      <point x="978" y="1018" type="qcurve"/>
      <point x="936" y="1027"/>
      <point x="897" y="1027" type="qcurve"/>
      <point x="848" y="1027"/>
      <point x="762" y="999"/>
      <point x="698" y="938"/>
      <point x="661" y="840"/>
      <point x="661" y="770" type="qcurve"/>
      <point x="661" y="706"/>
      <point x="696" y="608"/>
      <point x="758" y="541"/>
      <point x="842" y="506"/>
      <point x="891" y="506" type="qcurve"/>
      <point x="931" y="506"/>
    </contour>
  </outline>
</glyph>
<glyph name="ordfeminine" format="1">
  <advance width="1123"/>
  <unicode hex="00AA"/>
  <outline>
    <contour>
      <point x="611" y="1246" type="line"/>
      <point x="611" y="1309"/>
      <point x="544" y="1360"/>
      <point x="487" y="1360" type="qcurve"/>
      <point x="451" y="1360"/>
      <point x="390" y="1351"/>
      <point x="336" y="1337"/>
      <point x="287" y="1320"/>
      <point x="262" y="1313" type="qcurve"/>
      <point x="258" y="1312"/>
      <point x="252" y="1311"/>
      <point x="249" y="1311" type="qcurve"/>
      <point x="223" y="1311"/>
      <point x="188" y="1345"/>
      <point x="188" y="1370" type="qcurve"/>
      <point x="188" y="1380"/>
      <point x="193" y="1392" type="qcurve"/>
      <point x="204" y="1425"/>
      <point x="258" y="1471"/>
      <point x="338" y="1501"/>
      <point x="441" y="1514"/>
      <point x="501" y="1514" type="qcurve"/>
      <point x="572" y="1514"/>
      <point x="689" y="1482"/>
      <point x="773" y="1408"/>
      <point x="820" y="1288"/>
      <point x="820" y="1200" type="qcurve"/>
      <point x="820" y="905" type="line"/>
      <point x="820" y="876"/>
      <point x="814" y="823"/>
      <point x="794" y="781"/>
      <point x="753" y="756"/>
      <point x="719" y="756" type="qcurve"/>
      <point x="676" y="756"/>
      <point x="618" y="810"/>
      <point x="618" y="869" type="qcurve"/>
      <point x="617" y="888" type="line"/>
      <point x="602" y="847"/>
      <point x="548" y="790"/>
      <point x="479" y="755"/>
      <point x="402" y="739"/>
      <point x="366" y="739" type="qcurve"/>
      <point x="316" y="739"/>
      <point x="228" y="767"/>
      <point x="163" y="823"/>
      <point x="125" y="903"/>
      <point x="125" y="956" type="qcurve"/>
      <point x="125" y="1086"/>
      <point x="337" y="1203"/>
      <point x="543" y="1206" type="qcurve"/>
      <point x="557" y="1206"/>
      <point x="595" y="1206"/>
      <point x="611" y="1205" type="qcurve"/>
    </contour>
    <contour>
      <point x="611" y="1098" type="line"/>
      <point x="559" y="1098"/>
      <point x="458" y="1092"/>
      <point x="378" y="1068"/>
      <point x="329" y="1018"/>
      <point x="329" y="973" type="qcurve"/>
      <point x="329" y="918"/>
      <point x="397" y="862"/>
      <point x="451" y="860" type="qcurve"/>
      <point x="521" y="861"/>
      <point x="609" y="960"/>
      <point x="611" y="1050" type="qcurve"/>
    </contour>
  </outline>
</glyph>
<glyph name="guillemotleft" format="1">
  <advance width="1238"/>
  <unicode hex="00AB"/>
  <outline>
    <contour>
      <point x="363" y="972" type="line"/>
      <point x="390" y="1015"/>
      <point x="454" y="1052"/>
      <point x="489" y="1052" type="qcurve"/>
      <point x="512" y="1052"/>
      <point x="553" y="1036"/>
      <point x="583" y="1007"/>
      <point x="601" y="968"/>
      <point x="601" y="946" type="qcurve"/>
      <point x="601" y="931"/>
      <point x="586" y="893"/>
      <point x="578" y="875" type="qcurve"/>
      <point x="423" y="529" type="line"/>
      <point x="465" y="437"/>
      <point x="545" y="256"/>
      <point x="586" y="165" type="qcurve"/>
      <point x="591" y="153"/>
      <point x="600" y="129"/>
      <point x="602" y="117" type="qcurve"/>
      <point x="602" y="67"/>
      <point x="537" y="5"/>
      <point x="483" y="5" type="qcurve"/>
      <point x="442" y="6"/>
      <point x="377" y="62"/>
      <point x="346" y="115" type="qcurve"/>
      <point x="105" y="529" type="line"/>
    </contour>
    <contour>
      <point x="865" y="972" type="line"/>
      <point x="891" y="1014"/>
      <point x="956" y="1052"/>
      <point x="990" y="1052" type="qcurve"/>
      <point x="1013" y="1052"/>
      <point x="1054" y="1036"/>
      <point x="1085" y="1007"/>
      <point x="1103" y="968"/>
      <point x="1103" y="946" type="qcurve"/>
      <point x="1103" y="931"/>
      <point x="1088" y="893"/>
      <point x="1080" y="875" type="qcurve"/>
      <point x="925" y="529" type="line"/>
      <point x="1088" y="165" type="line"/>
      <point x="1093" y="153"/>
      <point x="1102" y="129"/>
      <point x="1104" y="117" type="qcurve"/>
      <point x="1104" y="66"/>
      <point x="1038" y="5"/>
      <point x="984" y="5" type="qcurve"/>
      <point x="945" y="5"/>
      <point x="877" y="62"/>
      <point x="847" y="115" type="qcurve"/>
      <point x="606" y="529" type="line"/>
    </contour>
  </outline>
</glyph>
<glyph name="logicalnot" format="1">
  <advance width="1287"/>
  <unicode hex="00AC"/>
  <outline>
    <contour>
      <point x="1159" y="341" type="line"/>
      <point x="1159" y="314"/>
      <point x="1141" y="276"/>
      <point x="1111" y="252"/>
      <point x="1074" y="240"/>
      <point x="1056" y="240" type="qcurve"/>
      <point x="1001" y="240"/>
      <point x="954" y="311"/>
      <point x="954" y="380" type="qcurve"/>
      <point x="954" y="639" type="line"/>
      <point x="289" y="639" type="line"/>
      <point x="259" y="639"/>
      <point x="201" y="646"/>
      <point x="157" y="668"/>
      <point x="130" y="708"/>
      <point x="130" y="742" type="qcurve"/>
      <point x="130" y="844"/>
      <point x="268" y="844" type="qcurve"/>
      <point x="1015" y="844" type="line"/>
      <point x="1044" y="844"/>
      <point x="1096" y="834"/>
      <point x="1136" y="807"/>
      <point x="1159" y="759"/>
      <point x="1159" y="722" type="qcurve"/>
    </contour>
  </outline>
</glyph>
